<svg xmlns="http://www.w3.org/2000/svg" xmlns:xlink="http://www.w3.org/1999/xlink" version="1.1" x="0px" y="0px" viewBox="0 0 100 125" enable-background="new 0 0 100 100" xml:space="preserve"><path fill-rule="evenodd" clip-rule="evenodd" d="M7.777,85.602c1.596-0.54,2.756-0.155,3.141,1.017  c0.205,0.939-0.376,1.835-1.528,2.007C6.179,89.104,5.306,86.437,7.777,85.602z M6.936,77.74c2.644,1.186,6.018-2.067,3.569-3.844  c-0.823-0.598-3.428-0.802-4.119,0C5.41,75.026,6.325,76.381,6.936,77.74z M8.034,76.642c0.839,0.448,0.861,0.007,1.921-0.274  C9.923,76.905,8.06,77.844,8.034,76.642z M5.563,37.7c2.512,2.03,6.725,0.896,6.573-1.473c-0.124-1.94-2.21-2.646-4.376-2.646  C4.936,33.582,4.811,37.092,5.563,37.7z M5.81,15.13c0.81,1.484,3.42,2.037,5.491-0.274c1.468-1.638-0.266-4.029-2.196-4.394  C6.107,9.899,4.768,13.223,5.81,15.13z M6.358,14.307c1.265-1.104,3.6-1.936,4.119,0.274C9.059,14.534,7.378,14.751,6.358,14.307z   M11.331,24.663c-0.025-1.709-2.677-4.072-4.943-2.196C4.217,26.358,11.367,27.063,11.331,24.663z M21.853,49.446  c1.702-3.428-4.146-4.801-5.11-1.819C15.974,50.003,20.76,51.646,21.853,49.446z M16.342,61.951c-0.971,2.119,4.878,4.76,6.04,1.922  c0.326-0.796,0.285-2.147-0.275-2.47C20.074,60.227,17.096,60.305,16.342,61.951z M18.813,63.599  c0.146-0.771,1.323-0.508,1.923-0.823c-0.045,0.318,0.061,0.488,0.273,0.549C20.483,63.912,19.578,63.926,18.813,63.599z   M19.14,25.973c1.249,0.003,2.373,0.082,2.839-1.666c0.311-1.167-1.295-2.383-2.839-2.453C16.232,21.724,15.819,25.963,19.14,25.973  z M17.27,15.721c2.746,0.184,4.66,0.109,5.148-1.648c0.494-1.782-0.528-2.863-2.128-3.02C16.828,10.715,15.024,13.966,17.27,15.721z   M17.27,14.348c0.146-0.221,0.285-0.447,0.273-0.824c0.483,0.249,0.454,1.011,1.099,1.098C18.306,15.454,17.594,14.428,17.27,14.348  z M34.799,48.025c-0.274-1.427-3.909-2.569-4.941-1.098C27.208,50.707,35.461,51.462,34.799,48.025z M34.436,88.293  c0.243-0.919-0.067-2.373-0.824-2.744c-0.979-0.481-2.482-0.816-3.02-0.55C27.264,87.434,33.795,90.708,34.436,88.293z   M32.291,11.254c-2.11,0.141-3.806,1.691-2.74,3.294c1.25,1.881,5.875,1.03,5.355-1.372C34.645,11.971,33.989,11.141,32.291,11.254z   M31.472,14c0.082-0.949,1.756-1.105,1.374,0.274C32.526,14.043,32.109,13.912,31.472,14z M49.199,48.164  c-0.407-3.157-6.232-2.003-6.314-0.548C42.667,51.521,49.529,50.723,49.199,48.164z M46.178,60.542  c-1.426-0.178-2.886,0.762-3.136,1.896c-0.579,2.637,4.151,3.719,5.736,1.75C49.895,62.801,47.852,60.75,46.178,60.542z   M45.513,63.26c0.03-0.7,0.919-0.544,1.648-0.548C47.395,63.75,45.931,63.683,45.513,63.26z M50.056,24.079  c0.391-3.864-8.935-4.39-7.962,1.374C42.461,27.626,49.787,26.75,50.056,24.079z M67.807,76.617c0.877,3.102,5.43,0.585,5.855-1.244  C74.426,72.097,66.725,72.79,67.807,76.617z M68.904,76.891c0-0.273,0-0.551,0-0.823c1.004,0.061,1.053,0.378,1.924,0  C71.006,77.162,69.783,76.854,68.904,76.891z M68.059,64.41c1.486,0.896,3.953,1.207,4.943-0.272  c0.479-0.718,0.76-0.934,0.273-1.648c-0.701-1.035-1.984-2.079-3.295-1.921C67.662,60.848,67.729,63.461,68.059,64.41z   M93.117,49.885c2.436-0.692-2.297-5.409-3.598-2.551C88.471,49.634,91.238,50.419,93.117,49.885z M93.473,14.915  c0.367-1.199,0.301-2.221-0.549-3.021c-0.82-0.767-1.129-0.812-2.197-0.274C87.75,13.119,90.311,17.104,93.473,14.915z   M91.84,73.542c-1.98-0.119-4.119,1.049-2.986,3.029c0.369,0.646,1.488,1.229,2.693,1.257c1.189,0.028,2.467-0.493,2.797-1.257  C95.135,74.745,93.543,73.643,91.84,73.542z M90.227,75.747c0.705,0.136,2.178,0.914,2.746,0.274  C93.797,76.717,89.916,77.041,90.227,75.747z M93.713,25.198c0.797-1.579-0.375-2.847-1.715-3.665  c-1.006-0.615-1.67-0.278-2.471,1.098C87.779,25.637,92.135,28.313,93.713,25.198z M20.324,73.235  c-2.627-0.598-5.86,1.233-4.039,3.845c1.297,1.861,5.504,1.273,6.588-0.275C23.64,75.712,21.981,73.612,20.324,73.235z   M21.954,37.403c1.209-2.02-0.413-3.075-2.118-3.704c-0.873-0.322-3.043-0.607-3.341,1.327  C15.945,38.613,20.229,40.283,21.954,37.403z M78.941,73.948c-2.414,0.99-2.533,4.37,1.338,3.879  c1.047-0.132,2.412-0.433,3.018-1.373C85.23,73.455,81.354,72.959,78.941,73.948z M77.807,76.454c0-0.364,0-0.73,0-1.098  c0.561,0.355,0.502,1.332,1.648,1.098C79.178,77.227,78.289,76.379,77.807,76.454z M77.977,49.284  c1.15,0.956,3.764,2.032,4.943,0.549c2.359-2.961-2.865-5.032-4.943-3.294C77.33,47.079,77.438,47.956,77.977,49.284z M5.093,62.938  c-0.644,2.709,6.75,3.246,7.136,0.807C12.716,60.672,6.151,58.488,5.093,62.938z M7.837,63.744c0.265-0.559,1.053-0.593,1.921-0.549  C9.72,63.98,8.613,63.697,7.837,63.744z M11.02,49.332c0.659-1.462-0.493-2.345-1.373-3.021c-0.963-0.74-1.931-0.627-2.744,0.274  C4.012,49.788,9.694,52.274,11.02,49.332z M73.646,25.162c0.818-0.75,0.584-1.251,0-2.196c-0.986-1.603-4.445-1.69-5.766-0.275  C65.299,25.457,71.219,27.391,73.646,25.162z M21.846,87.541c1.299-2.022-3.221-3.463-4.392-1.921  C14.865,89.023,20.035,90.361,21.846,87.541z M30.085,77.791c4.703,1.156,7.049-3.699,2.47-4.393  C29.58,73.284,28.02,76.968,30.085,77.791z M29.979,38.268c0.786,1.284,4.564,0.693,4.942-0.549c0.835-2.738-2.185-5.57-4.942-3.843  C28.425,34.849,29.283,37.129,29.979,38.268z M29.607,64.574c1.233,2.074,4.157,1.381,5.765-0.824  c1.212-1.663-1.197-3.982-2.746-3.843c-1.6,0.144-2.645,0.108-3.842,1.645C27.949,62.623,28.963,63.491,29.607,64.574z   M29.404,24.741c1,1.646,4.343,1.83,5.493,0.413c0.926-1.139-0.816-3.434-3.043-3.434C30.129,21.72,28.174,22.717,29.404,24.741z   M43.876,76.312c0,0.524,0.371,1.623,0.898,1.667c2.534,0.205,3.508-1.315,3.437-2.817C48.048,71.726,43.876,73.852,43.876,76.312z   M48.746,87.781c-0.32-2.041-2.907-3.553-4.939-2.196C41.649,89.02,47.708,90.015,48.746,87.781z M42.216,35.411  c-1.013,4.876,6.429,4.418,7.542,1.717c1.178-2.858-2.846-4.06-5.345-3.914C43.077,33.293,42.438,34.347,42.216,35.411z   M43.314,37.058c-0.179-1.002,0.185-1.462,0.548-1.922c0.557,0.909,0.775,2.155,2.197,2.197  C45.386,38.078,44.179,37.033,43.314,37.058z M61.961,48.779c0.5-2.304-0.703-3.658-3.021-3.296  c-2.205,0.344-4.281,2.015-3.844,4.394C55.535,52.261,61.58,50.527,61.961,48.779z M57.248,78.05  c1.186,0.333,2.98-0.059,3.844-1.374c0.926-1.408-0.813-3.217-2.293-3.443C55.807,72.777,54.539,77.287,57.248,78.05z   M61.375,87.805c0.113-1.807-3.563-4.22-4.939-2.472C53.389,89.207,61.195,90.693,61.375,87.805z M61.063,64.432  c0.723-0.853,0.432-2.435-0.576-3.304c-0.926-0.799-2.484-0.954-3.814-0.265C53.428,62.541,58.721,67.198,61.063,64.432z   M55.23,34.86c-1.369,2.742,4.236,5.973,6.314,3.294c1.273-1.644,0.143-3.746-1.492-4.703C58.523,32.556,55.629,34.063,55.23,34.86z   M73.854,47.833c-0.125-2.703-7.744-2.804-6.041,1.921C68.447,51.517,73.947,49.874,73.854,47.833z M67.984,86.858  c-0.607,3.628,5.512,3.059,5.492,0.273c-0.012-1.459-1.707-2.664-3.021-2.47C69.207,84.846,68.16,85.816,67.984,86.858z   M60.787,25.225c1-1.721-1.289-3.792-3.021-3.843C53.527,21.256,58.313,29.479,60.787,25.225z M73.07,37.248  c1.256-2.054-2.115-4.122-3.568-3.294C65.525,36.217,70.877,40.835,73.07,37.248z M78.557,64.817  c1.611,0.382,4.537,0.558,4.934-0.583c0.65-1.87-2.045-3.991-4.119-3.57C78.311,60.88,76.15,62.859,78.557,64.817z M82.57,37.551  c2.156-2.308-3.4-4.682-4.393-2.472C77.059,37.574,81.209,39.008,82.57,37.551z M83.457,88.351c1.342-1.688-0.461-3.295-2.58-3.426  c-1.643-0.103-3.58,0.899-3.734,2.054C76.848,89.188,82.322,89.777,83.457,88.351z M78.484,21.088  c-6.211,4.392,3.303,8.856,5.969,4.028C85.594,23.05,81.008,19.305,78.484,21.088z M79.512,24.841  c-0.424,0.753-1.609-0.012-1.648-0.549c0.035-1.065,0.811-1.387,1.375-1.922C79.203,22.836,79.014,24.492,79.512,24.841z   M88.787,88.069c1.225,1.896,3.67,2.082,5.492,0.275c1-0.993-0.158-2.458-1.1-3.294C91.203,83.299,87.213,85.636,88.787,88.069z   M94.854,37.622c0.699-1.999-2.703-5.803-4.668-4.667C84.23,36.397,93.025,42.842,94.854,37.622z M88.836,62.325  c0.494,3.188,4.459,2.914,5.217,1.374c0.924-1.884-1.314-2.8-2.773-2.791C89.68,60.916,88.699,61.45,88.836,62.325z M43.997,15.547  c2.571,0.983,4.66,0.11,5.149-1.647c0.494-1.782-0.528-2.863-2.129-3.02C43.554,10.542,41.334,14.531,43.997,15.547z M56.689,15.547  c2.342,0.983,4.246,0.11,4.689-1.647c0.451-1.782-0.48-2.863-1.939-3.02C56.285,10.542,54.264,14.531,56.689,15.547z M71.35,10.469  c-2.684,0.603-3.943,2.485-3.377,4.22c0.572,1.758,2.021,2.094,3.441,1.339C74.486,14.396,74.131,9.845,71.35,10.469z   M78.842,15.359c2.111,0.894,3.828,0.099,4.23-1.502c0.406-1.624-0.434-2.609-1.75-2.751C78.479,10.797,76.654,14.431,78.842,15.359  z"/><text x="0" y="115" fill="#000000" font-size="5px" font-weight="bold" font-family="'Helvetica Neue', Helvetica, Arial-Unicode, Arial, Sans-serif">Created by Ayesha Rahma Azizah</text><text x="0" y="120" fill="#000000" font-size="5px" font-weight="bold" font-family="'Helvetica Neue', Helvetica, Arial-Unicode, Arial, Sans-serif">from the Noun Project</text></svg>