<svg width="348" height="181" viewBox="0 0 348 181" fill="none" xmlns="http://www.w3.org/2000/svg">
<rect y="1" width="348" height="180" rx="22" fill="#0961F5"/>
<path fill-rule="evenodd" clip-rule="evenodd" d="M173.033 181C173.033 181 224.267 168.5 232.967 164.5C241.667 160.5 236.833 140 246.5 140C256.167 140 280.817 160.5 295.8 160.5C310.783 160.5 318.033 114 324.317 114C330.6 114 334.467 140 340.267 140C346.067 140 348 104.5 348 104.5V161C348 172.046 339.046 181 328 181H173.033Z" fill="#1A6EFC"/>
<path fill-rule="evenodd" clip-rule="evenodd" d="M0 65.5V21C0 9.95431 8.95431 1 20 1H150.8C150.8 1 126.15 40 113.583 33.5C101.017 27 97.5504 14.0479 80.2333 19.5C62.9163 24.9521 68.6603 47.6068 58 51C47.3397 54.3932 33.8333 32.5 27.0667 37C20.3 41.5 18.7073 69.5877 15.4667 73C12.226 76.4123 0 65.5 0 65.5Z" fill="#1A6EFC"/>
<path d="M171.651 1.86898L155.082 29.131" stroke="#1A6EFC" stroke-width="2" stroke-linecap="round" stroke-linejoin="round"/>
<path d="M169.319 25.2588L156.293 45.1186" stroke="#1A6EFC" stroke-width="2" stroke-linecap="round" stroke-linejoin="round"/>
<path d="M194.93 77.6954C194.813 77.4536 194.569 77.3 194.3 77.3C194.031 77.3 193.787 77.4536 193.67 77.6954L189.803 85.6954C189.698 85.9123 189.712 86.1679 189.84 86.372C189.968 86.5761 190.192 86.7 190.433 86.7H198.167C198.408 86.7 198.632 86.5761 198.76 86.372C198.888 86.1679 198.902 85.9123 198.797 85.6954L194.93 77.6954Z" stroke="#1A6EFC" stroke-width="1.4" stroke-linejoin="round"/>
<ellipse cx="217.5" cy="37" rx="19.3333" ry="5" stroke="#1A6EFC" stroke-width="2"/>
</svg>
