<svg xmlns="http://www.w3.org/2000/svg" data-name="Layer 1" viewBox="0 0 512 640" x="0px" y="0px"><title>Pattern dot outline</title><g><circle cx="71" cy="71" r="9.5"/><circle cx="145" cy="71" r="9.5"/><circle cx="219" cy="71" r="9.5"/><circle cx="293" cy="71" r="9.5"/><circle cx="367" cy="71" r="9.5"/><circle cx="441" cy="71" r="9.5"/><circle cx="71" cy="145" r="9.5"/><circle cx="145" cy="145" r="9.5"/><circle cx="219" cy="145" r="9.5"/><circle cx="293" cy="145" r="9.5"/><circle cx="367" cy="145" r="9.5"/><circle cx="441" cy="145" r="9.5"/><circle cx="71" cy="219" r="9.5"/><circle cx="145" cy="219" r="9.5"/><circle cx="219" cy="219" r="9.5"/><circle cx="293" cy="219" r="9.5"/><circle cx="367" cy="219" r="9.5"/><circle cx="441" cy="219" r="9.5"/><circle cx="71" cy="293" r="9.5"/><circle cx="145" cy="293" r="9.5"/><circle cx="219" cy="293" r="9.5"/><circle cx="293" cy="293" r="9.5"/><circle cx="367" cy="293" r="9.5"/><circle cx="441" cy="293" r="9.5"/><circle cx="71" cy="367" r="9.5"/><circle cx="145" cy="367" r="9.5"/><circle cx="219" cy="367" r="9.5"/><circle cx="293" cy="367" r="9.5"/><circle cx="367" cy="367" r="9.5"/><circle cx="441" cy="367" r="9.5"/><circle cx="71" cy="441" r="9.5"/><circle cx="145" cy="441" r="9.5"/><circle cx="219" cy="441" r="9.5"/><circle cx="293" cy="441" r="9.5"/><circle cx="367" cy="441" r="9.5"/><circle cx="441" cy="441" r="9.5"/></g><text x="0" y="527" fill="#000000" font-size="5px" font-weight="bold" font-family="'Helvetica Neue', Helvetica, Arial-Unicode, Arial, Sans-serif">Created by Palukx</text><text x="0" y="532" fill="#000000" font-size="5px" font-weight="bold" font-family="'Helvetica Neue', Helvetica, Arial-Unicode, Arial, Sans-serif">from the Noun Project</text></svg>