<svg xmlns="http://www.w3.org/2000/svg" width="49.667" height="49.669" viewBox="0 0 49.667 49.669"><g transform="translate(0)"><path d="M311.667,136.833a24.749,24.749,0,0,1-2,9.779l-.082.19a24.874,24.874,0,0,1-27.06,14.492q-.224-.04-.447-.082a24.611,24.611,0,0,1-4.492-1.325q-.354-.142-.7-.295c-.159-.069-.317-.14-.475-.214a24.836,24.836,0,1,1,35.258-22.545Z" transform="translate(-262 -112)" fill="#2290f1"/><path d="M408.43,361.749q-.224-.04-.447-.082a102.119,102.119,0,0,0-1.565-14.642,54.322,54.322,0,0,0-2.678-9.74,30.316,30.316,0,0,0-1.4-3.074,15.942,15.942,0,0,0-4.449-5.5l.262-.357a15.365,15.365,0,0,1,3.984,4.561q.53.88,1.018,1.876.523,1.067,1,2.265.3.763.586,1.578a57.29,57.29,0,0,1,2.091,8.08q.191,1,.363,2.055A104.2,104.2,0,0,1,408.43,361.749Z" transform="translate(-387.906 -312.454)" opacity="0.2"/><path d="M406.189,606.828c-.159-.069-.317-.14-.475-.214a36.076,36.076,0,0,0-.951-5.7,18.711,18.711,0,0,0-.868-2.586,7.761,7.761,0,0,0-2.336-3.271l.262-.356a8.119,8.119,0,0,1,2.442,3.346,22.949,22.949,0,0,1,1.463,5.156C405.955,604.5,406.1,605.757,406.189,606.828Z" transform="translate(-391.306 -559.235)" opacity="0.2"/><circle cx="2.211" cy="2.211" r="2.211" transform="translate(5.303 11.821)" opacity="0.2"/><circle cx="2.211" cy="2.211" r="2.211" transform="translate(6.015 30.851)" opacity="0.2"/><path d="M482.177,296.293a9.82,9.82,0,0,0,.566,5.04,8.949,8.949,0,0,0,1.7-9.578A9.82,9.82,0,0,0,482.177,296.293Z" transform="translate(-465.888 -278.548)" opacity="0.2"/><path d="M332.295,398.655a9.868,9.868,0,0,0,5.058.33,9,9,0,0,0-9.135-3.34A9.868,9.868,0,0,0,332.295,398.655Z" transform="translate(-323.352 -374.632)" opacity="0.2"/><path d="M341.883,639.937a6.884,6.884,0,0,0,3.547.225,6.272,6.272,0,0,0-6.4-2.341A6.882,6.882,0,0,0,341.883,639.937Z" transform="translate(-333.369 -599.062)" opacity="0.2"/><circle cx="9.681" cy="9.681" r="9.681" transform="translate(15.101 10.97)" fill="#d0cde1"/><path d="M547.833,455.812s1.21,5.748,1.21,6.353,5.748,3.328,5.748,3.328l5.143-.908,1.815-5.446s-3.025-4.538-3.025-6.353Z" transform="translate(-526.832 -427.749)" fill="#d0cde1"/><path d="M425.705,522.116l-.082.19a24.874,24.874,0,0,1-27.06,14.492q-.224-.04-.447-.082a24.607,24.607,0,0,1-4.492-1.325q-.354-.142-.7-.295c-.159-.069-.317-.14-.475-.214a24.8,24.8,0,0,1-4.059-2.372l-1.148-3.329.645-.492,1.327-1.013,1.416-1.081.368-.281,5.555-4.241.41-.313,2.887-2.2h0s3.123,5.088,7.661,3.575a6.258,6.258,0,0,0,4.439-5.851Z" transform="translate(-378.038 -487.503)" fill="#2f2e41"/><path d="M456.322,219.408s3.074-6.66,8.965-5.123,9.221,3.842,9.478,6.148a32.9,32.9,0,0,1-.128,5.763s-.64-4.739-4.739-3.714-10.5.256-10.5.256l-1.025,9.221s-1.153-1.665-2.433-.64S452.223,221.457,456.322,219.408Z" transform="translate(-439.935 -206.556)" fill="#2f2e41"/><path d="M378.132,685.479q-.354-.142-.7-.295c-.159-.069-.317-.14-.475-.214a24.9,24.9,0,0,1-6.435-4.313,8.707,8.707,0,0,1,1.228-1.388h4.538l.68,2.288Z" transform="translate(-362.547 -637.592)" fill="#2f2e41"/><path d="M853.177,576.32l3.893.688a24.827,24.827,0,0,1-4.17,6.507Z" transform="translate(-809.486 -542.206)" fill="#2f2e41"/></g></svg>