<svg xmlns="http://www.w3.org/2000/svg" xmlns:xlink="http://www.w3.org/1999/xlink" width="794" zoomAndPan="magnify" viewBox="0 0 595.5 842.249979" height="1123" preserveAspectRatio="xMidYMid meet" version="1.0"><path fill="#000000" d="M 313.148438 115.636719 C 313.359375 115.609375 313.589844 115.605469 313.835938 115.621094 C 314.082031 115.636719 314.339844 115.675781 314.609375 115.734375 C 314.875 115.792969 315.148438 115.871094 315.429688 115.972656 C 315.707031 116.070312 315.988281 116.191406 316.265625 116.332031 C 316.683594 116.546875 317.058594 116.785156 317.378906 117.039062 C 317.699219 117.292969 317.964844 117.5625 318.164062 117.828125 C 318.363281 118.097656 318.496094 118.363281 318.546875 118.613281 C 318.597656 118.867188 318.566406 119.101562 318.4375 119.304688 C 318.394531 119.371094 318.34375 119.433594 318.28125 119.488281 C 318.21875 119.546875 318.148438 119.59375 318.070312 119.640625 C 317.992188 119.683594 317.902344 119.722656 317.808594 119.753906 C 317.714844 119.785156 317.613281 119.808594 317.507812 119.828125 C 317.292969 119.867188 317.054688 119.882812 316.796875 119.871094 C 316.542969 119.859375 316.265625 119.824219 315.980469 119.765625 C 315.695312 119.707031 315.398438 119.621094 315.097656 119.515625 C 314.800781 119.40625 314.496094 119.277344 314.199219 119.121094 C 313.753906 118.886719 313.359375 118.625 313.03125 118.351562 C 312.707031 118.082031 312.449219 117.796875 312.269531 117.519531 C 312.085938 117.246094 311.984375 116.976562 311.964844 116.730469 C 311.945312 116.488281 312.007812 116.265625 312.164062 116.082031 C 312.21875 116.023438 312.277344 115.964844 312.347656 115.917969 C 312.417969 115.867188 312.492188 115.828125 312.574219 115.789062 C 312.660156 115.753906 312.75 115.722656 312.84375 115.695312 C 312.941406 115.671875 313.042969 115.652344 313.148438 115.636719 Z M 313.148438 115.636719 " fill-opacity="1" fill-rule="nonzero"/><path fill="#000000" d="M 326.101562 124.777344 C 326.175781 124.757812 326.257812 124.742188 326.34375 124.734375 C 326.429688 124.726562 326.519531 124.722656 326.617188 124.722656 C 326.714844 124.726562 326.816406 124.734375 326.921875 124.746094 C 327.027344 124.757812 327.136719 124.777344 327.25 124.804688 C 327.589844 124.878906 327.933594 124.996094 328.269531 125.152344 C 328.605469 125.304688 328.929688 125.492188 329.226562 125.699219 C 329.527344 125.910156 329.800781 126.144531 330.03125 126.386719 C 330.265625 126.632812 330.453125 126.890625 330.578125 127.144531 C 330.660156 127.316406 330.710938 127.476562 330.734375 127.621094 C 330.753906 127.769531 330.742188 127.902344 330.707031 128.019531 C 330.667969 128.140625 330.597656 128.242188 330.503906 128.328125 C 330.410156 128.410156 330.285156 128.480469 330.140625 128.523438 C 330.066406 128.546875 329.984375 128.566406 329.894531 128.578125 C 329.808594 128.589844 329.714844 128.597656 329.613281 128.597656 C 329.515625 128.597656 329.410156 128.59375 329.300781 128.578125 C 329.1875 128.566406 329.074219 128.550781 328.953125 128.523438 C 328.59375 128.449219 328.226562 128.320312 327.871094 128.15625 C 327.519531 127.992188 327.175781 127.789062 326.863281 127.566406 C 326.554688 127.339844 326.277344 127.09375 326.050781 126.835938 C 325.824219 126.582031 325.648438 126.320312 325.539062 126.0625 C 325.46875 125.894531 325.433594 125.738281 325.425781 125.597656 C 325.417969 125.457031 325.441406 125.332031 325.492188 125.222656 C 325.542969 125.113281 325.621094 125.019531 325.726562 124.945312 C 325.828125 124.871094 325.953125 124.8125 326.101562 124.777344 Z M 326.101562 124.777344 " fill-opacity="1" fill-rule="nonzero"/><path fill="#000000" d="M 335.09375 136.253906 C 335.195312 136.210938 335.304688 136.175781 335.417969 136.148438 C 335.535156 136.121094 335.660156 136.101562 335.792969 136.09375 C 335.925781 136.085938 336.0625 136.082031 336.210938 136.09375 C 336.359375 136.101562 336.515625 136.117188 336.675781 136.144531 C 337.183594 136.230469 337.71875 136.402344 338.253906 136.644531 C 338.789062 136.882812 339.324219 137.191406 339.832031 137.550781 C 340.339844 137.910156 340.824219 138.320312 341.253906 138.761719 C 341.6875 139.207031 342.0625 139.683594 342.355469 140.175781 C 342.554688 140.511719 342.703125 140.835938 342.796875 141.136719 C 342.890625 141.4375 342.933594 141.722656 342.925781 141.976562 C 342.917969 142.230469 342.855469 142.460938 342.746094 142.65625 C 342.636719 142.851562 342.476562 143.011719 342.269531 143.132812 C 342.171875 143.1875 342.0625 143.234375 341.945312 143.273438 C 341.828125 143.3125 341.703125 143.339844 341.5625 143.355469 C 341.425781 143.375 341.277344 143.382812 341.121094 143.378906 C 340.964844 143.375 340.796875 143.363281 340.621094 143.335938 C 340.070312 143.253906 339.480469 143.066406 338.890625 142.796875 C 338.304688 142.527344 337.722656 142.175781 337.175781 141.773438 C 336.632812 141.371094 336.132812 140.917969 335.699219 140.4375 C 335.273438 139.960938 334.921875 139.460938 334.667969 138.960938 C 334.5 138.621094 334.386719 138.304688 334.328125 138.015625 C 334.269531 137.730469 334.265625 137.46875 334.308594 137.238281 C 334.347656 137.007812 334.4375 136.808594 334.574219 136.644531 C 334.703125 136.480469 334.878906 136.347656 335.09375 136.253906 Z M 335.09375 136.253906 " fill-opacity="1" fill-rule="nonzero"/><path fill="#000000" d="M 299.773438 110.84375 C 299.863281 110.839844 299.957031 110.835938 300.054688 110.835938 C 300.152344 110.839844 300.253906 110.84375 300.355469 110.855469 C 300.457031 110.863281 300.5625 110.878906 300.671875 110.894531 C 300.777344 110.914062 300.890625 110.9375 301 110.964844 C 301.332031 111.042969 301.648438 111.152344 301.9375 111.285156 C 302.226562 111.414062 302.488281 111.570312 302.714844 111.734375 C 302.941406 111.902344 303.125 112.082031 303.261719 112.261719 C 303.398438 112.449219 303.480469 112.636719 303.496094 112.816406 C 303.507812 112.9375 303.488281 113.046875 303.441406 113.144531 C 303.394531 113.246094 303.324219 113.332031 303.226562 113.40625 C 303.128906 113.480469 303.007812 113.542969 302.867188 113.589844 C 302.726562 113.640625 302.5625 113.671875 302.386719 113.691406 C 302.292969 113.699219 302.199219 113.703125 302.097656 113.703125 C 302 113.703125 301.894531 113.699219 301.789062 113.691406 C 301.679688 113.683594 301.570312 113.671875 301.457031 113.652344 C 301.34375 113.636719 301.230469 113.613281 301.109375 113.585938 C 300.761719 113.503906 300.429688 113.386719 300.125 113.25 C 299.820312 113.109375 299.546875 112.945312 299.316406 112.769531 C 299.085938 112.59375 298.902344 112.40625 298.773438 112.214844 C 298.648438 112.027344 298.578125 111.835938 298.582031 111.65625 C 298.582031 111.539062 298.613281 111.429688 298.671875 111.335938 C 298.730469 111.242188 298.8125 111.160156 298.917969 111.089844 C 299.023438 111.023438 299.148438 110.96875 299.292969 110.925781 C 299.4375 110.882812 299.597656 110.855469 299.773438 110.84375 Z M 299.773438 110.84375 " fill-opacity="1" fill-rule="nonzero"/><path fill="#000000" d="M 284.589844 109.613281 C 285.066406 109.589844 285.558594 109.621094 286.042969 109.695312 C 286.519531 109.773438 286.992188 109.898438 287.429688 110.058594 C 287.867188 110.21875 288.273438 110.417969 288.625 110.648438 C 288.976562 110.875 289.273438 111.132812 289.492188 111.414062 C 289.707031 111.695312 289.824219 111.972656 289.84375 112.234375 C 289.867188 112.5 289.792969 112.75 289.632812 112.96875 C 289.46875 113.1875 289.214844 113.378906 288.878906 113.527344 C 288.542969 113.675781 288.121094 113.777344 287.628906 113.824219 C 287.128906 113.867188 286.609375 113.84375 286.089844 113.769531 C 285.574219 113.695312 285.0625 113.5625 284.585938 113.386719 C 284.109375 113.210938 283.675781 112.992188 283.308594 112.742188 C 282.941406 112.492188 282.640625 112.210938 282.441406 111.914062 C 282.242188 111.613281 282.15625 111.324219 282.171875 111.058594 C 282.1875 110.792969 282.304688 110.554688 282.503906 110.347656 C 282.703125 110.140625 282.988281 109.96875 283.339844 109.84375 C 283.691406 109.71875 284.109375 109.640625 284.589844 109.613281 Z M 284.589844 109.613281 " fill-opacity="1" fill-rule="nonzero"/><path fill="#000000" d="M 307.601562 119.699219 C 307.976562 119.636719 308.386719 119.617188 308.816406 119.632812 C 309.242188 119.652344 309.6875 119.707031 310.144531 119.800781 C 310.601562 119.894531 311.066406 120.027344 311.539062 120.195312 C 312.007812 120.363281 312.476562 120.570312 312.941406 120.816406 C 313.644531 121.183594 314.265625 121.609375 314.792969 122.0625 C 315.328125 122.519531 315.765625 123.007812 316.085938 123.503906 C 316.414062 124.003906 316.625 124.507812 316.695312 124.992188 C 316.769531 125.480469 316.699219 125.949219 316.460938 126.359375 C 316.378906 126.5 316.28125 126.628906 316.167969 126.746094 C 316.054688 126.863281 315.925781 126.96875 315.78125 127.066406 C 315.636719 127.164062 315.480469 127.246094 315.308594 127.320312 C 315.136719 127.394531 314.953125 127.453125 314.757812 127.503906 C 314.367188 127.601562 313.933594 127.652344 313.46875 127.65625 C 313.003906 127.660156 312.507812 127.617188 311.992188 127.519531 C 311.476562 127.425781 310.945312 127.28125 310.410156 127.089844 C 309.878906 126.898438 309.34375 126.65625 308.820312 126.371094 C 308.042969 125.9375 307.371094 125.445312 306.824219 124.921875 C 306.285156 124.402344 305.871094 123.863281 305.601562 123.332031 C 305.335938 122.808594 305.207031 122.292969 305.230469 121.824219 C 305.253906 121.359375 305.421875 120.9375 305.75 120.582031 C 305.855469 120.464844 305.980469 120.359375 306.113281 120.261719 C 306.246094 120.167969 306.394531 120.082031 306.550781 120.011719 C 306.707031 119.9375 306.871094 119.875 307.046875 119.824219 C 307.222656 119.769531 307.40625 119.730469 307.601562 119.699219 Z M 307.601562 119.699219 " fill-opacity="1" fill-rule="nonzero"/><path fill="#000000" d="M 289.226562 116.171875 C 289.984375 116.089844 290.769531 116.113281 291.542969 116.21875 C 292.3125 116.328125 293.078125 116.523438 293.796875 116.785156 C 294.515625 117.050781 295.191406 117.390625 295.792969 117.785156 C 296.394531 118.1875 296.921875 118.648438 297.328125 119.160156 C 297.738281 119.679688 297.992188 120.199219 298.09375 120.703125 C 298.199219 121.214844 298.148438 121.707031 297.949219 122.15625 C 297.746094 122.609375 297.386719 123.015625 296.886719 123.347656 C 296.378906 123.683594 295.71875 123.941406 294.925781 124.085938 C 294.117188 124.230469 293.25 124.25 292.378906 124.152344 C 291.5 124.058594 290.625 123.847656 289.800781 123.542969 C 288.976562 123.238281 288.210938 122.839844 287.558594 122.367188 C 286.910156 121.902344 286.375 121.367188 286.003906 120.785156 C 285.636719 120.210938 285.464844 119.648438 285.464844 119.125 C 285.464844 118.609375 285.628906 118.132812 285.9375 117.71875 C 286.242188 117.3125 286.683594 116.964844 287.242188 116.699219 C 287.792969 116.4375 288.460938 116.253906 289.226562 116.171875 Z M 289.226562 116.171875 " fill-opacity="1" fill-rule="nonzero"/><path fill="#000000" d="M 270.355469 113.625 C 270.816406 113.589844 271.277344 113.609375 271.714844 113.667969 C 272.152344 113.730469 272.570312 113.835938 272.949219 113.976562 C 273.328125 114.113281 273.664062 114.289062 273.941406 114.496094 C 274.222656 114.699219 274.441406 114.933594 274.578125 115.1875 C 274.714844 115.445312 274.757812 115.699219 274.710938 115.941406 C 274.667969 116.183594 274.535156 116.414062 274.328125 116.621094 C 274.117188 116.828125 273.828125 117.007812 273.476562 117.148438 C 273.121094 117.292969 272.699219 117.394531 272.222656 117.445312 C 271.746094 117.496094 271.257812 117.488281 270.789062 117.429688 C 270.316406 117.367188 269.867188 117.261719 269.460938 117.109375 C 269.058594 116.960938 268.699219 116.769531 268.410156 116.546875 C 268.125 116.324219 267.910156 116.074219 267.789062 115.800781 C 267.671875 115.53125 267.65625 115.269531 267.734375 115.023438 C 267.808594 114.777344 267.972656 114.550781 268.210938 114.355469 C 268.445312 114.160156 268.75 113.996094 269.113281 113.871094 C 269.476562 113.746094 269.894531 113.660156 270.355469 113.625 Z M 270.355469 113.625 " fill-opacity="1" fill-rule="nonzero"/><path fill="#000000" d="M 319.0625 132.726562 C 319.25 132.664062 319.449219 132.617188 319.65625 132.582031 C 319.867188 132.546875 320.085938 132.523438 320.3125 132.511719 C 320.542969 132.503906 320.78125 132.507812 321.027344 132.523438 C 321.273438 132.542969 321.527344 132.570312 321.792969 132.617188 C 322.617188 132.757812 323.453125 133.027344 324.261719 133.394531 C 325.074219 133.765625 325.863281 134.234375 326.589844 134.777344 C 327.324219 135.328125 328 135.953125 328.574219 136.625 C 329.160156 137.308594 329.644531 138.042969 329.980469 138.804688 C 330.214844 139.328125 330.359375 139.832031 330.425781 140.304688 C 330.492188 140.785156 330.476562 141.230469 330.382812 141.636719 C 330.285156 142.046875 330.109375 142.414062 329.855469 142.730469 C 329.601562 143.046875 329.269531 143.3125 328.867188 143.507812 C 328.679688 143.601562 328.472656 143.679688 328.253906 143.742188 C 328.035156 143.804688 327.800781 143.851562 327.554688 143.878906 C 327.304688 143.910156 327.039062 143.925781 326.765625 143.917969 C 326.488281 143.914062 326.199219 143.890625 325.898438 143.851562 C 324.949219 143.71875 323.972656 143.410156 323.03125 142.964844 C 322.09375 142.523438 321.195312 141.949219 320.390625 141.289062 C 319.59375 140.636719 318.894531 139.902344 318.335938 139.132812 C 317.789062 138.375 317.382812 137.582031 317.160156 136.796875 C 317.011719 136.273438 316.953125 135.785156 316.980469 135.339844 C 317.003906 134.902344 317.109375 134.507812 317.285156 134.164062 C 317.457031 133.820312 317.699219 133.527344 318 133.285156 C 318.296875 133.042969 318.652344 132.855469 319.0625 132.726562 Z M 319.0625 132.726562 " fill-opacity="1" fill-rule="nonzero"/><path fill="#000000" d="M 297.722656 126.953125 C 298.4375 126.804688 299.191406 126.730469 299.964844 126.726562 C 300.734375 126.726562 301.527344 126.796875 302.328125 126.941406 C 303.125 127.085938 303.933594 127.300781 304.734375 127.589844 C 305.535156 127.878906 306.332031 128.242188 307.109375 128.679688 C 308.289062 129.347656 309.324219 130.128906 310.191406 130.984375 C 311.074219 131.851562 311.789062 132.804688 312.304688 133.785156 C 312.832031 134.789062 313.152344 135.835938 313.230469 136.859375 C 313.308594 137.914062 313.125 138.953125 312.636719 139.90625 C 312.46875 140.230469 312.269531 140.539062 312.042969 140.820312 C 311.8125 141.109375 311.554688 141.375 311.269531 141.617188 C 310.984375 141.863281 310.671875 142.085938 310.332031 142.285156 C 309.992188 142.484375 309.628906 142.660156 309.246094 142.808594 C 308.476562 143.109375 307.625 143.304688 306.722656 143.394531 C 305.804688 143.484375 304.839844 143.464844 303.84375 143.332031 C 302.847656 143.195312 301.828125 142.945312 300.816406 142.582031 C 299.808594 142.214844 298.8125 141.738281 297.863281 141.144531 C 296.445312 140.257812 295.277344 139.214844 294.386719 138.09375 C 293.511719 137 292.90625 135.84375 292.585938 134.703125 C 292.277344 133.59375 292.238281 132.503906 292.476562 131.5 C 292.707031 130.527344 293.199219 129.632812 293.957031 128.878906 C 294.203125 128.628906 294.476562 128.402344 294.761719 128.199219 C 295.046875 127.996094 295.351562 127.816406 295.671875 127.65625 C 295.988281 127.5 296.320312 127.359375 296.664062 127.242188 C 297.003906 127.128906 297.359375 127.03125 297.722656 126.953125 Z M 297.722656 126.953125 " fill-opacity="1" fill-rule="nonzero"/><path fill="#000000" d="M 275.953125 125.203125 C 276.265625 125.152344 276.582031 125.113281 276.902344 125.085938 C 277.21875 125.0625 277.542969 125.050781 277.871094 125.050781 C 278.195312 125.054688 278.523438 125.066406 278.855469 125.097656 C 279.183594 125.125 279.515625 125.167969 279.851562 125.226562 C 280.894531 125.402344 281.851562 125.710938 282.699219 126.113281 C 283.546875 126.515625 284.289062 127.019531 284.890625 127.589844 C 285.5 128.167969 285.96875 128.820312 286.261719 129.519531 C 286.5625 130.230469 286.679688 130.988281 286.578125 131.765625 C 286.503906 132.308594 286.328125 132.824219 286.0625 133.304688 C 285.792969 133.792969 285.429688 134.246094 284.988281 134.652344 C 284.539062 135.066406 284.007812 135.433594 283.410156 135.746094 C 282.804688 136.0625 282.132812 136.316406 281.410156 136.503906 C 281.074219 136.589844 280.722656 136.660156 280.363281 136.71875 C 280.003906 136.773438 279.636719 136.8125 279.261719 136.832031 C 278.882812 136.851562 278.5 136.855469 278.109375 136.839844 C 277.722656 136.824219 277.328125 136.789062 276.933594 136.734375 C 275.683594 136.558594 274.539062 136.199219 273.546875 135.707031 C 272.558594 135.210938 271.734375 134.585938 271.109375 133.875 C 270.496094 133.175781 270.082031 132.398438 269.902344 131.589844 C 269.726562 130.796875 269.777344 129.976562 270.085938 129.175781 C 270.292969 128.640625 270.597656 128.148438 270.984375 127.707031 C 271.367188 127.269531 271.824219 126.878906 272.34375 126.542969 C 272.855469 126.210938 273.421875 125.929688 274.035156 125.703125 C 274.636719 125.480469 275.28125 125.3125 275.953125 125.203125 Z M 275.953125 125.203125 " fill-opacity="1" fill-rule="nonzero"/><path fill="#000000" d="M 338.769531 153.316406 C 339.066406 153.113281 339.4375 153.015625 339.851562 153.011719 C 340.265625 153.011719 340.726562 153.105469 341.207031 153.285156 C 341.683594 153.464844 342.1875 153.730469 342.683594 154.070312 C 343.183594 154.410156 343.679688 154.832031 344.144531 155.320312 C 344.617188 155.816406 345.015625 156.335938 345.328125 156.855469 C 345.648438 157.378906 345.882812 157.902344 346.023438 158.394531 C 346.164062 158.894531 346.210938 159.359375 346.152344 159.769531 C 346.09375 160.179688 345.929688 160.527344 345.644531 160.777344 C 345.355469 161.03125 344.976562 161.164062 344.535156 161.179688 C 344.097656 161.199219 343.597656 161.105469 343.070312 160.90625 C 342.546875 160.710938 342 160.414062 341.460938 160.03125 C 340.925781 159.644531 340.398438 159.175781 339.917969 158.636719 C 339.441406 158.101562 339.054688 157.546875 338.761719 157.003906 C 338.472656 156.46875 338.277344 155.945312 338.179688 155.464844 C 338.082031 154.988281 338.082031 154.554688 338.179688 154.1875 C 338.277344 153.824219 338.472656 153.523438 338.769531 153.316406 Z M 338.769531 153.316406 " fill-opacity="1" fill-rule="nonzero"/><path fill="#000000" d="M 312.179688 147.539062 C 313.042969 147.148438 314 146.980469 314.988281 147.003906 C 315.96875 147.027344 316.992188 147.238281 318.003906 147.617188 C 319.015625 147.996094 320.027344 148.546875 320.980469 149.246094 C 321.945312 149.953125 322.863281 150.824219 323.671875 151.839844 C 324.5 152.875 325.148438 153.976562 325.605469 155.082031 C 326.078125 156.214844 326.351562 157.355469 326.417969 158.449219 C 326.488281 159.570312 326.34375 160.640625 325.96875 161.582031 C 325.582031 162.546875 324.957031 163.375 324.085938 163.992188 C 323.191406 164.617188 322.128906 164.949219 320.980469 165.011719 C 319.820312 165.074219 318.582031 164.859375 317.351562 164.394531 C 316.117188 163.929688 314.902344 163.21875 313.789062 162.296875 C 312.683594 161.382812 311.6875 160.277344 310.875 159.011719 C 310.078125 157.773438 309.539062 156.507812 309.238281 155.289062 C 308.945312 154.097656 308.882812 152.957031 309.035156 151.925781 C 309.183594 150.917969 309.53125 150.011719 310.070312 149.257812 C 310.597656 148.523438 311.300781 147.933594 312.179688 147.539062 Z M 312.179688 147.539062 " fill-opacity="1" fill-rule="nonzero"/><path fill="#000000" d="M 286.410156 143.425781 C 287.128906 143.195312 287.875 143.042969 288.632812 142.980469 C 289.382812 142.914062 290.144531 142.929688 290.902344 143.027344 C 291.65625 143.125 292.410156 143.308594 293.140625 143.574219 C 293.875 143.839844 294.59375 144.191406 295.28125 144.628906 C 296.320312 145.296875 297.195312 146.113281 297.894531 147.019531 C 298.601562 147.945312 299.132812 148.972656 299.460938 150.050781 C 299.796875 151.152344 299.925781 152.308594 299.820312 153.460938 C 299.710938 154.644531 299.351562 155.828125 298.707031 156.933594 C 298.488281 157.3125 298.242188 157.667969 297.972656 158.003906 C 297.699219 158.34375 297.40625 158.660156 297.089844 158.953125 C 296.769531 159.246094 296.429688 159.515625 296.070312 159.761719 C 295.710938 160.007812 295.332031 160.230469 294.9375 160.425781 C 294.144531 160.8125 293.296875 161.09375 292.414062 161.261719 C 291.523438 161.429688 290.601562 161.476562 289.671875 161.402344 C 288.742188 161.328125 287.808594 161.125 286.902344 160.796875 C 285.996094 160.46875 285.125 160.011719 284.3125 159.425781 C 283.09375 158.550781 282.140625 157.476562 281.457031 156.300781 C 280.785156 155.144531 280.382812 153.898438 280.25 152.640625 C 280.121094 151.417969 280.246094 150.191406 280.628906 149.039062 C 280.996094 147.914062 281.609375 146.863281 282.457031 145.9375 C 282.734375 145.636719 283.03125 145.355469 283.34375 145.097656 C 283.652344 144.84375 283.972656 144.609375 284.308594 144.402344 C 284.640625 144.195312 284.984375 144.007812 285.335938 143.847656 C 285.6875 143.683594 286.046875 143.542969 286.410156 143.425781 Z M 286.410156 143.425781 " fill-opacity="1" fill-rule="nonzero"/><path fill="#000000" d="M 257.933594 123.378906 C 258.183594 123.347656 258.433594 123.324219 258.683594 123.308594 C 258.9375 123.292969 259.1875 123.285156 259.441406 123.289062 C 259.695312 123.292969 259.945312 123.304688 260.199219 123.324219 C 260.449219 123.347656 260.699219 123.378906 260.949219 123.421875 C 261.726562 123.550781 262.417969 123.769531 262.996094 124.054688 C 263.578125 124.339844 264.054688 124.691406 264.410156 125.085938 C 264.761719 125.488281 264.992188 125.933594 265.078125 126.410156 C 265.160156 126.890625 265.09375 127.398438 264.851562 127.914062 C 264.683594 128.269531 264.441406 128.605469 264.140625 128.914062 C 263.835938 129.230469 263.46875 129.519531 263.050781 129.773438 C 262.628906 130.035156 262.15625 130.261719 261.648438 130.449219 C 261.132812 130.640625 260.582031 130.792969 260.011719 130.898438 C 259.742188 130.945312 259.46875 130.988281 259.195312 131.015625 C 258.917969 131.042969 258.636719 131.0625 258.355469 131.070312 C 258.074219 131.074219 257.789062 131.070312 257.503906 131.054688 C 257.222656 131.039062 256.9375 131.007812 256.65625 130.96875 C 255.769531 130.835938 254.988281 130.59375 254.34375 130.265625 C 253.703125 129.9375 253.195312 129.53125 252.851562 129.070312 C 252.507812 128.613281 252.324219 128.109375 252.316406 127.585938 C 252.308594 127.066406 252.472656 126.535156 252.824219 126.011719 C 253.058594 125.65625 253.367188 125.332031 253.726562 125.039062 C 254.082031 124.75 254.492188 124.492188 254.941406 124.269531 C 255.382812 124.046875 255.867188 123.859375 256.371094 123.710938 C 256.871094 123.5625 257.398438 123.449219 257.933594 123.378906 Z M 257.933594 123.378906 " fill-opacity="1" fill-rule="nonzero"/><path fill="#000000" d="M 254.714844 143.34375 C 254.96875 143.277344 255.226562 143.222656 255.484375 143.183594 C 255.742188 143.140625 256 143.109375 256.257812 143.09375 C 256.511719 143.078125 256.769531 143.070312 257.023438 143.082031 C 257.277344 143.089844 257.527344 143.109375 257.777344 143.148438 C 258.511719 143.253906 259.148438 143.472656 259.675781 143.773438 C 260.207031 144.078125 260.628906 144.46875 260.929688 144.921875 C 261.230469 145.378906 261.40625 145.902344 261.441406 146.46875 C 261.476562 147.039062 261.363281 147.652344 261.078125 148.285156 C 260.890625 148.710938 260.640625 149.113281 260.335938 149.496094 C 260.027344 149.878906 259.664062 150.238281 259.261719 150.566406 C 258.855469 150.894531 258.40625 151.191406 257.925781 151.449219 C 257.4375 151.707031 256.925781 151.921875 256.390625 152.089844 C 256.117188 152.179688 255.839844 152.253906 255.558594 152.3125 C 255.277344 152.371094 254.992188 152.417969 254.707031 152.449219 C 254.421875 152.480469 254.132812 152.496094 253.847656 152.496094 C 253.5625 152.492188 253.28125 152.476562 253 152.441406 C 252.171875 152.339844 251.457031 152.097656 250.875 151.75 C 250.296875 151.398438 249.855469 150.945312 249.570312 150.417969 C 249.289062 149.898438 249.160156 149.308594 249.199219 148.6875 C 249.238281 148.070312 249.441406 147.421875 249.820312 146.777344 C 250.066406 146.355469 250.375 145.960938 250.726562 145.597656 C 251.078125 145.234375 251.472656 144.90625 251.902344 144.613281 C 252.324219 144.324219 252.78125 144.070312 253.253906 143.855469 C 253.726562 143.644531 254.21875 143.472656 254.714844 143.34375 Z M 254.714844 143.34375 " fill-opacity="1" fill-rule="nonzero"/><path fill="#000000" d="M 279.34375 177.125 C 279.34375 177.625 279.296875 178.121094 279.199219 178.613281 C 279.101562 179.105469 278.957031 179.582031 278.765625 180.046875 C 278.574219 180.507812 278.339844 180.949219 278.0625 181.367188 C 277.789062 181.78125 277.472656 182.167969 277.121094 182.523438 C 276.765625 182.878906 276.382812 183.195312 275.96875 183.472656 C 275.554688 183.75 275.117188 183.984375 274.65625 184.179688 C 274.195312 184.371094 273.722656 184.515625 273.230469 184.613281 C 272.742188 184.710938 272.25 184.757812 271.75 184.757812 C 271.253906 184.757812 270.757812 184.710938 270.269531 184.613281 C 269.78125 184.515625 269.304688 184.371094 268.84375 184.179688 C 268.382812 183.984375 267.945312 183.75 267.53125 183.472656 C 267.117188 183.195312 266.734375 182.878906 266.382812 182.523438 C 266.027344 182.167969 265.714844 181.78125 265.4375 181.367188 C 265.160156 180.949219 264.925781 180.507812 264.734375 180.046875 C 264.542969 179.582031 264.402344 179.105469 264.304688 178.613281 C 264.207031 178.121094 264.15625 177.625 264.15625 177.125 C 264.15625 176.621094 264.207031 176.125 264.304688 175.632812 C 264.402344 175.140625 264.542969 174.664062 264.734375 174.203125 C 264.925781 173.738281 265.160156 173.296875 265.4375 172.882812 C 265.714844 172.464844 266.027344 172.078125 266.382812 171.722656 C 266.734375 171.371094 267.117188 171.054688 267.53125 170.773438 C 267.945312 170.496094 268.382812 170.261719 268.84375 170.070312 C 269.304688 169.878906 269.78125 169.734375 270.269531 169.636719 C 270.757812 169.539062 271.253906 169.488281 271.75 169.488281 C 272.25 169.488281 272.742188 169.539062 273.230469 169.636719 C 273.722656 169.734375 274.195312 169.878906 274.65625 170.070312 C 275.117188 170.261719 275.554688 170.496094 275.96875 170.773438 C 276.382812 171.054688 276.765625 171.371094 277.121094 171.722656 C 277.472656 172.078125 277.789062 172.464844 278.0625 172.882812 C 278.339844 173.296875 278.574219 173.738281 278.765625 174.203125 C 278.957031 174.664062 279.101562 175.140625 279.199219 175.632812 C 279.296875 176.125 279.34375 176.621094 279.34375 177.125 Z M 279.34375 177.125 " fill-opacity="1" fill-rule="nonzero"/><path fill="#000000" d="M 331.582031 173.582031 C 331.898438 173.390625 332.238281 173.242188 332.597656 173.136719 C 332.957031 173.03125 333.332031 172.972656 333.722656 172.960938 C 334.113281 172.945312 334.511719 172.980469 334.917969 173.058594 C 335.324219 173.136719 335.730469 173.257812 336.136719 173.425781 C 336.539062 173.59375 336.9375 173.800781 337.328125 174.050781 C 337.71875 174.300781 338.09375 174.585938 338.453125 174.910156 C 338.8125 175.234375 339.148438 175.585938 339.464844 175.96875 C 339.78125 176.351562 340.066406 176.757812 340.324219 177.1875 C 340.582031 177.617188 340.808594 178.058594 341 178.515625 C 341.191406 178.976562 341.347656 179.4375 341.464844 179.910156 C 341.582031 180.378906 341.660156 180.84375 341.699219 181.308594 C 341.738281 181.773438 341.738281 182.222656 341.695312 182.664062 C 341.65625 183.101562 341.578125 183.519531 341.457031 183.917969 C 341.339844 184.316406 341.183594 184.6875 340.988281 185.027344 C 340.796875 185.371094 340.570312 185.675781 340.3125 185.949219 C 340.050781 186.222656 339.765625 186.453125 339.449219 186.644531 C 339.132812 186.839844 338.792969 186.988281 338.433594 187.089844 C 338.074219 187.195312 337.699219 187.253906 337.308594 187.269531 C 336.917969 187.28125 336.519531 187.25 336.113281 187.171875 C 335.707031 187.09375 335.300781 186.96875 334.894531 186.804688 C 334.492188 186.636719 334.09375 186.425781 333.703125 186.175781 C 333.3125 185.929688 332.9375 185.640625 332.578125 185.320312 C 332.21875 184.996094 331.882812 184.644531 331.566406 184.261719 C 331.25 183.878906 330.964844 183.472656 330.707031 183.042969 C 330.449219 182.613281 330.222656 182.171875 330.03125 181.710938 C 329.839844 181.253906 329.683594 180.789062 329.566406 180.320312 C 329.449219 179.851562 329.371094 179.382812 329.332031 178.921875 C 329.292969 178.457031 329.292969 178.003906 329.335938 177.566406 C 329.375 177.128906 329.453125 176.707031 329.574219 176.308594 C 329.691406 175.914062 329.847656 175.542969 330.042969 175.199219 C 330.234375 174.859375 330.460938 174.550781 330.71875 174.28125 C 330.980469 174.007812 331.265625 173.773438 331.582031 173.582031 Z M 331.582031 173.582031 " fill-opacity="1" fill-rule="nonzero"/><path fill="#000000" d="M 313.40625 188.226562 C 313.421875 188.734375 313.402344 189.238281 313.335938 189.738281 C 313.273438 190.242188 313.167969 190.730469 313.023438 191.203125 C 312.878906 191.679688 312.699219 192.132812 312.476562 192.566406 C 312.257812 192.996094 312.003906 193.398438 311.71875 193.765625 C 311.433594 194.136719 311.117188 194.46875 310.777344 194.765625 C 310.433594 195.0625 310.070312 195.3125 309.6875 195.523438 C 309.300781 195.730469 308.902344 195.894531 308.492188 196.007812 C 308.078125 196.125 307.660156 196.191406 307.234375 196.207031 C 306.8125 196.222656 306.390625 196.1875 305.96875 196.105469 C 305.550781 196.023438 305.140625 195.890625 304.742188 195.710938 C 304.34375 195.53125 303.960938 195.308594 303.597656 195.039062 C 303.234375 194.769531 302.894531 194.460938 302.582031 194.113281 C 302.269531 193.765625 301.988281 193.386719 301.734375 192.972656 C 301.484375 192.5625 301.269531 192.121094 301.089844 191.660156 C 300.90625 191.195312 300.765625 190.71875 300.664062 190.222656 C 300.5625 189.726562 300.503906 189.226562 300.484375 188.71875 C 300.464844 188.210938 300.488281 187.707031 300.550781 187.207031 C 300.617188 186.703125 300.71875 186.214844 300.863281 185.742188 C 301.007812 185.265625 301.191406 184.8125 301.410156 184.382812 C 301.632812 183.949219 301.882812 183.550781 302.171875 183.179688 C 302.457031 182.808594 302.769531 182.476562 303.113281 182.179688 C 303.457031 181.882812 303.820312 181.632812 304.203125 181.421875 C 304.589844 181.214844 304.988281 181.050781 305.398438 180.9375 C 305.8125 180.820312 306.230469 180.757812 306.652344 180.738281 C 307.078125 180.722656 307.5 180.757812 307.917969 180.839844 C 308.339844 180.925781 308.75 181.054688 309.148438 181.234375 C 309.546875 181.414062 309.929688 181.636719 310.292969 181.90625 C 310.65625 182.175781 310.992188 182.484375 311.304688 182.832031 C 311.621094 183.179688 311.902344 183.558594 312.152344 183.972656 C 312.40625 184.386719 312.621094 184.824219 312.800781 185.285156 C 312.980469 185.75 313.121094 186.226562 313.222656 186.722656 C 313.324219 187.21875 313.386719 187.71875 313.40625 188.226562 Z M 313.40625 188.226562 " fill-opacity="1" fill-rule="nonzero"/></svg>