<svg xmlns="http://www.w3.org/2000/svg" data-name="Layer 1" viewBox="0 0 512 640" x="0px" y="0px"><title>Pattern dot outline</title><g><circle cx="36" cy="36" r="3"/><circle cx="56" cy="36" r="3"/><circle cx="76" cy="36" r="3"/><circle cx="96" cy="36" r="3"/><circle cx="116" cy="36" r="3"/><circle cx="136" cy="36" r="3"/><circle cx="156" cy="36" r="3"/><circle cx="176" cy="36" r="3"/><circle cx="196" cy="36" r="3"/><circle cx="216" cy="36" r="3"/><circle cx="236" cy="36" r="3"/><circle cx="256" cy="36" r="3"/><circle cx="276" cy="36" r="3"/><circle cx="296" cy="36" r="3"/><circle cx="316" cy="36" r="3"/><circle cx="336" cy="36" r="3"/><circle cx="356" cy="36" r="3"/><circle cx="376" cy="36" r="3"/><circle cx="396" cy="36" r="3"/><circle cx="416" cy="36" r="3"/><circle cx="436" cy="36" r="3"/><circle cx="456" cy="36" r="3"/><circle cx="476" cy="36" r="3"/><circle cx="36" cy="58" r="3"/><circle cx="56" cy="58" r="3"/><circle cx="76" cy="58" r="3"/><circle cx="96" cy="58" r="3"/><circle cx="116" cy="58" r="3"/><circle cx="136" cy="58" r="3"/><circle cx="156" cy="58" r="3"/><circle cx="176" cy="58" r="3"/><circle cx="196" cy="58" r="3"/><circle cx="216" cy="58" r="3"/><circle cx="236" cy="58" r="3"/><circle cx="256" cy="58" r="3"/><circle cx="276" cy="58" r="3"/><circle cx="296" cy="58" r="3"/><circle cx="316" cy="58" r="3"/><circle cx="336" cy="58" r="3"/><circle cx="356" cy="58" r="3"/><circle cx="376" cy="58" r="3"/><circle cx="396" cy="58" r="3"/><circle cx="416" cy="58" r="3"/><circle cx="436" cy="58" r="3"/><circle cx="456" cy="58" r="3"/><circle cx="476" cy="58" r="3"/><circle cx="36" cy="80" r="3"/><circle cx="56" cy="80" r="3"/><circle cx="76" cy="80" r="3"/><circle cx="96" cy="80" r="3"/><circle cx="116" cy="80" r="3"/><circle cx="136" cy="80" r="3"/><circle cx="156" cy="80" r="3"/><circle cx="176" cy="80" r="3"/><circle cx="196" cy="80" r="3"/><circle cx="216" cy="80" r="3"/><circle cx="236" cy="80" r="3"/><circle cx="256" cy="80" r="3"/><circle cx="276" cy="80" r="3"/><circle cx="296" cy="80" r="3"/><circle cx="316" cy="80" r="3"/><circle cx="336" cy="80" r="3"/><circle cx="356" cy="80" r="3"/><circle cx="376" cy="80" r="3"/><circle cx="396" cy="80" r="3"/><circle cx="416" cy="80" r="3"/><circle cx="436" cy="80" r="3"/><circle cx="456" cy="80" r="3"/><circle cx="476" cy="80" r="3"/><circle cx="36" cy="102" r="3"/><circle cx="56" cy="102" r="3"/><circle cx="76" cy="102" r="3"/><circle cx="96" cy="102" r="3"/><circle cx="116" cy="102" r="3"/><circle cx="136" cy="102" r="3"/><circle cx="156" cy="102" r="3"/><circle cx="176" cy="102" r="3"/><circle cx="196" cy="102" r="3"/><circle cx="216" cy="102" r="3"/><circle cx="236" cy="102" r="3"/><circle cx="256" cy="102" r="3"/><circle cx="276" cy="102" r="3"/><circle cx="296" cy="102" r="3"/><circle cx="316" cy="102" r="3"/><circle cx="336" cy="102" r="3"/><circle cx="356" cy="102" r="3"/><circle cx="376" cy="102" r="3"/><circle cx="396" cy="102" r="3"/><circle cx="416" cy="102" r="3"/><circle cx="436" cy="102" r="3"/><circle cx="456" cy="102" r="3"/><circle cx="476" cy="102" r="3"/><circle cx="36" cy="124" r="3"/><circle cx="56" cy="124" r="3"/><circle cx="76" cy="124" r="3"/><circle cx="96" cy="124" r="3"/><circle cx="116" cy="124" r="3"/><circle cx="136" cy="124" r="3"/><circle cx="156" cy="124" r="3"/><circle cx="176" cy="124" r="3"/><circle cx="196" cy="124" r="3"/><circle cx="216" cy="124" r="3"/><circle cx="236" cy="124" r="3"/><circle cx="256" cy="124" r="3"/><circle cx="276" cy="124" r="3"/><circle cx="296" cy="124" r="3"/><circle cx="316" cy="124" r="3"/><circle cx="336" cy="124" r="3"/><circle cx="356" cy="124" r="3"/><circle cx="376" cy="124" r="3"/><circle cx="396" cy="124" r="3"/><circle cx="416" cy="124" r="3"/><circle cx="436" cy="124" r="3"/><circle cx="456" cy="124" r="3"/><circle cx="476" cy="124" r="3"/><circle cx="36" cy="146" r="3"/><circle cx="56" cy="146" r="3"/><circle cx="76" cy="146" r="3"/><circle cx="96" cy="146" r="3"/><circle cx="116" cy="146" r="3"/><circle cx="136" cy="146" r="3"/><circle cx="156" cy="146" r="3"/><circle cx="176" cy="146" r="3"/><circle cx="196" cy="146" r="3"/><circle cx="216" cy="146" r="3"/><circle cx="236" cy="146" r="3"/><circle cx="256" cy="146" r="3"/><circle cx="276" cy="146" r="3"/><circle cx="296" cy="146" r="3"/><circle cx="316" cy="146" r="3"/><circle cx="336" cy="146" r="3"/><circle cx="356" cy="146" r="3"/><circle cx="376" cy="146" r="3"/><circle cx="396" cy="146" r="3"/><circle cx="416" cy="146" r="3"/><circle cx="436" cy="146" r="3"/><circle cx="456" cy="146" r="3"/><circle cx="476" cy="146" r="3"/><circle cx="36" cy="168" r="3"/><circle cx="56" cy="168" r="3"/><circle cx="76" cy="168" r="3"/><circle cx="96" cy="168" r="3"/><circle cx="116" cy="168" r="3"/><circle cx="136" cy="168" r="3"/><circle cx="156" cy="168" r="3"/><circle cx="176" cy="168" r="3"/><circle cx="196" cy="168" r="3"/><circle cx="216" cy="168" r="3"/><circle cx="236" cy="168" r="3"/><circle cx="256" cy="168" r="3"/><circle cx="276" cy="168" r="3"/><circle cx="296" cy="168" r="3"/><circle cx="316" cy="168" r="3"/><circle cx="336" cy="168" r="3"/><circle cx="356" cy="168" r="3"/><circle cx="376" cy="168" r="3"/><circle cx="396" cy="168" r="3"/><circle cx="416" cy="168" r="3"/><circle cx="436" cy="168" r="3"/><circle cx="456" cy="168" r="3"/><circle cx="476" cy="168" r="3"/><circle cx="36" cy="190" r="3"/><circle cx="56" cy="190" r="3"/><circle cx="76" cy="190" r="3"/><circle cx="96" cy="190" r="3"/><circle cx="116" cy="190" r="3"/><circle cx="136" cy="190" r="3"/><circle cx="156" cy="190" r="3"/><circle cx="176" cy="190" r="3"/><circle cx="196" cy="190" r="3"/><circle cx="216" cy="190" r="3"/><circle cx="236" cy="190" r="3"/><circle cx="256" cy="190" r="3"/><circle cx="276" cy="190" r="3"/><circle cx="296" cy="190" r="3"/><circle cx="316" cy="190" r="3"/><circle cx="336" cy="190" r="3"/><circle cx="356" cy="190" r="3"/><circle cx="376" cy="190" r="3"/><circle cx="396" cy="190" r="3"/><circle cx="416" cy="190" r="3"/><circle cx="436" cy="190" r="3"/><circle cx="456" cy="190" r="3"/><circle cx="476" cy="190" r="3"/><circle cx="36" cy="212" r="3"/><circle cx="56" cy="212" r="3"/><circle cx="76" cy="212" r="3"/><circle cx="96" cy="212" r="3"/><circle cx="116" cy="212" r="3"/><circle cx="136" cy="212" r="3"/><circle cx="156" cy="212" r="3"/><circle cx="176" cy="212" r="3"/><circle cx="196" cy="212" r="3"/><circle cx="216" cy="212" r="3"/><circle cx="236" cy="212" r="3"/><circle cx="256" cy="212" r="3"/><circle cx="276" cy="212" r="3"/><circle cx="296" cy="212" r="3"/><circle cx="316" cy="212" r="3"/><circle cx="336" cy="212" r="3"/><circle cx="356" cy="212" r="3"/><circle cx="376" cy="212" r="3"/><circle cx="396" cy="212" r="3"/><circle cx="416" cy="212" r="3"/><circle cx="436" cy="212" r="3"/><circle cx="456" cy="212" r="3"/><circle cx="476" cy="212" r="3"/><circle cx="36" cy="234" r="3"/><circle cx="56" cy="234" r="3"/><circle cx="76" cy="234" r="3"/><circle cx="96" cy="234" r="3"/><circle cx="116" cy="234" r="3"/><circle cx="136" cy="234" r="3"/><circle cx="156" cy="234" r="3"/><circle cx="176" cy="234" r="3"/><circle cx="196" cy="234" r="3"/><circle cx="216" cy="234" r="3"/><circle cx="236" cy="234" r="3"/><circle cx="256" cy="234" r="3"/><circle cx="276" cy="234" r="3"/><circle cx="296" cy="234" r="3"/><circle cx="316" cy="234" r="3"/><circle cx="336" cy="234" r="3"/><circle cx="356" cy="234" r="3"/><circle cx="376" cy="234" r="3"/><circle cx="396" cy="234" r="3"/><circle cx="416" cy="234" r="3"/><circle cx="436" cy="234" r="3"/><circle cx="456" cy="234" r="3"/><circle cx="476" cy="234" r="3"/><circle cx="36" cy="256" r="3"/><circle cx="56" cy="256" r="3"/><circle cx="76" cy="256" r="3"/><circle cx="96" cy="256" r="3"/><circle cx="116" cy="256" r="3"/><circle cx="136" cy="256" r="3"/><circle cx="156" cy="256" r="3"/><circle cx="176" cy="256" r="3"/><circle cx="196" cy="256" r="3"/><circle cx="216" cy="256" r="3"/><circle cx="236" cy="256" r="3"/><circle cx="256" cy="256" r="3"/><circle cx="276" cy="256" r="3"/><circle cx="296" cy="256" r="3"/><circle cx="316" cy="256" r="3"/><circle cx="336" cy="256" r="3"/><circle cx="356" cy="256" r="3"/><circle cx="376" cy="256" r="3"/><circle cx="396" cy="256" r="3"/><circle cx="416" cy="256" r="3"/><circle cx="436" cy="256" r="3"/><circle cx="456" cy="256" r="3"/><circle cx="476" cy="256" r="3"/><circle cx="36" cy="278" r="3"/><circle cx="56" cy="278" r="3"/><circle cx="76" cy="278" r="3"/><circle cx="96" cy="278" r="3"/><circle cx="116" cy="278" r="3"/><circle cx="136" cy="278" r="3"/><circle cx="156" cy="278" r="3"/><circle cx="176" cy="278" r="3"/><circle cx="196" cy="278" r="3"/><circle cx="216" cy="278" r="3"/><circle cx="236" cy="278" r="3"/><circle cx="256" cy="278" r="3"/><circle cx="276" cy="278" r="3"/><circle cx="296" cy="278" r="3"/><circle cx="316" cy="278" r="3"/><circle cx="336" cy="278" r="3"/><circle cx="356" cy="278" r="3"/><circle cx="376" cy="278" r="3"/><circle cx="396" cy="278" r="3"/><circle cx="416" cy="278" r="3"/><circle cx="436" cy="278" r="3"/><circle cx="456" cy="278" r="3"/><circle cx="476" cy="278" r="3"/><circle cx="36" cy="300" r="3"/><circle cx="56" cy="300" r="3"/><circle cx="76" cy="300" r="3"/><circle cx="96" cy="300" r="3"/><circle cx="116" cy="300" r="3"/><circle cx="136" cy="300" r="3"/><circle cx="156" cy="300" r="3"/><circle cx="176" cy="300" r="3"/><circle cx="196" cy="300" r="3"/><circle cx="216" cy="300" r="3"/><circle cx="236" cy="300" r="3"/><circle cx="256" cy="300" r="3"/><circle cx="276" cy="300" r="3"/><circle cx="296" cy="300" r="3"/><circle cx="316" cy="300" r="3"/><circle cx="336" cy="300" r="3"/><circle cx="356" cy="300" r="3"/><circle cx="376" cy="300" r="3"/><circle cx="396" cy="300" r="3"/><circle cx="416" cy="300" r="3"/><circle cx="436" cy="300" r="3"/><circle cx="456" cy="300" r="3"/><circle cx="476" cy="300" r="3"/><circle cx="36" cy="322" r="3"/><circle cx="56" cy="322" r="3"/><circle cx="76" cy="322" r="3"/><circle cx="96" cy="322" r="3"/><circle cx="116" cy="322" r="3"/><circle cx="136" cy="322" r="3"/><circle cx="156" cy="322" r="3"/><circle cx="176" cy="322" r="3"/><circle cx="196" cy="322" r="3"/><circle cx="216" cy="322" r="3"/><circle cx="236" cy="322" r="3"/><circle cx="256" cy="322" r="3"/><circle cx="276" cy="322" r="3"/><circle cx="296" cy="322" r="3"/><circle cx="316" cy="322" r="3"/><circle cx="336" cy="322" r="3"/><circle cx="356" cy="322" r="3"/><circle cx="376" cy="322" r="3"/><circle cx="396" cy="322" r="3"/><circle cx="416" cy="322" r="3"/><circle cx="436" cy="322" r="3"/><circle cx="456" cy="322" r="3"/><circle cx="476" cy="322" r="3"/><circle cx="36" cy="344" r="3"/><circle cx="56" cy="344" r="3"/><circle cx="76" cy="344" r="3"/><circle cx="96" cy="344" r="3"/><circle cx="116" cy="344" r="3"/><circle cx="136" cy="344" r="3"/><circle cx="156" cy="344" r="3"/><circle cx="176" cy="344" r="3"/><circle cx="196" cy="344" r="3"/><circle cx="216" cy="344" r="3"/><circle cx="236" cy="344" r="3"/><circle cx="256" cy="344" r="3"/><circle cx="276" cy="344" r="3"/><circle cx="296" cy="344" r="3"/><circle cx="316" cy="344" r="3"/><circle cx="336" cy="344" r="3"/><circle cx="356" cy="344" r="3"/><circle cx="376" cy="344" r="3"/><circle cx="396" cy="344" r="3"/><circle cx="416" cy="344" r="3"/><circle cx="436" cy="344" r="3"/><circle cx="456" cy="344" r="3"/><circle cx="476" cy="344" r="3"/><circle cx="36" cy="366" r="3"/><circle cx="56" cy="366" r="3"/><circle cx="76" cy="366" r="3"/><circle cx="96" cy="366" r="3"/><circle cx="116" cy="366" r="3"/><circle cx="136" cy="366" r="3"/><circle cx="156" cy="366" r="3"/><circle cx="176" cy="366" r="3"/><circle cx="196" cy="366" r="3"/><circle cx="216" cy="366" r="3"/><circle cx="236" cy="366" r="3"/><circle cx="256" cy="366" r="3"/><circle cx="276" cy="366" r="3"/><circle cx="296" cy="366" r="3"/><circle cx="316" cy="366" r="3"/><circle cx="336" cy="366" r="3"/><circle cx="356" cy="366" r="3"/><circle cx="376" cy="366" r="3"/><circle cx="396" cy="366" r="3"/><circle cx="416" cy="366" r="3"/><circle cx="436" cy="366" r="3"/><circle cx="456" cy="366" r="3"/><circle cx="476" cy="366" r="3"/><circle cx="36" cy="388" r="3"/><circle cx="56" cy="388" r="3"/><circle cx="76" cy="388" r="3"/><circle cx="96" cy="388" r="3"/><circle cx="116" cy="388" r="3"/><circle cx="136" cy="388" r="3"/><circle cx="156" cy="388" r="3"/><circle cx="176" cy="388" r="3"/><circle cx="196" cy="388" r="3"/><circle cx="216" cy="388" r="3"/><circle cx="236" cy="388" r="3"/><circle cx="256" cy="388" r="3"/><circle cx="276" cy="388" r="3"/><circle cx="296" cy="388" r="3"/><circle cx="316" cy="388" r="3"/><circle cx="336" cy="388" r="3"/><circle cx="356" cy="388" r="3"/><circle cx="376" cy="388" r="3"/><circle cx="396" cy="388" r="3"/><circle cx="416" cy="388" r="3"/><circle cx="436" cy="388" r="3"/><circle cx="456" cy="388" r="3"/><circle cx="476" cy="388" r="3"/><circle cx="36" cy="410" r="3"/><circle cx="56" cy="410" r="3"/><circle cx="76" cy="410" r="3"/><circle cx="96" cy="410" r="3"/><circle cx="116" cy="410" r="3"/><circle cx="136" cy="410" r="3"/><circle cx="156" cy="410" r="3"/><circle cx="176" cy="410" r="3"/><circle cx="196" cy="410" r="3"/><circle cx="216" cy="410" r="3"/><circle cx="236" cy="410" r="3"/><circle cx="256" cy="410" r="3"/><circle cx="276" cy="410" r="3"/><circle cx="296" cy="410" r="3"/><circle cx="316" cy="410" r="3"/><circle cx="336" cy="410" r="3"/><circle cx="356" cy="410" r="3"/><circle cx="376" cy="410" r="3"/><circle cx="396" cy="410" r="3"/><circle cx="416" cy="410" r="3"/><circle cx="436" cy="410" r="3"/><circle cx="456" cy="410" r="3"/><circle cx="476" cy="410" r="3"/><circle cx="36" cy="432" r="3"/><circle cx="56" cy="432" r="3"/><circle cx="76" cy="432" r="3"/><circle cx="96" cy="432" r="3"/><circle cx="116" cy="432" r="3"/><circle cx="136" cy="432" r="3"/><circle cx="156" cy="432" r="3"/><circle cx="176" cy="432" r="3"/><circle cx="196" cy="432" r="3"/><circle cx="216" cy="432" r="3"/><circle cx="236" cy="432" r="3"/><circle cx="256" cy="432" r="3"/><circle cx="276" cy="432" r="3"/><circle cx="296" cy="432" r="3"/><circle cx="316" cy="432" r="3"/><circle cx="336" cy="432" r="3"/><circle cx="356" cy="432" r="3"/><circle cx="376" cy="432" r="3"/><circle cx="396" cy="432" r="3"/><circle cx="416" cy="432" r="3"/><circle cx="436" cy="432" r="3"/><circle cx="456" cy="432" r="3"/><circle cx="476" cy="432" r="3"/><circle cx="36" cy="454" r="3"/><circle cx="56" cy="454" r="3"/><circle cx="76" cy="454" r="3"/><circle cx="96" cy="454" r="3"/><circle cx="116" cy="454" r="3"/><circle cx="136" cy="454" r="3"/><circle cx="156" cy="454" r="3"/><circle cx="176" cy="454" r="3"/><circle cx="196" cy="454" r="3"/><circle cx="216" cy="454" r="3"/><circle cx="236" cy="454" r="3"/><circle cx="256" cy="454" r="3"/><circle cx="276" cy="454" r="3"/><circle cx="296" cy="454" r="3"/><circle cx="316" cy="454" r="3"/><circle cx="336" cy="454" r="3"/><circle cx="356" cy="454" r="3"/><circle cx="376" cy="454" r="3"/><circle cx="396" cy="454" r="3"/><circle cx="416" cy="454" r="3"/><circle cx="436" cy="454" r="3"/><circle cx="456" cy="454" r="3"/><circle cx="476" cy="454" r="3"/><circle cx="36" cy="476" r="3"/><circle cx="56" cy="476" r="3"/><circle cx="76" cy="476" r="3"/><circle cx="96" cy="476" r="3"/><circle cx="116" cy="476" r="3"/><circle cx="136" cy="476" r="3"/><circle cx="156" cy="476" r="3"/><circle cx="176" cy="476" r="3"/><circle cx="196" cy="476" r="3"/><circle cx="216" cy="476" r="3"/><circle cx="236" cy="476" r="3"/><circle cx="256" cy="476" r="3"/><circle cx="276" cy="476" r="3"/><circle cx="296" cy="476" r="3"/><circle cx="316" cy="476" r="3"/><circle cx="336" cy="476" r="3"/><circle cx="356" cy="476" r="3"/><circle cx="376" cy="476" r="3"/><circle cx="396" cy="476" r="3"/><circle cx="416" cy="476" r="3"/><circle cx="436" cy="476" r="3"/><circle cx="456" cy="476" r="3"/><circle cx="476" cy="476" r="3"/></g><text x="0" y="527" fill="#000000" font-size="5px" font-weight="bold" font-family="'Helvetica Neue', Helvetica, Arial-Unicode, Arial, Sans-serif">Created by Palukx</text><text x="0" y="532" fill="#000000" font-size="5px" font-weight="bold" font-family="'Helvetica Neue', Helvetica, Arial-Unicode, Arial, Sans-serif">from the Noun Project</text></svg>