<svg xmlns="http://www.w3.org/2000/svg" xmlns:xlink="http://www.w3.org/1999/xlink" width="794" zoomAndPan="magnify" viewBox="0 0 595.5 842.249979" height="1123" preserveAspectRatio="xMidYMid meet" version="1.0"><defs><clipPath id="70bdc67f5a"><path d="M 0.015625 0 L 594.984375 0 L 594.984375 841.5 L 0.015625 841.5 Z M 0.015625 0 " clip-rule="nonzero"/></clipPath></defs><g clip-path="url(#70bdc67f5a)"><path fill="#ffffff" d="M 0.015625 0 L 594.984375 0 L 594.984375 841.5 L 0.015625 841.5 Z M 0.015625 0 " fill-opacity="1" fill-rule="nonzero"/><path fill="#ffffff" d="M 0.015625 0 L 594.984375 0 L 594.984375 841.5 L 0.015625 841.5 Z M 0.015625 0 " fill-opacity="1" fill-rule="nonzero"/></g><path fill="#000000" d="M 361.667969 263.910156 C 362.519531 263.804688 363.453125 263.78125 364.445312 263.847656 C 365.433594 263.914062 366.480469 264.0625 367.558594 264.296875 C 368.636719 264.535156 369.75 264.851562 370.875 265.253906 C 372 265.65625 373.136719 266.140625 374.261719 266.707031 C 375.957031 267.566406 377.472656 268.53125 378.761719 269.550781 C 380.058594 270.574219 381.132812 271.652344 381.933594 272.722656 C 382.738281 273.800781 383.269531 274.878906 383.476562 275.882812 C 383.679688 276.898438 383.554688 277.847656 383.039062 278.65625 C 382.863281 278.929688 382.652344 279.179688 382.402344 279.402344 C 382.152344 279.628906 381.871094 279.828125 381.550781 280.007812 C 381.234375 280.183594 380.882812 280.335938 380.503906 280.460938 C 380.125 280.589844 379.714844 280.691406 379.277344 280.769531 C 378.414062 280.921875 377.449219 280.980469 376.414062 280.9375 C 375.375 280.894531 374.265625 280.753906 373.109375 280.515625 C 371.953125 280.273438 370.753906 279.9375 369.542969 279.503906 C 368.332031 279.070312 367.113281 278.542969 365.910156 277.921875 C 364.105469 276.984375 362.515625 275.933594 361.195312 274.832031 C 359.882812 273.734375 358.839844 272.597656 358.105469 271.480469 C 357.375 270.375 356.953125 269.296875 356.871094 268.308594 C 356.792969 267.328125 357.054688 266.4375 357.6875 265.699219 C 357.902344 265.457031 358.148438 265.234375 358.425781 265.039062 C 358.703125 264.839844 359.011719 264.667969 359.347656 264.519531 C 359.683594 264.371094 360.046875 264.246094 360.4375 264.148438 C 360.824219 264.046875 361.234375 263.96875 361.667969 263.910156 Z M 361.667969 263.910156 " fill-opacity="1" fill-rule="nonzero"/><path fill="#000000" d="M 414.007812 300.664062 C 414.3125 300.585938 414.640625 300.53125 414.992188 300.496094 C 415.339844 300.460938 415.707031 300.445312 416.097656 300.453125 C 416.488281 300.460938 416.894531 300.492188 417.324219 300.546875 C 417.75 300.601562 418.195312 300.675781 418.660156 300.777344 C 420.027344 301.074219 421.421875 301.558594 422.773438 302.171875 C 424.128906 302.789062 425.445312 303.542969 426.652344 304.386719 C 427.863281 305.230469 428.972656 306.171875 429.902344 307.152344 C 430.839844 308.136719 431.597656 309.171875 432.105469 310.199219 C 432.445312 310.886719 432.652344 311.527344 432.734375 312.113281 C 432.820312 312.707031 432.777344 313.242188 432.621094 313.71875 C 432.460938 314.195312 432.1875 314.609375 431.804688 314.949219 C 431.421875 315.289062 430.929688 315.558594 430.339844 315.742188 C 430.035156 315.835938 429.707031 315.910156 429.351562 315.960938 C 428.996094 316.007812 428.617188 316.035156 428.214844 316.035156 C 427.8125 316.039062 427.386719 316.015625 426.9375 315.964844 C 426.492188 315.917969 426.023438 315.84375 425.53125 315.738281 C 424.085938 315.4375 422.605469 314.925781 421.171875 314.265625 C 419.738281 313.601562 418.355469 312.789062 417.101562 311.882812 C 415.847656 310.980469 414.726562 309.988281 413.808594 308.957031 C 412.894531 307.9375 412.183594 306.882812 411.746094 305.847656 C 411.460938 305.167969 411.308594 304.542969 411.28125 303.972656 C 411.253906 303.410156 411.351562 302.902344 411.558594 302.460938 C 411.765625 302.023438 412.078125 301.648438 412.492188 301.347656 C 412.902344 301.046875 413.414062 300.816406 414.007812 300.664062 Z M 414.007812 300.664062 " fill-opacity="1" fill-rule="nonzero"/><path fill="#000000" d="M 450.363281 346.832031 C 450.765625 346.660156 451.203125 346.515625 451.675781 346.410156 C 452.144531 346.300781 452.648438 346.226562 453.183594 346.1875 C 453.714844 346.148438 454.28125 346.144531 454.875 346.179688 C 455.472656 346.214844 456.097656 346.285156 456.753906 346.394531 C 458.8125 346.738281 460.976562 347.433594 463.128906 348.398438 C 465.289062 349.367188 467.453125 350.609375 469.503906 352.046875 C 471.566406 353.492188 473.523438 355.144531 475.253906 356.917969 C 477.003906 358.707031 478.527344 360.628906 479.703125 362.601562 C 480.511719 363.960938 481.105469 365.257812 481.488281 366.464844 C 481.871094 367.6875 482.042969 368.820312 482.007812 369.84375 C 481.972656 370.875 481.730469 371.792969 481.289062 372.578125 C 480.84375 373.363281 480.195312 374.011719 479.355469 374.496094 C 478.964844 374.722656 478.53125 374.914062 478.054688 375.066406 C 477.578125 375.214844 477.0625 375.328125 476.507812 375.402344 C 475.949219 375.472656 475.355469 375.503906 474.71875 375.492188 C 474.085938 375.476562 473.410156 375.417969 472.703125 375.316406 C 470.464844 374.988281 468.085938 374.230469 465.710938 373.144531 C 463.339844 372.058594 460.980469 370.652344 458.773438 369.027344 C 456.582031 367.410156 454.550781 365.585938 452.8125 363.652344 C 451.089844 361.738281 449.65625 359.726562 448.640625 357.710938 C 447.953125 356.355469 447.5 355.082031 447.261719 353.917969 C 447.027344 352.761719 447.003906 351.714844 447.175781 350.785156 C 447.347656 349.863281 447.710938 349.0625 448.25 348.398438 C 448.785156 347.738281 449.496094 347.210938 450.363281 346.832031 Z M 450.363281 346.832031 " fill-opacity="1" fill-rule="nonzero"/><path fill="#000000" d="M 307.609375 244.632812 C 307.972656 244.609375 308.351562 244.597656 308.742188 244.605469 C 309.136719 244.613281 309.539062 244.632812 309.957031 244.671875 C 310.371094 244.710938 310.796875 244.769531 311.234375 244.839844 C 311.667969 244.914062 312.113281 245.003906 312.566406 245.109375 C 313.902344 245.429688 315.175781 245.871094 316.347656 246.398438 C 317.515625 246.929688 318.582031 247.546875 319.492188 248.214844 C 320.402344 248.882812 321.160156 249.605469 321.703125 250.339844 C 322.25 251.078125 322.585938 251.832031 322.652344 252.5625 C 322.699219 253.046875 322.617188 253.488281 322.433594 253.886719 C 322.246094 254.285156 321.949219 254.636719 321.558594 254.9375 C 321.164062 255.238281 320.675781 255.488281 320.109375 255.679688 C 319.535156 255.875 318.882812 256.007812 318.164062 256.078125 C 317.792969 256.113281 317.40625 256.132812 317 256.136719 C 316.597656 256.136719 316.179688 256.121094 315.746094 256.085938 C 315.316406 256.054688 314.871094 256 314.414062 255.929688 C 313.957031 255.855469 313.488281 255.765625 313.011719 255.65625 C 311.601562 255.328125 310.25 254.863281 309.019531 254.300781 C 307.789062 253.738281 306.683594 253.078125 305.753906 252.371094 C 304.828125 251.664062 304.082031 250.90625 303.566406 250.144531 C 303.058594 249.386719 302.78125 248.621094 302.785156 247.894531 C 302.792969 247.421875 302.917969 246.988281 303.152344 246.609375 C 303.382812 246.230469 303.71875 245.898438 304.144531 245.625 C 304.566406 245.347656 305.078125 245.125 305.664062 244.960938 C 306.246094 244.792969 306.898438 244.683594 307.609375 244.632812 Z M 307.609375 244.632812 " fill-opacity="1" fill-rule="nonzero"/><path fill="#000000" d="M 246.242188 239.679688 C 248.171875 239.578125 250.160156 239.703125 252.101562 240.015625 C 254.039062 240.328125 255.945312 240.828125 257.714844 241.476562 C 259.484375 242.121094 261.128906 242.921875 262.546875 243.835938 C 263.96875 244.757812 265.167969 245.796875 266.042969 246.921875 C 266.925781 248.058594 267.390625 249.175781 267.480469 250.230469 C 267.566406 251.292969 267.269531 252.292969 266.613281 253.171875 C 265.953125 254.058594 264.929688 254.828125 263.574219 255.417969 C 262.210938 256.015625 260.511719 256.433594 258.519531 256.609375 C 256.507812 256.785156 254.398438 256.699219 252.308594 256.394531 C 250.210938 256.089844 248.140625 255.566406 246.222656 254.859375 C 244.304688 254.15625 242.539062 253.277344 241.054688 252.269531 C 239.570312 251.265625 238.367188 250.136719 237.554688 248.925781 C 236.746094 247.726562 236.40625 246.5625 236.472656 245.492188 C 236.535156 244.429688 237 243.460938 237.8125 242.628906 C 238.617188 241.804688 239.757812 241.117188 241.1875 240.609375 C 242.601562 240.109375 244.304688 239.78125 246.242188 239.679688 Z M 246.242188 239.679688 " fill-opacity="1" fill-rule="nonzero"/><path fill="#000000" d="M 339.234375 280.246094 C 340.761719 280.003906 342.414062 279.917969 344.144531 279.988281 C 345.867188 280.058594 347.675781 280.28125 349.523438 280.65625 C 351.367188 281.03125 353.253906 281.558594 355.148438 282.238281 C 357.046875 282.914062 358.953125 283.746094 360.828125 284.734375 C 363.667969 286.222656 366.183594 287.929688 368.3125 289.753906 C 370.464844 291.59375 372.234375 293.5625 373.539062 295.542969 C 374.863281 297.554688 375.714844 299.589844 376.003906 301.53125 C 376.296875 303.503906 376.011719 305.382812 375.046875 307.035156 C 374.71875 307.597656 374.324219 308.113281 373.867188 308.585938 C 373.40625 309.0625 372.886719 309.492188 372.304688 309.878906 C 371.722656 310.265625 371.082031 310.605469 370.394531 310.898438 C 369.699219 311.191406 368.953125 311.441406 368.164062 311.640625 C 366.589844 312.035156 364.839844 312.242188 362.960938 312.253906 C 361.074219 312.269531 359.066406 312.085938 356.988281 311.707031 C 354.902344 311.328125 352.753906 310.75 350.597656 309.976562 C 348.441406 309.203125 346.28125 308.234375 344.175781 307.074219 C 341.023438 305.339844 338.304688 303.351562 336.101562 301.25 C 333.921875 299.171875 332.253906 296.996094 331.164062 294.855469 C 330.085938 292.75 329.570312 290.683594 329.664062 288.789062 C 329.753906 286.921875 330.4375 285.222656 331.753906 283.796875 C 332.191406 283.324219 332.683594 282.894531 333.226562 282.511719 C 333.769531 282.128906 334.359375 281.789062 334.992188 281.496094 C 335.621094 281.203125 336.296875 280.953125 337.007812 280.746094 C 337.714844 280.539062 338.460938 280.371094 339.234375 280.246094 Z M 339.234375 280.246094 " fill-opacity="1" fill-rule="nonzero"/><path fill="#000000" d="M 264.972656 266.058594 C 268.035156 265.730469 271.210938 265.820312 274.34375 266.253906 C 277.453125 266.6875 280.539062 267.46875 283.445312 268.535156 C 286.351562 269.601562 289.09375 270.957031 291.511719 272.554688 C 293.949219 274.160156 296.074219 276.019531 297.71875 278.074219 C 299.386719 280.160156 300.40625 282.265625 300.820312 284.289062 C 301.238281 286.347656 301.03125 288.328125 300.226562 290.125 C 299.402344 291.953125 297.964844 293.589844 295.941406 294.921875 C 293.882812 296.273438 291.222656 297.308594 288.011719 297.890625 C 284.746094 298.480469 281.242188 298.550781 277.71875 298.164062 C 274.171875 297.777344 270.625 296.933594 267.292969 295.703125 C 263.964844 294.476562 260.875 292.875 258.234375 290.984375 C 255.613281 289.105469 253.453125 286.953125 251.953125 284.613281 C 250.46875 282.304688 249.773438 280.042969 249.769531 277.933594 C 249.769531 275.863281 250.4375 273.945312 251.683594 272.28125 C 252.910156 270.644531 254.695312 269.246094 256.957031 268.179688 C 259.183594 267.128906 261.878906 266.394531 264.972656 266.058594 Z M 264.972656 266.058594 " fill-opacity="1" fill-rule="nonzero"/><path fill="#000000" d="M 188.707031 255.820312 C 190.566406 255.679688 192.425781 255.75 194.199219 255.996094 C 195.96875 256.242188 197.660156 256.660156 199.1875 257.222656 C 200.714844 257.785156 202.085938 258.492188 203.207031 259.3125 C 204.335938 260.136719 205.222656 261.074219 205.773438 262.101562 C 206.328125 263.132812 206.496094 264.160156 206.3125 265.132812 C 206.132812 266.113281 205.597656 267.039062 204.757812 267.863281 C 203.910156 268.691406 202.75 269.417969 201.324219 269.988281 C 199.886719 270.566406 198.179688 270.980469 196.261719 271.179688 C 194.320312 271.382812 192.351562 271.347656 190.457031 271.109375 C 188.554688 270.875 186.734375 270.4375 185.097656 269.832031 C 183.460938 269.226562 182.007812 268.460938 180.847656 267.566406 C 179.691406 266.675781 178.820312 265.664062 178.339844 264.570312 C 177.855469 263.484375 177.800781 262.421875 178.109375 261.433594 C 178.414062 260.453125 179.078125 259.546875 180.035156 258.757812 C 180.984375 257.976562 182.222656 257.308594 183.695312 256.804688 C 185.152344 256.304688 186.84375 255.960938 188.707031 255.820312 Z M 188.707031 255.820312 " fill-opacity="1" fill-rule="nonzero"/><path fill="#000000" d="M 385.558594 332.640625 C 386.320312 332.398438 387.125 332.203125 387.972656 332.0625 C 388.816406 331.917969 389.699219 331.824219 390.625 331.785156 C 391.546875 331.746094 392.507812 331.761719 393.503906 331.828125 C 394.496094 331.898438 395.527344 332.019531 396.59375 332.203125 C 399.933594 332.769531 403.3125 333.855469 406.582031 335.335938 C 409.859375 336.820312 413.046875 338.714844 415.988281 340.898438 C 418.953125 343.101562 421.6875 345.613281 424.015625 348.324219 C 426.375 351.070312 428.332031 354.035156 429.691406 357.085938 C 430.632812 359.203125 431.226562 361.230469 431.496094 363.128906 C 431.765625 365.058594 431.699219 366.855469 431.316406 368.484375 C 430.925781 370.136719 430.210938 371.613281 429.191406 372.878906 C 428.160156 374.15625 426.816406 375.214844 425.191406 376.007812 C 424.425781 376.378906 423.601562 376.691406 422.71875 376.945312 C 421.828125 377.195312 420.882812 377.386719 419.878906 377.507812 C 418.875 377.628906 417.8125 377.679688 416.695312 377.660156 C 415.578125 377.644531 414.410156 377.550781 413.195312 377.382812 C 409.351562 376.851562 405.414062 375.609375 401.609375 373.824219 C 397.816406 372.042969 394.1875 369.738281 390.933594 367.085938 C 387.714844 364.457031 384.882812 361.507812 382.628906 358.40625 C 380.414062 355.355469 378.773438 352.171875 377.875 349.019531 C 377.273438 346.90625 377.042969 344.945312 377.148438 343.160156 C 377.25 341.398438 377.671875 339.8125 378.378906 338.417969 C 379.078125 337.042969 380.054688 335.859375 381.269531 334.886719 C 382.472656 333.925781 383.914062 333.167969 385.558594 332.640625 Z M 385.558594 332.640625 " fill-opacity="1" fill-rule="nonzero"/><path fill="#000000" d="M 299.320312 309.425781 C 302.203125 308.824219 305.25 308.519531 308.386719 308.515625 C 311.496094 308.511719 314.699219 308.800781 317.9375 309.378906 C 321.15625 309.957031 324.417969 310.824219 327.652344 311.984375 C 330.886719 313.144531 334.109375 314.605469 337.257812 316.371094 C 342.027344 319.046875 346.210938 322.195312 349.710938 325.632812 C 353.273438 329.132812 356.160156 332.957031 358.246094 336.902344 C 360.378906 340.945312 361.683594 345.144531 361.992188 349.265625 C 362.308594 353.507812 361.570312 357.683594 359.59375 361.515625 C 358.914062 362.828125 358.109375 364.058594 357.191406 365.203125 C 356.265625 366.363281 355.222656 367.429688 354.070312 368.410156 C 352.910156 369.394531 351.644531 370.289062 350.285156 371.085938 C 348.910156 371.886719 347.441406 372.59375 345.886719 373.195312 C 342.777344 374.398438 339.34375 375.191406 335.683594 375.550781 C 331.984375 375.914062 328.074219 375.832031 324.0625 375.292969 C 320.023438 374.753906 315.90625 373.75 311.828125 372.28125 C 307.746094 370.8125 303.726562 368.882812 299.890625 366.5 C 294.160156 362.9375 289.4375 358.734375 285.828125 354.238281 C 282.289062 349.832031 279.851562 345.179688 278.5625 340.59375 C 277.308594 336.128906 277.148438 331.75 278.109375 327.710938 C 279.042969 323.792969 281.027344 320.207031 284.089844 317.167969 C 285.097656 316.167969 286.1875 315.257812 287.355469 314.4375 C 288.507812 313.621094 289.738281 312.894531 291.027344 312.253906 C 292.304688 311.617188 293.644531 311.0625 295.035156 310.589844 C 296.414062 310.125 297.847656 309.734375 299.320312 309.425781 Z M 299.320312 309.425781 " fill-opacity="1" fill-rule="nonzero"/><path fill="#000000" d="M 211.335938 302.378906 C 212.589844 302.175781 213.867188 302.019531 215.160156 301.917969 C 216.449219 301.820312 217.757812 301.769531 219.078125 301.773438 C 220.394531 301.78125 221.726562 301.839844 223.0625 301.957031 C 224.394531 302.070312 225.738281 302.242188 227.082031 302.472656 C 231.300781 303.191406 235.175781 304.421875 238.59375 306.039062 C 242.023438 307.660156 245.019531 309.683594 247.453125 311.984375 C 249.910156 314.308594 251.808594 316.9375 253 319.742188 C 254.207031 322.597656 254.6875 325.65625 254.269531 328.785156 C 253.976562 330.960938 253.269531 333.03125 252.195312 334.964844 C 251.101562 336.929688 249.632812 338.753906 247.847656 340.394531 C 246.03125 342.0625 243.886719 343.539062 241.472656 344.789062 C 239.027344 346.054688 236.3125 347.082031 233.394531 347.832031 C 232.023438 348.183594 230.609375 348.472656 229.160156 348.695312 C 227.707031 348.917969 226.214844 349.074219 224.695312 349.15625 C 223.171875 349.242188 221.621094 349.253906 220.050781 349.1875 C 218.480469 349.125 216.886719 348.984375 215.289062 348.761719 C 210.234375 348.058594 205.609375 346.617188 201.605469 344.625 C 197.613281 342.640625 194.277344 340.125 191.757812 337.269531 C 189.269531 334.449219 187.597656 331.320312 186.875 328.070312 C 186.164062 324.878906 186.378906 321.585938 187.617188 318.367188 C 188.453125 316.214844 189.691406 314.234375 191.253906 312.449219 C 192.789062 310.695312 194.644531 309.128906 196.738281 307.773438 C 198.804688 306.4375 201.105469 305.304688 203.578125 304.398438 C 206.015625 303.5 208.621094 302.820312 211.335938 302.378906 Z M 211.335938 302.378906 " fill-opacity="1" fill-rule="nonzero"/><path fill="#000000" d="M 465.214844 415.460938 C 466.414062 414.632812 467.910156 414.242188 469.585938 414.238281 C 471.257812 414.234375 473.117188 414.613281 475.058594 415.332031 C 477 416.054688 479.027344 417.117188 481.035156 418.488281 C 483.050781 419.863281 485.058594 421.554688 486.941406 423.523438 C 488.847656 425.515625 490.453125 427.605469 491.722656 429.691406 C 493.007812 431.796875 493.957031 433.902344 494.527344 435.882812 C 495.105469 437.886719 495.292969 439.769531 495.058594 441.40625 C 494.820312 443.058594 494.148438 444.457031 493 445.472656 C 491.832031 446.488281 490.296875 447.015625 488.523438 447.089844 C 486.742188 447.164062 484.726562 446.785156 482.605469 445.992188 C 480.484375 445.203125 478.269531 444.007812 476.089844 442.457031 C 473.925781 440.917969 471.804688 439.03125 469.859375 436.859375 C 467.933594 434.699219 466.367188 432.46875 465.1875 430.292969 C 464.019531 428.136719 463.226562 426.035156 462.832031 424.101562 C 462.4375 422.1875 462.433594 420.4375 462.832031 418.960938 C 463.222656 417.496094 464.011719 416.296875 465.214844 415.460938 Z M 465.214844 415.460938 " fill-opacity="1" fill-rule="nonzero"/><path fill="#000000" d="M 357.746094 392.214844 C 361.242188 390.65625 365.101562 389.976562 369.097656 390.070312 C 373.0625 390.164062 377.195312 391.015625 381.285156 392.539062 C 385.378906 394.058594 389.460938 396.265625 393.320312 399.085938 C 397.21875 401.933594 400.917969 405.429688 404.199219 409.519531 C 407.546875 413.6875 410.160156 418.105469 412.015625 422.554688 C 413.914062 427.109375 415.023438 431.710938 415.300781 436.105469 C 415.582031 440.617188 414.992188 444.910156 413.472656 448.699219 C 411.917969 452.582031 409.394531 455.921875 405.867188 458.390625 C 402.246094 460.90625 397.960938 462.25 393.320312 462.5 C 388.628906 462.753906 383.628906 461.890625 378.644531 460.015625 C 373.664062 458.140625 368.753906 455.28125 364.242188 451.574219 C 359.785156 447.90625 355.757812 443.449219 352.476562 438.363281 C 349.253906 433.378906 347.066406 428.289062 345.859375 423.386719 C 344.679688 418.605469 344.429688 414.015625 345.039062 409.859375 C 345.636719 405.804688 347.050781 402.160156 349.222656 399.136719 C 351.34375 396.183594 354.199219 393.8125 357.746094 392.214844 Z M 357.746094 392.214844 " fill-opacity="1" fill-rule="nonzero"/><path fill="#000000" d="M 253.601562 375.679688 C 256.507812 374.746094 259.523438 374.144531 262.578125 373.878906 C 265.609375 373.617188 268.691406 373.679688 271.75 374.078125 C 274.800781 374.476562 277.839844 375.203125 280.804688 376.269531 C 283.769531 377.339844 286.671875 378.75 289.445312 380.519531 C 293.648438 383.207031 297.1875 386.480469 300.007812 390.136719 C 302.871094 393.851562 305.011719 397.984375 306.34375 402.316406 C 307.707031 406.746094 308.226562 411.40625 307.792969 416.042969 C 307.347656 420.804688 305.894531 425.558594 303.296875 430.007812 C 302.410156 431.53125 301.414062 432.96875 300.328125 434.316406 C 299.230469 435.679688 298.035156 436.949219 296.757812 438.125 C 295.464844 439.308594 294.089844 440.398438 292.640625 441.386719 C 291.183594 442.378906 289.648438 443.269531 288.050781 444.050781 C 284.863281 445.617188 281.433594 446.746094 277.863281 447.410156 C 274.261719 448.082031 270.53125 448.28125 266.78125 447.980469 C 263.015625 447.675781 259.246094 446.871094 255.585938 445.546875 C 251.925781 444.222656 248.398438 442.386719 245.113281 440.03125 C 240.199219 436.507812 236.335938 432.195312 233.574219 427.457031 C 230.863281 422.808594 229.238281 417.792969 228.699219 412.746094 C 228.171875 407.824219 228.683594 402.894531 230.222656 398.25 C 231.71875 393.734375 234.1875 389.496094 237.613281 385.785156 C 238.742188 384.5625 239.941406 383.433594 241.199219 382.402344 C 242.445312 381.378906 243.75 380.445312 245.101562 379.605469 C 246.441406 378.769531 247.828125 378.023438 249.253906 377.367188 C 250.667969 376.71875 252.121094 376.15625 253.601562 375.679688 Z M 253.601562 375.679688 " fill-opacity="1" fill-rule="nonzero"/><path fill="#000000" d="M 138.5 295.050781 C 139.503906 294.917969 140.519531 294.820312 141.539062 294.757812 C 142.554688 294.695312 143.578125 294.671875 144.601562 294.683594 C 145.621094 294.695312 146.640625 294.746094 147.65625 294.832031 C 148.671875 294.921875 149.683594 295.046875 150.6875 295.214844 C 153.835938 295.742188 156.621094 296.621094 158.96875 297.761719 C 161.320312 298.90625 163.25 300.320312 164.671875 301.917969 C 166.105469 303.523438 167.035156 305.328125 167.371094 307.234375 C 167.710938 309.164062 167.441406 311.210938 166.460938 313.28125 C 165.785156 314.714844 164.8125 316.066406 163.59375 317.316406 C 162.359375 318.578125 160.871094 319.738281 159.183594 320.773438 C 157.480469 321.816406 155.570312 322.730469 153.515625 323.488281 C 151.4375 324.257812 149.214844 324.863281 146.898438 325.289062 C 145.816406 325.488281 144.710938 325.644531 143.59375 325.761719 C 142.476562 325.878906 141.34375 325.949219 140.207031 325.976562 C 139.066406 326.003906 137.917969 325.984375 136.773438 325.917969 C 135.625 325.851562 134.480469 325.734375 133.34375 325.566406 C 129.753906 325.042969 126.605469 324.0625 124 322.746094 C 121.398438 321.429688 119.355469 319.789062 117.957031 317.9375 C 116.570312 316.105469 115.824219 314.074219 115.792969 311.964844 C 115.761719 309.886719 116.425781 307.738281 117.847656 305.628906 C 118.804688 304.214844 120.042969 302.90625 121.5 301.730469 C 122.941406 300.566406 124.597656 299.527344 126.40625 298.628906 C 128.199219 297.738281 130.144531 296.984375 132.1875 296.382812 C 134.210938 295.785156 136.335938 295.335938 138.5 295.050781 Z M 138.5 295.050781 " fill-opacity="1" fill-rule="nonzero"/><path fill="#000000" d="M 125.5 375.347656 C 126.527344 375.085938 127.566406 374.867188 128.605469 374.699219 C 129.644531 374.53125 130.6875 374.410156 131.726562 374.339844 C 132.761719 374.273438 133.796875 374.253906 134.824219 374.289062 C 135.847656 374.324219 136.867188 374.414062 137.871094 374.554688 C 140.832031 374.984375 143.410156 375.859375 145.546875 377.078125 C 147.691406 378.296875 149.402344 379.871094 150.609375 381.699219 C 151.828125 383.539062 152.542969 385.644531 152.679688 387.914062 C 152.816406 390.210938 152.359375 392.683594 151.21875 395.230469 C 150.457031 396.929688 149.4375 398.558594 148.207031 400.089844 C 146.960938 401.632812 145.5 403.078125 143.871094 404.390625 C 142.222656 405.71875 140.40625 406.910156 138.460938 407.941406 C 136.503906 408.980469 134.425781 409.855469 132.273438 410.53125 C 131.164062 410.882812 130.039062 411.179688 128.902344 411.417969 C 127.761719 411.660156 126.609375 411.84375 125.457031 411.96875 C 124.304688 412.089844 123.144531 412.152344 121.996094 412.152344 C 120.839844 412.148438 119.695312 412.082031 118.5625 411.941406 C 115.210938 411.535156 112.320312 410.5625 109.980469 409.152344 C 107.640625 407.75 105.859375 405.921875 104.707031 403.808594 C 103.5625 401.710938 103.039062 399.339844 103.199219 396.835938 C 103.355469 394.359375 104.175781 391.757812 105.710938 389.160156 C 106.710938 387.460938 107.953125 385.867188 109.382812 384.40625 C 110.796875 382.957031 112.390625 381.636719 114.117188 380.460938 C 115.832031 379.296875 117.671875 378.273438 119.589844 377.414062 C 121.496094 376.558594 123.480469 375.867188 125.5 375.347656 Z M 125.5 375.347656 " fill-opacity="1" fill-rule="nonzero"/><path fill="#000000" d="M 225.035156 511.214844 C 225.035156 512.21875 224.988281 513.222656 224.886719 514.222656 C 224.789062 515.222656 224.640625 516.21875 224.445312 517.203125 C 224.25 518.191406 224.007812 519.164062 223.714844 520.128906 C 223.421875 521.089844 223.085938 522.035156 222.699219 522.964844 C 222.316406 523.894531 221.886719 524.804688 221.414062 525.691406 C 220.9375 526.578125 220.421875 527.4375 219.863281 528.273438 C 219.304688 529.109375 218.707031 529.917969 218.070312 530.695312 C 217.433594 531.472656 216.757812 532.21875 216.046875 532.929688 C 215.335938 533.640625 214.59375 534.316406 213.816406 534.953125 C 213.039062 535.589844 212.234375 536.1875 211.398438 536.746094 C 210.5625 537.308594 209.699219 537.824219 208.8125 538.296875 C 207.925781 538.769531 207.019531 539.199219 206.089844 539.585938 C 205.164062 539.972656 204.21875 540.308594 203.253906 540.601562 C 202.292969 540.894531 201.320312 541.136719 200.332031 541.332031 C 199.347656 541.53125 198.355469 541.675781 197.355469 541.777344 C 196.355469 541.875 195.351562 541.921875 194.347656 541.921875 C 193.339844 541.921875 192.339844 541.875 191.339844 541.777344 C 190.339844 541.675781 189.34375 541.53125 188.359375 541.332031 C 187.375 541.136719 186.398438 540.894531 185.4375 540.601562 C 184.476562 540.308594 183.53125 539.972656 182.601562 539.585938 C 181.675781 539.199219 180.765625 538.769531 179.878906 538.296875 C 178.992188 537.824219 178.132812 537.308594 177.296875 536.746094 C 176.460938 536.1875 175.65625 535.589844 174.878906 534.953125 C 174.101562 534.316406 173.355469 533.640625 172.644531 532.929688 C 171.933594 532.21875 171.261719 531.472656 170.625 530.695312 C 169.984375 529.917969 169.386719 529.109375 168.828125 528.273438 C 168.269531 527.4375 167.753906 526.578125 167.28125 525.691406 C 166.808594 524.804688 166.378906 523.894531 165.992188 522.964844 C 165.609375 522.035156 165.269531 521.089844 164.980469 520.128906 C 164.6875 519.164062 164.445312 518.191406 164.246094 517.203125 C 164.050781 516.21875 163.902344 515.222656 163.804688 514.222656 C 163.707031 513.222656 163.65625 512.21875 163.65625 511.214844 C 163.65625 510.207031 163.707031 509.203125 163.804688 508.203125 C 163.902344 507.203125 164.050781 506.207031 164.246094 505.222656 C 164.445312 504.234375 164.6875 503.261719 164.980469 502.296875 C 165.269531 501.335938 165.609375 500.390625 165.992188 499.460938 C 166.378906 498.53125 166.808594 497.625 167.28125 496.738281 C 167.753906 495.847656 168.269531 494.988281 168.828125 494.152344 C 169.386719 493.316406 169.984375 492.507812 170.625 491.730469 C 171.261719 490.953125 171.933594 490.210938 172.644531 489.496094 C 173.355469 488.785156 174.101562 488.113281 174.878906 487.472656 C 175.65625 486.835938 176.460938 486.238281 177.296875 485.679688 C 178.132812 485.121094 178.992188 484.601562 179.878906 484.128906 C 180.765625 483.65625 181.675781 483.226562 182.601562 482.839844 C 183.53125 482.457031 184.476562 482.117188 185.4375 481.824219 C 186.398438 481.535156 187.375 481.289062 188.359375 481.09375 C 189.34375 480.898438 190.339844 480.75 191.339844 480.652344 C 192.339844 480.550781 193.339844 480.503906 194.347656 480.503906 C 195.351562 480.503906 196.355469 480.550781 197.355469 480.652344 C 198.355469 480.75 199.347656 480.898438 200.332031 481.09375 C 201.320312 481.289062 202.292969 481.535156 203.253906 481.824219 C 204.21875 482.117188 205.164062 482.457031 206.089844 482.839844 C 207.019531 483.226562 207.925781 483.65625 208.8125 484.128906 C 209.699219 484.601562 210.5625 485.121094 211.398438 485.679688 C 212.234375 486.238281 213.039062 486.835938 213.816406 487.472656 C 214.59375 488.113281 215.335938 488.785156 216.046875 489.496094 C 216.757812 490.210938 217.433594 490.953125 218.070312 491.730469 C 218.707031 492.507812 219.304688 493.316406 219.863281 494.152344 C 220.421875 494.988281 220.9375 495.847656 221.414062 496.738281 C 221.886719 497.625 222.316406 498.53125 222.699219 499.460938 C 223.085938 500.390625 223.421875 501.335938 223.714844 502.296875 C 224.007812 503.261719 224.25 504.234375 224.445312 505.222656 C 224.640625 506.207031 224.789062 507.203125 224.886719 508.203125 C 224.988281 509.203125 225.035156 510.207031 225.035156 511.214844 Z M 225.035156 511.214844 " fill-opacity="1" fill-rule="nonzero"/><path fill="#000000" d="M 436.167969 496.972656 C 436.804688 496.585938 437.464844 496.246094 438.148438 495.945312 C 438.832031 495.644531 439.539062 495.390625 440.265625 495.179688 C 440.992188 494.96875 441.734375 494.804688 442.492188 494.6875 C 443.253906 494.566406 444.027344 494.492188 444.816406 494.464844 C 445.601562 494.4375 446.398438 494.457031 447.207031 494.523438 C 448.011719 494.589844 448.824219 494.699219 449.644531 494.859375 C 450.464844 495.015625 451.285156 495.21875 452.105469 495.464844 C 452.929688 495.710938 453.75 496.003906 454.566406 496.339844 C 455.386719 496.675781 456.195312 497.054688 457.003906 497.472656 C 457.808594 497.894531 458.605469 498.355469 459.390625 498.855469 C 460.179688 499.359375 460.953125 499.898438 461.710938 500.472656 C 462.46875 501.050781 463.210938 501.664062 463.9375 502.308594 C 464.660156 502.957031 465.363281 503.636719 466.046875 504.347656 C 466.730469 505.058594 467.390625 505.800781 468.023438 506.566406 C 468.660156 507.335938 469.265625 508.128906 469.847656 508.949219 C 470.429688 509.765625 470.980469 510.605469 471.5 511.464844 C 472.019531 512.328125 472.507812 513.203125 472.964844 514.097656 C 473.417969 514.992188 473.839844 515.898438 474.226562 516.816406 C 474.613281 517.738281 474.964844 518.664062 475.277344 519.597656 C 475.589844 520.535156 475.863281 521.472656 476.101562 522.417969 C 476.339844 523.359375 476.539062 524.300781 476.695312 525.242188 C 476.855469 526.179688 476.976562 527.117188 477.054688 528.046875 C 477.132812 528.976562 477.171875 529.894531 477.171875 530.804688 C 477.167969 531.714844 477.128906 532.609375 477.046875 533.492188 C 476.964844 534.371094 476.84375 535.234375 476.679688 536.078125 C 476.519531 536.921875 476.316406 537.746094 476.078125 538.542969 C 475.835938 539.339844 475.558594 540.113281 475.242188 540.859375 C 474.925781 541.605469 474.574219 542.320312 474.1875 543.007812 C 473.796875 543.691406 473.375 544.34375 472.914062 544.964844 C 472.457031 545.582031 471.96875 546.164062 471.445312 546.710938 C 470.921875 547.257812 470.371094 547.765625 469.785156 548.230469 C 469.203125 548.699219 468.59375 549.128906 467.957031 549.511719 C 467.320312 549.898438 466.660156 550.242188 465.976562 550.539062 C 465.292969 550.839844 464.585938 551.09375 463.859375 551.304688 C 463.136719 551.515625 462.390625 551.679688 461.632812 551.800781 C 460.871094 551.917969 460.097656 551.992188 459.308594 552.019531 C 458.523438 552.046875 457.726562 552.027344 456.917969 551.960938 C 456.113281 551.898438 455.300781 551.785156 454.480469 551.628906 C 453.664062 551.472656 452.84375 551.269531 452.019531 551.019531 C 451.199219 550.773438 450.378906 550.480469 449.558594 550.144531 C 448.742188 549.808594 447.929688 549.433594 447.121094 549.011719 C 446.316406 548.589844 445.519531 548.132812 444.734375 547.628906 C 443.945312 547.128906 443.175781 546.589844 442.414062 546.011719 C 441.65625 545.4375 440.914062 544.824219 440.1875 544.175781 C 439.464844 543.527344 438.761719 542.851562 438.078125 542.136719 C 437.394531 541.425781 436.734375 540.6875 436.101562 539.917969 C 435.464844 539.148438 434.859375 538.355469 434.277344 537.539062 C 433.699219 536.71875 433.148438 535.878906 432.625 535.019531 C 432.105469 534.160156 431.617188 533.28125 431.164062 532.386719 C 430.707031 531.492188 430.285156 530.585938 429.898438 529.667969 C 429.511719 528.75 429.164062 527.820312 428.847656 526.886719 C 428.535156 525.953125 428.261719 525.011719 428.023438 524.070312 C 427.785156 523.128906 427.585938 522.1875 427.429688 521.246094 C 427.269531 520.304688 427.152344 519.371094 427.070312 518.441406 C 426.992188 517.511719 426.953125 516.589844 426.953125 515.679688 C 426.957031 514.769531 426.996094 513.875 427.078125 512.996094 C 427.160156 512.113281 427.285156 511.25 427.445312 510.40625 C 427.605469 509.5625 427.808594 508.742188 428.046875 507.941406 C 428.289062 507.144531 428.566406 506.371094 428.882812 505.625 C 429.199219 504.878906 429.550781 504.164062 429.941406 503.480469 C 430.328125 502.792969 430.75 502.140625 431.210938 501.523438 C 431.667969 500.902344 432.160156 500.320312 432.679688 499.777344 C 433.203125 499.230469 433.757812 498.722656 434.339844 498.253906 C 434.921875 497.785156 435.53125 497.359375 436.167969 496.972656 Z M 436.167969 496.972656 " fill-opacity="1" fill-rule="nonzero"/><path fill="#000000" d="M 362.699219 555.871094 C 362.734375 556.890625 362.734375 557.910156 362.6875 558.925781 C 362.640625 559.941406 362.554688 560.953125 362.425781 561.957031 C 362.296875 562.964844 362.125 563.957031 361.914062 564.941406 C 361.703125 565.925781 361.453125 566.894531 361.160156 567.847656 C 360.871094 568.804688 360.539062 569.738281 360.171875 570.648438 C 359.800781 571.5625 359.394531 572.453125 358.953125 573.316406 C 358.507812 574.183594 358.03125 575.019531 357.519531 575.828125 C 357.003906 576.636719 356.460938 577.410156 355.882812 578.15625 C 355.304688 578.898438 354.699219 579.605469 354.0625 580.277344 C 353.425781 580.949219 352.761719 581.578125 352.074219 582.171875 C 351.382812 582.765625 350.671875 583.316406 349.933594 583.824219 C 349.199219 584.332031 348.445312 584.796875 347.667969 585.21875 C 346.894531 585.636719 346.101562 586.011719 345.296875 586.335938 C 344.488281 586.664062 343.667969 586.941406 342.835938 587.171875 C 342.007812 587.402344 341.167969 587.585938 340.320312 587.71875 C 339.472656 587.851562 338.621094 587.933594 337.765625 587.964844 C 336.910156 587.996094 336.058594 587.980469 335.203125 587.910156 C 334.347656 587.84375 333.496094 587.726562 332.652344 587.558594 C 331.804688 587.394531 330.964844 587.175781 330.136719 586.914062 C 329.308594 586.648438 328.492188 586.335938 327.6875 585.976562 C 326.882812 585.617188 326.09375 585.210938 325.320312 584.757812 C 324.546875 584.308594 323.796875 583.8125 323.0625 583.273438 C 322.332031 582.734375 321.621094 582.152344 320.9375 581.53125 C 320.25 580.910156 319.59375 580.253906 318.960938 579.554688 C 318.328125 578.859375 317.726562 578.125 317.152344 577.359375 C 316.582031 576.589844 316.042969 575.792969 315.535156 574.964844 C 315.027344 574.136719 314.554688 573.28125 314.117188 572.398438 C 313.679688 571.515625 313.28125 570.609375 312.917969 569.679688 C 312.554688 568.75 312.230469 567.804688 311.945312 566.839844 C 311.660156 565.871094 311.417969 564.894531 311.210938 563.902344 C 311.007812 562.90625 310.84375 561.90625 310.722656 560.894531 C 310.597656 559.886719 310.519531 558.871094 310.480469 557.851562 C 310.441406 556.832031 310.445312 555.816406 310.492188 554.796875 C 310.535156 553.78125 310.625 552.769531 310.753906 551.765625 C 310.882812 550.761719 311.050781 549.765625 311.261719 548.78125 C 311.472656 547.796875 311.726562 546.828125 312.015625 545.875 C 312.308594 544.921875 312.640625 543.988281 313.007812 543.074219 C 313.375 542.160156 313.78125 541.269531 314.226562 540.40625 C 314.667969 539.539062 315.148438 538.703125 315.660156 537.894531 C 316.171875 537.089844 316.71875 536.3125 317.292969 535.570312 C 317.871094 534.824219 318.480469 534.117188 319.113281 533.449219 C 319.75 532.777344 320.414062 532.144531 321.105469 531.550781 C 321.792969 530.957031 322.507812 530.40625 323.242188 529.898438 C 323.976562 529.390625 324.734375 528.925781 325.507812 528.503906 C 326.285156 528.085938 327.074219 527.710938 327.882812 527.386719 C 328.691406 527.058594 329.507812 526.78125 330.339844 526.550781 C 331.171875 526.320312 332.011719 526.136719 332.859375 526.007812 C 333.703125 525.875 334.554688 525.792969 335.410156 525.757812 C 336.265625 525.726562 337.121094 525.746094 337.976562 525.8125 C 338.832031 525.878906 339.679688 525.996094 340.527344 526.164062 C 341.375 526.332031 342.210938 526.546875 343.039062 526.8125 C 343.871094 527.074219 344.6875 527.386719 345.492188 527.746094 C 346.296875 528.109375 347.085938 528.511719 347.859375 528.964844 C 348.628906 529.417969 349.382812 529.910156 350.113281 530.449219 C 350.847656 530.988281 351.554688 531.570312 352.242188 532.191406 C 352.925781 532.8125 353.585938 533.472656 354.21875 534.167969 C 354.847656 534.867188 355.453125 535.597656 356.023438 536.367188 C 356.597656 537.132812 357.136719 537.929688 357.644531 538.757812 C 358.148438 539.589844 358.621094 540.445312 359.058594 541.328125 C 359.496094 542.210938 359.898438 543.117188 360.257812 544.042969 C 360.621094 544.972656 360.945312 545.921875 361.230469 546.886719 C 361.515625 547.851562 361.761719 548.832031 361.964844 549.824219 C 362.171875 550.816406 362.335938 551.816406 362.457031 552.828125 C 362.578125 553.839844 362.660156 554.851562 362.699219 555.871094 Z M 362.699219 555.871094 " fill-opacity="1" fill-rule="nonzero"/></svg>