<svg xmlns="http://www.w3.org/2000/svg" xmlns:xlink="http://www.w3.org/1999/xlink" width="794" zoomAndPan="magnify" viewBox="0 0 595.5 842.249979" height="1123" preserveAspectRatio="xMidYMid meet" version="1.0"><path fill="#000000" d="M 321.988281 202.644531 C 322.3125 202.605469 322.667969 202.597656 323.046875 202.621094 C 323.421875 202.644531 323.824219 202.703125 324.234375 202.792969 C 324.644531 202.882812 325.070312 203.003906 325.5 203.15625 C 325.929688 203.308594 326.359375 203.492188 326.789062 203.710938 C 327.4375 204.035156 328.015625 204.402344 328.507812 204.789062 C 329.003906 205.179688 329.410156 205.589844 329.71875 205.996094 C 330.023438 206.410156 330.226562 206.816406 330.304688 207.199219 C 330.382812 207.585938 330.335938 207.949219 330.140625 208.257812 C 330.074219 208.359375 329.992188 208.453125 329.898438 208.539062 C 329.800781 208.625 329.691406 208.703125 329.570312 208.769531 C 329.449219 208.835938 329.316406 208.894531 329.171875 208.941406 C 329.027344 208.992188 328.871094 209.03125 328.703125 209.058594 C 328.375 209.117188 328.007812 209.140625 327.613281 209.125 C 327.214844 209.109375 326.792969 209.054688 326.351562 208.964844 C 325.910156 208.871094 325.453125 208.742188 324.992188 208.578125 C 324.53125 208.414062 324.0625 208.210938 323.605469 207.976562 C 322.917969 207.621094 322.3125 207.21875 321.808594 206.800781 C 321.304688 206.382812 320.90625 205.949219 320.628906 205.527344 C 320.347656 205.105469 320.1875 204.695312 320.15625 204.316406 C 320.128906 203.945312 320.226562 203.605469 320.46875 203.328125 C 320.550781 203.234375 320.644531 203.148438 320.75 203.074219 C 320.855469 203 320.972656 202.933594 321.101562 202.878906 C 321.230469 202.820312 321.371094 202.773438 321.515625 202.734375 C 321.664062 202.695312 321.820312 202.667969 321.988281 202.644531 Z M 321.988281 202.644531 " fill-opacity="1" fill-rule="nonzero"/><path fill="#000000" d="M 341.953125 216.628906 C 342.070312 216.601562 342.195312 216.578125 342.328125 216.566406 C 342.460938 216.550781 342.601562 216.546875 342.75 216.550781 C 342.898438 216.554688 343.054688 216.566406 343.214844 216.585938 C 343.378906 216.605469 343.550781 216.632812 343.726562 216.671875 C 344.25 216.785156 344.78125 216.96875 345.296875 217.203125 C 345.8125 217.4375 346.3125 217.726562 346.773438 218.046875 C 347.238281 218.367188 347.660156 218.726562 348.015625 219.097656 C 348.371094 219.472656 348.660156 219.867188 348.855469 220.257812 C 348.984375 220.519531 349.0625 220.761719 349.09375 220.988281 C 349.128906 221.210938 349.109375 221.417969 349.050781 221.597656 C 348.992188 221.777344 348.886719 221.933594 348.742188 222.066406 C 348.59375 222.195312 348.40625 222.296875 348.179688 222.367188 C 348.066406 222.402344 347.9375 222.429688 347.804688 222.449219 C 347.667969 222.46875 347.523438 222.480469 347.371094 222.480469 C 347.21875 222.480469 347.054688 222.472656 346.882812 222.453125 C 346.714844 222.433594 346.535156 222.40625 346.347656 222.367188 C 345.796875 222.25 345.230469 222.058594 344.683594 221.804688 C 344.136719 221.550781 343.609375 221.242188 343.132812 220.898438 C 342.652344 220.554688 342.226562 220.175781 341.875 219.785156 C 341.527344 219.398438 341.257812 218.996094 341.089844 218.601562 C 340.980469 218.34375 340.921875 218.105469 340.914062 217.890625 C 340.902344 217.675781 340.9375 217.480469 341.015625 217.3125 C 341.097656 217.148438 341.214844 217.003906 341.375 216.890625 C 341.53125 216.773438 341.726562 216.6875 341.953125 216.628906 Z M 341.953125 216.628906 " fill-opacity="1" fill-rule="nonzero"/><path fill="#000000" d="M 355.820312 234.195312 C 355.972656 234.128906 356.140625 234.078125 356.320312 234.035156 C 356.5 233.996094 356.691406 233.964844 356.894531 233.953125 C 357.097656 233.9375 357.3125 233.933594 357.539062 233.949219 C 357.769531 233.960938 358.007812 233.988281 358.257812 234.03125 C 359.042969 234.160156 359.867188 234.425781 360.6875 234.792969 C 361.511719 235.160156 362.335938 235.632812 363.121094 236.179688 C 363.90625 236.730469 364.652344 237.359375 365.3125 238.035156 C 365.980469 238.714844 366.5625 239.445312 367.011719 240.195312 C 367.320312 240.714844 367.546875 241.207031 367.691406 241.667969 C 367.835938 242.132812 367.902344 242.5625 367.890625 242.953125 C 367.878906 243.34375 367.785156 243.695312 367.617188 243.992188 C 367.445312 244.292969 367.199219 244.539062 366.878906 244.722656 C 366.730469 244.808594 366.5625 244.882812 366.382812 244.9375 C 366.199219 244.996094 366.003906 245.039062 365.792969 245.066406 C 365.578125 245.09375 365.351562 245.105469 365.109375 245.101562 C 364.867188 245.097656 364.609375 245.074219 364.339844 245.035156 C 363.488281 244.910156 362.578125 244.621094 361.671875 244.207031 C 360.769531 243.796875 359.871094 243.261719 359.027344 242.640625 C 358.191406 242.027344 357.417969 241.332031 356.753906 240.597656 C 356.097656 239.867188 355.550781 239.101562 355.160156 238.335938 C 354.898438 237.820312 354.726562 237.335938 354.636719 236.894531 C 354.546875 236.453125 354.539062 236.054688 354.605469 235.699219 C 354.667969 235.351562 354.808594 235.046875 355.011719 234.792969 C 355.21875 234.539062 355.488281 234.339844 355.820312 234.195312 Z M 355.820312 234.195312 " fill-opacity="1" fill-rule="nonzero"/><path fill="#000000" d="M 301.367188 195.3125 C 301.503906 195.300781 301.648438 195.296875 301.800781 195.300781 C 301.949219 195.300781 302.101562 195.3125 302.261719 195.324219 C 302.421875 195.339844 302.582031 195.363281 302.75 195.390625 C 302.914062 195.417969 303.085938 195.449219 303.257812 195.492188 C 303.765625 195.613281 304.253906 195.78125 304.699219 195.980469 C 305.144531 196.183594 305.550781 196.417969 305.898438 196.671875 C 306.246094 196.925781 306.535156 197.203125 306.742188 197.480469 C 306.953125 197.761719 307.078125 198.050781 307.105469 198.328125 C 307.121094 198.511719 307.09375 198.679688 307.019531 198.832031 C 306.949219 198.984375 306.835938 199.117188 306.6875 199.230469 C 306.539062 199.347656 306.351562 199.441406 306.132812 199.515625 C 305.914062 199.585938 305.667969 199.636719 305.390625 199.664062 C 305.25 199.679688 305.101562 199.6875 304.949219 199.6875 C 304.796875 199.6875 304.636719 199.679688 304.472656 199.667969 C 304.304688 199.65625 304.136719 199.636719 303.960938 199.609375 C 303.789062 199.582031 303.609375 199.546875 303.425781 199.503906 C 302.890625 199.378906 302.375 199.203125 301.90625 198.988281 C 301.4375 198.773438 301.011719 198.523438 300.660156 198.253906 C 300.304688 197.984375 300.019531 197.695312 299.824219 197.40625 C 299.628906 197.117188 299.523438 196.828125 299.527344 196.550781 C 299.527344 196.371094 299.578125 196.207031 299.667969 196.0625 C 299.753906 195.917969 299.882812 195.792969 300.046875 195.6875 C 300.207031 195.582031 300.402344 195.496094 300.625 195.433594 C 300.847656 195.371094 301.09375 195.328125 301.367188 195.3125 Z M 301.367188 195.3125 " fill-opacity="1" fill-rule="nonzero"/><path fill="#000000" d="M 277.957031 193.425781 C 278.695312 193.386719 279.453125 193.433594 280.195312 193.554688 C 280.933594 193.671875 281.660156 193.863281 282.335938 194.109375 C 283.007812 194.355469 283.636719 194.660156 284.175781 195.007812 C 284.71875 195.355469 285.179688 195.753906 285.511719 196.179688 C 285.847656 196.613281 286.027344 197.039062 286.058594 197.441406 C 286.09375 197.84375 285.980469 198.222656 285.730469 198.558594 C 285.476562 198.898438 285.085938 199.1875 284.570312 199.414062 C 284.050781 199.640625 283.402344 199.800781 282.640625 199.867188 C 281.875 199.933594 281.070312 199.902344 280.273438 199.785156 C 279.472656 199.667969 278.683594 199.46875 277.949219 199.203125 C 277.21875 198.933594 276.546875 198.601562 275.980469 198.214844 C 275.414062 197.832031 274.953125 197.402344 274.644531 196.945312 C 274.335938 196.488281 274.207031 196.042969 274.230469 195.636719 C 274.257812 195.234375 274.433594 194.863281 274.742188 194.546875 C 275.050781 194.234375 275.484375 193.972656 276.03125 193.78125 C 276.570312 193.589844 277.21875 193.464844 277.957031 193.425781 Z M 277.957031 193.425781 " fill-opacity="1" fill-rule="nonzero"/><path fill="#000000" d="M 313.429688 208.863281 C 314.011719 208.769531 314.644531 208.734375 315.304688 208.761719 C 315.960938 208.789062 316.648438 208.875 317.355469 209.015625 C 318.058594 209.160156 318.777344 209.359375 319.5 209.617188 C 320.222656 209.875 320.949219 210.191406 321.667969 210.566406 C 322.75 211.136719 323.710938 211.785156 324.523438 212.476562 C 325.34375 213.179688 326.015625 213.925781 326.515625 214.683594 C 327.019531 215.445312 327.34375 216.222656 327.453125 216.960938 C 327.566406 217.710938 327.457031 218.425781 327.089844 219.054688 C 326.964844 219.269531 326.816406 219.464844 326.640625 219.644531 C 326.464844 219.824219 326.265625 219.988281 326.042969 220.136719 C 325.824219 220.28125 325.578125 220.410156 325.316406 220.523438 C 325.050781 220.636719 324.765625 220.730469 324.464844 220.804688 C 323.863281 220.957031 323.195312 221.035156 322.480469 221.039062 C 321.761719 221.046875 320.996094 220.976562 320.203125 220.832031 C 319.40625 220.6875 318.585938 220.46875 317.765625 220.171875 C 316.941406 219.878906 316.117188 219.511719 315.316406 219.070312 C 314.113281 218.410156 313.074219 217.652344 312.234375 216.851562 C 311.402344 216.0625 310.769531 215.234375 310.351562 214.417969 C 309.941406 213.617188 309.742188 212.832031 309.777344 212.109375 C 309.8125 211.402344 310.074219 210.753906 310.578125 210.210938 C 310.742188 210.03125 310.929688 209.867188 311.136719 209.722656 C 311.34375 209.578125 311.570312 209.449219 311.8125 209.335938 C 312.050781 209.226562 312.308594 209.128906 312.578125 209.050781 C 312.851562 208.972656 313.132812 208.910156 313.429688 208.863281 Z M 313.429688 208.863281 " fill-opacity="1" fill-rule="nonzero"/><path fill="#000000" d="M 285.101562 203.464844 C 286.273438 203.335938 287.484375 203.371094 288.675781 203.535156 C 289.863281 203.703125 291.042969 204 292.148438 204.402344 C 293.257812 204.808594 294.304688 205.328125 295.226562 205.933594 C 296.15625 206.546875 296.964844 207.253906 297.59375 208.035156 C 298.230469 208.828125 298.621094 209.628906 298.777344 210.398438 C 298.9375 211.183594 298.859375 211.9375 298.550781 212.621094 C 298.238281 213.316406 297.6875 213.9375 296.914062 214.445312 C 296.128906 214.960938 295.117188 215.351562 293.890625 215.574219 C 292.644531 215.796875 291.308594 215.824219 289.964844 215.679688 C 288.613281 215.53125 287.257812 215.210938 285.988281 214.742188 C 284.71875 214.277344 283.539062 213.667969 282.53125 212.945312 C 281.535156 212.230469 280.710938 211.414062 280.136719 210.523438 C 279.570312 209.644531 279.304688 208.78125 279.304688 207.980469 C 279.304688 207.195312 279.558594 206.464844 280.035156 205.832031 C 280.5 205.207031 281.183594 204.675781 282.046875 204.269531 C 282.894531 203.871094 283.921875 203.589844 285.101562 203.464844 Z M 285.101562 203.464844 " fill-opacity="1" fill-rule="nonzero"/><path fill="#000000" d="M 256.011719 199.566406 C 256.722656 199.511719 257.429688 199.539062 258.109375 199.632812 C 258.78125 199.726562 259.425781 199.886719 260.011719 200.101562 C 260.59375 200.316406 261.113281 200.582031 261.542969 200.894531 C 261.972656 201.207031 262.3125 201.566406 262.523438 201.957031 C 262.734375 202.351562 262.796875 202.738281 262.726562 203.109375 C 262.660156 203.484375 262.457031 203.835938 262.132812 204.148438 C 261.8125 204.464844 261.367188 204.742188 260.824219 204.957031 C 260.277344 205.175781 259.625 205.335938 258.894531 205.410156 C 258.152344 205.488281 257.402344 205.476562 256.679688 205.386719 C 255.953125 205.296875 255.261719 205.128906 254.636719 204.898438 C 254.011719 204.667969 253.457031 204.375 253.015625 204.035156 C 252.574219 203.699219 252.242188 203.3125 252.058594 202.898438 C 251.875 202.484375 251.851562 202.078125 251.96875 201.703125 C 252.085938 201.332031 252.339844 200.984375 252.703125 200.683594 C 253.066406 200.386719 253.539062 200.132812 254.101562 199.941406 C 254.65625 199.75 255.300781 199.621094 256.011719 199.566406 Z M 256.011719 199.566406 " fill-opacity="1" fill-rule="nonzero"/><path fill="#000000" d="M 331.101562 228.796875 C 331.390625 228.703125 331.695312 228.628906 332.019531 228.574219 C 332.34375 228.523438 332.679688 228.488281 333.03125 228.472656 C 333.382812 228.457031 333.75 228.460938 334.128906 228.488281 C 334.507812 228.515625 334.902344 228.5625 335.308594 228.628906 C 336.582031 228.847656 337.871094 229.257812 339.117188 229.824219 C 340.367188 230.386719 341.585938 231.105469 342.707031 231.9375 C 343.839844 232.777344 344.882812 233.734375 345.769531 234.765625 C 346.667969 235.808594 347.414062 236.9375 347.933594 238.097656 C 348.292969 238.902344 348.519531 239.675781 348.621094 240.398438 C 348.726562 241.132812 348.699219 241.816406 348.554688 242.433594 C 348.40625 243.0625 348.132812 243.625 347.742188 244.105469 C 347.347656 244.59375 346.835938 244.996094 346.21875 245.296875 C 345.925781 245.4375 345.609375 245.558594 345.273438 245.652344 C 344.933594 245.75 344.574219 245.820312 344.191406 245.867188 C 343.808594 245.914062 343.402344 245.933594 342.976562 245.925781 C 342.550781 245.921875 342.105469 245.886719 341.640625 245.820312 C 340.175781 245.617188 338.671875 245.144531 337.222656 244.464844 C 335.777344 243.789062 334.390625 242.914062 333.148438 241.902344 C 331.921875 240.902344 330.839844 239.78125 329.984375 238.601562 C 329.136719 237.441406 328.511719 236.230469 328.167969 235.03125 C 327.9375 234.226562 327.851562 233.476562 327.890625 232.800781 C 327.929688 232.128906 328.09375 231.523438 328.363281 230.996094 C 328.628906 230.472656 329 230.019531 329.464844 229.652344 C 329.921875 229.285156 330.472656 228.996094 331.101562 228.796875 Z M 331.101562 228.796875 " fill-opacity="1" fill-rule="nonzero"/><path fill="#000000" d="M 298.203125 219.964844 C 299.304688 219.734375 300.46875 219.621094 301.664062 219.617188 C 302.847656 219.617188 304.070312 219.726562 305.304688 219.945312 C 306.535156 220.164062 307.777344 220.496094 309.011719 220.9375 C 310.246094 221.378906 311.476562 221.933594 312.675781 222.605469 C 314.496094 223.625 316.089844 224.824219 317.425781 226.132812 C 318.785156 227.460938 319.886719 228.917969 320.679688 230.417969 C 321.496094 231.957031 321.992188 233.554688 322.109375 235.121094 C 322.230469 236.738281 321.949219 238.324219 321.195312 239.78125 C 320.9375 240.28125 320.628906 240.75 320.28125 241.1875 C 319.925781 241.628906 319.527344 242.035156 319.089844 242.40625 C 318.648438 242.78125 318.164062 243.121094 317.644531 243.425781 C 317.121094 243.730469 316.558594 244 315.96875 244.226562 C 314.78125 244.683594 313.472656 244.988281 312.074219 245.125 C 310.664062 245.261719 309.171875 245.230469 307.640625 245.027344 C 306.101562 244.820312 304.53125 244.4375 302.976562 243.878906 C 301.417969 243.320312 299.886719 242.585938 298.421875 241.679688 C 296.238281 240.324219 294.4375 238.726562 293.058594 237.015625 C 291.710938 235.335938 290.777344 233.566406 290.285156 231.824219 C 289.808594 230.125 289.75 228.457031 290.113281 226.921875 C 290.46875 225.429688 291.226562 224.066406 292.394531 222.910156 C 292.78125 222.527344 293.195312 222.183594 293.640625 221.871094 C 294.082031 221.558594 294.550781 221.285156 295.042969 221.039062 C 295.527344 220.796875 296.039062 220.585938 296.570312 220.40625 C 297.097656 220.230469 297.644531 220.082031 298.203125 219.964844 Z M 298.203125 219.964844 " fill-opacity="1" fill-rule="nonzero"/><path fill="#000000" d="M 264.644531 217.28125 C 265.121094 217.203125 265.609375 217.144531 266.101562 217.109375 C 266.59375 217.070312 267.09375 217.050781 267.597656 217.050781 C 268.097656 217.054688 268.605469 217.078125 269.117188 217.121094 C 269.625 217.164062 270.136719 217.230469 270.648438 217.316406 C 272.257812 217.589844 273.738281 218.058594 275.042969 218.675781 C 276.347656 219.292969 277.492188 220.0625 278.421875 220.9375 C 279.359375 221.820312 280.082031 222.820312 280.535156 223.890625 C 280.996094 224.976562 281.179688 226.140625 281.019531 227.328125 C 280.910156 228.15625 280.636719 228.945312 280.230469 229.679688 C 279.8125 230.429688 279.253906 231.121094 278.570312 231.746094 C 277.878906 232.382812 277.058594 232.945312 276.140625 233.417969 C 275.207031 233.902344 274.171875 234.292969 273.058594 234.578125 C 272.535156 234.710938 271.996094 234.820312 271.445312 234.90625 C 270.886719 234.988281 270.320312 235.050781 269.738281 235.082031 C 269.160156 235.113281 268.566406 235.117188 267.96875 235.09375 C 267.367188 235.070312 266.761719 235.015625 266.152344 234.929688 C 264.222656 234.664062 262.460938 234.113281 260.933594 233.355469 C 259.410156 232.601562 258.136719 231.644531 257.175781 230.558594 C 256.226562 229.484375 255.589844 228.292969 255.3125 227.058594 C 255.042969 225.84375 255.125 224.589844 255.597656 223.367188 C 255.914062 222.546875 256.386719 221.792969 256.984375 221.113281 C 257.570312 220.445312 258.277344 219.851562 259.078125 219.335938 C 259.863281 218.828125 260.742188 218.394531 261.683594 218.050781 C 262.613281 217.710938 263.609375 217.449219 264.644531 217.28125 Z M 264.644531 217.28125 " fill-opacity="1" fill-rule="nonzero"/><path fill="#000000" d="M 361.484375 260.308594 C 361.941406 259.996094 362.511719 259.847656 363.152344 259.84375 C 363.789062 259.84375 364.5 259.988281 365.238281 260.261719 C 365.980469 260.535156 366.753906 260.941406 367.519531 261.460938 C 368.289062 261.984375 369.054688 262.628906 369.773438 263.378906 C 370.5 264.132812 371.109375 264.929688 371.597656 265.722656 C 372.085938 266.523438 372.449219 267.324219 372.664062 268.078125 C 372.886719 268.84375 372.957031 269.558594 372.867188 270.179688 C 372.777344 270.808594 372.519531 271.34375 372.082031 271.726562 C 371.636719 272.117188 371.050781 272.316406 370.375 272.34375 C 369.695312 272.371094 368.925781 272.226562 368.117188 271.925781 C 367.308594 271.625 366.464844 271.171875 365.632812 270.582031 C 364.804688 269.996094 363.996094 269.277344 363.257812 268.449219 C 362.519531 267.628906 361.925781 266.78125 361.472656 265.953125 C 361.027344 265.132812 360.726562 264.332031 360.574219 263.597656 C 360.425781 262.867188 360.421875 262.203125 360.574219 261.640625 C 360.726562 261.082031 361.027344 260.628906 361.484375 260.308594 Z M 361.484375 260.308594 " fill-opacity="1" fill-rule="nonzero"/><path fill="#000000" d="M 320.492188 251.464844 C 321.824219 250.871094 323.296875 250.613281 324.820312 250.648438 C 326.332031 250.683594 327.910156 251.007812 329.46875 251.585938 C 331.03125 252.167969 332.589844 253.007812 334.0625 254.078125 C 335.546875 255.164062 336.960938 256.492188 338.210938 258.046875 C 339.488281 259.636719 340.484375 261.316406 341.191406 263.007812 C 341.914062 264.742188 342.339844 266.492188 342.445312 268.164062 C 342.554688 269.878906 342.328125 271.515625 341.75 272.957031 C 341.15625 274.433594 340.191406 275.703125 338.847656 276.644531 C 337.464844 277.601562 335.832031 278.113281 334.058594 278.207031 C 332.273438 278.304688 330.363281 277.976562 328.464844 277.261719 C 326.5625 276.550781 324.691406 275.460938 322.96875 274.050781 C 321.269531 272.65625 319.734375 270.960938 318.480469 269.023438 C 317.25 267.125 316.417969 265.191406 315.957031 263.324219 C 315.507812 261.507812 315.410156 259.757812 315.644531 258.175781 C 315.871094 256.636719 316.410156 255.25 317.238281 254.097656 C 318.050781 252.972656 319.136719 252.070312 320.492188 251.464844 Z M 320.492188 251.464844 " fill-opacity="1" fill-rule="nonzero"/><path fill="#000000" d="M 280.765625 245.171875 C 281.875 244.816406 283.023438 244.589844 284.191406 244.488281 C 285.347656 244.386719 286.519531 244.414062 287.6875 244.5625 C 288.851562 244.714844 290.011719 244.992188 291.140625 245.398438 C 292.273438 245.804688 293.378906 246.339844 294.4375 247.015625 C 296.039062 248.035156 297.390625 249.28125 298.464844 250.671875 C 299.558594 252.085938 300.375 253.660156 300.882812 255.308594 C 301.402344 256.992188 301.601562 258.765625 301.4375 260.53125 C 301.265625 262.34375 300.710938 264.152344 299.722656 265.84375 C 299.382812 266.425781 299.003906 266.972656 298.589844 267.484375 C 298.171875 268.003906 297.714844 268.484375 297.226562 268.933594 C 296.734375 269.382812 296.210938 269.796875 295.65625 270.171875 C 295.101562 270.550781 294.515625 270.890625 293.90625 271.1875 C 292.691406 271.78125 291.382812 272.210938 290.019531 272.464844 C 288.644531 272.722656 287.222656 272.796875 285.792969 272.683594 C 284.355469 272.566406 282.917969 272.261719 281.523438 271.757812 C 280.128906 271.253906 278.78125 270.554688 277.527344 269.65625 C 275.652344 268.316406 274.179688 266.675781 273.125 264.875 C 272.09375 263.105469 271.472656 261.195312 271.265625 259.277344 C 271.066406 257.402344 271.261719 255.527344 271.847656 253.761719 C 272.417969 252.042969 273.359375 250.429688 274.667969 249.019531 C 275.097656 248.554688 275.554688 248.125 276.035156 247.730469 C 276.511719 247.339844 277.007812 246.984375 277.523438 246.664062 C 278.035156 246.347656 278.5625 246.066406 279.109375 245.816406 C 279.648438 245.566406 280.203125 245.351562 280.765625 245.171875 Z M 280.765625 245.171875 " fill-opacity="1" fill-rule="nonzero"/><path fill="#000000" d="M 236.863281 214.492188 C 237.246094 214.441406 237.632812 214.40625 238.019531 214.382812 C 238.40625 214.359375 238.796875 214.347656 239.1875 214.355469 C 239.578125 214.359375 239.964844 214.378906 240.355469 214.410156 C 240.742188 214.445312 241.128906 214.492188 241.511719 214.558594 C 242.710938 214.757812 243.773438 215.089844 244.667969 215.527344 C 245.566406 215.960938 246.300781 216.5 246.84375 217.105469 C 247.390625 217.71875 247.746094 218.402344 247.875 219.128906 C 248.003906 219.863281 247.902344 220.644531 247.527344 221.429688 C 247.269531 221.976562 246.898438 222.488281 246.433594 222.964844 C 245.960938 223.445312 245.394531 223.886719 244.75 224.28125 C 244.101562 224.679688 243.375 225.027344 242.589844 225.316406 C 241.796875 225.605469 240.949219 225.835938 240.066406 226 C 239.652344 226.074219 239.230469 226.136719 238.804688 226.179688 C 238.378906 226.222656 237.945312 226.25 237.511719 226.261719 C 237.078125 226.273438 236.640625 226.265625 236.203125 226.238281 C 235.765625 226.214844 235.328125 226.167969 234.894531 226.105469 C 233.523438 225.90625 232.324219 225.53125 231.328125 225.03125 C 230.339844 224.53125 229.558594 223.90625 229.027344 223.203125 C 228.496094 222.503906 228.210938 221.734375 228.199219 220.929688 C 228.1875 220.136719 228.441406 219.320312 228.984375 218.519531 C 229.347656 217.980469 229.820312 217.484375 230.378906 217.035156 C 230.925781 216.59375 231.558594 216.195312 232.25 215.855469 C 232.933594 215.515625 233.675781 215.230469 234.453125 215 C 235.226562 214.773438 236.035156 214.601562 236.863281 214.492188 Z M 236.863281 214.492188 " fill-opacity="1" fill-rule="nonzero"/><path fill="#000000" d="M 231.902344 245.046875 C 232.292969 244.945312 232.691406 244.863281 233.085938 244.800781 C 233.484375 244.734375 233.878906 244.691406 234.277344 244.664062 C 234.671875 244.636719 235.066406 244.628906 235.457031 244.644531 C 235.851562 244.65625 236.238281 244.691406 236.621094 244.746094 C 237.75 244.90625 238.734375 245.242188 239.550781 245.703125 C 240.367188 246.167969 241.019531 246.769531 241.480469 247.460938 C 241.945312 248.164062 242.21875 248.964844 242.269531 249.828125 C 242.320312 250.703125 242.148438 251.640625 241.710938 252.613281 C 241.421875 253.257812 241.035156 253.878906 240.5625 254.460938 C 240.089844 255.046875 239.53125 255.597656 238.910156 256.097656 C 238.28125 256.601562 237.585938 257.054688 236.847656 257.449219 C 236.101562 257.84375 235.304688 258.175781 234.484375 258.433594 C 234.0625 258.566406 233.632812 258.679688 233.199219 258.769531 C 232.765625 258.863281 232.328125 258.933594 231.886719 258.980469 C 231.445312 259.027344 231.003906 259.050781 230.566406 259.050781 C 230.125 259.050781 229.6875 259.023438 229.253906 258.96875 C 227.976562 258.816406 226.875 258.445312 225.980469 257.910156 C 225.089844 257.375 224.410156 256.679688 223.972656 255.875 C 223.535156 255.078125 223.335938 254.175781 223.394531 253.222656 C 223.457031 252.28125 223.769531 251.289062 224.351562 250.300781 C 224.734375 249.65625 225.210938 249.050781 225.753906 248.492188 C 226.292969 247.941406 226.902344 247.4375 227.5625 246.992188 C 228.214844 246.546875 228.917969 246.160156 229.648438 245.832031 C 230.375 245.507812 231.132812 245.242188 231.902344 245.046875 Z M 231.902344 245.046875 " fill-opacity="1" fill-rule="nonzero"/><path fill="#000000" d="M 269.871094 296.742188 C 269.871094 297.511719 269.792969 298.269531 269.644531 299.023438 C 269.496094 299.773438 269.273438 300.503906 268.980469 301.214844 C 268.683594 301.921875 268.324219 302.597656 267.898438 303.234375 C 267.46875 303.871094 266.984375 304.460938 266.441406 305.003906 C 265.898438 305.546875 265.304688 306.03125 264.667969 306.457031 C 264.027344 306.882812 263.351562 307.246094 262.644531 307.539062 C 261.933594 307.832031 261.199219 308.054688 260.449219 308.203125 C 259.695312 308.351562 258.933594 308.429688 258.164062 308.429688 C 257.394531 308.429688 256.632812 308.351562 255.878906 308.203125 C 255.125 308.054688 254.394531 307.832031 253.683594 307.539062 C 252.972656 307.246094 252.300781 306.882812 251.660156 306.457031 C 251.019531 306.03125 250.429688 305.546875 249.886719 305.003906 C 249.34375 304.460938 248.855469 303.871094 248.429688 303.234375 C 248.003906 302.597656 247.640625 301.921875 247.347656 301.214844 C 247.054688 300.503906 246.832031 299.773438 246.683594 299.023438 C 246.53125 298.269531 246.457031 297.511719 246.457031 296.742188 C 246.457031 295.976562 246.53125 295.214844 246.683594 294.464844 C 246.832031 293.710938 247.054688 292.980469 247.347656 292.269531 C 247.640625 291.5625 248.003906 290.890625 248.429688 290.25 C 248.855469 289.613281 249.34375 289.023438 249.886719 288.480469 C 250.429688 287.9375 251.019531 287.453125 251.660156 287.027344 C 252.300781 286.601562 252.972656 286.242188 253.683594 285.945312 C 254.394531 285.652344 255.125 285.433594 255.878906 285.28125 C 256.632812 285.132812 257.394531 285.058594 258.164062 285.058594 C 258.933594 285.058594 259.695312 285.132812 260.449219 285.28125 C 261.199219 285.433594 261.933594 285.652344 262.644531 285.945312 C 263.351562 286.242188 264.027344 286.601562 264.667969 287.027344 C 265.304688 287.453125 265.898438 287.9375 266.441406 288.480469 C 266.984375 289.023438 267.46875 289.613281 267.898438 290.25 C 268.324219 290.890625 268.683594 291.5625 268.980469 292.269531 C 269.273438 292.980469 269.496094 293.710938 269.644531 294.464844 C 269.792969 295.214844 269.871094 295.976562 269.871094 296.742188 Z M 269.871094 296.742188 " fill-opacity="1" fill-rule="nonzero"/><path fill="#000000" d="M 350.40625 291.324219 C 350.890625 291.03125 351.414062 290.800781 351.96875 290.640625 C 352.523438 290.480469 353.101562 290.390625 353.703125 290.371094 C 354.304688 290.351562 354.917969 290.398438 355.546875 290.519531 C 356.171875 290.640625 356.796875 290.828125 357.421875 291.082031 C 358.046875 291.339844 358.660156 291.660156 359.261719 292.039062 C 359.863281 292.421875 360.441406 292.859375 360.996094 293.355469 C 361.550781 293.847656 362.070312 294.390625 362.554688 294.976562 C 363.042969 295.5625 363.484375 296.183594 363.882812 296.839844 C 364.28125 297.496094 364.625 298.175781 364.921875 298.875 C 365.21875 299.578125 365.457031 300.285156 365.636719 301.003906 C 365.820312 301.722656 365.941406 302.4375 366 303.148438 C 366.0625 303.855469 366.058594 304.546875 365.996094 305.21875 C 365.933594 305.890625 365.8125 306.53125 365.628906 307.140625 C 365.445312 307.75 365.203125 308.316406 364.90625 308.839844 C 364.609375 309.363281 364.261719 309.832031 363.859375 310.25 C 363.460938 310.664062 363.019531 311.019531 362.53125 311.316406 C 362.042969 311.609375 361.523438 311.835938 360.96875 311.996094 C 360.414062 312.15625 359.835938 312.25 359.230469 312.269531 C 358.628906 312.289062 358.015625 312.242188 357.390625 312.121094 C 356.765625 312 356.136719 311.8125 355.511719 311.554688 C 354.886719 311.300781 354.273438 310.980469 353.671875 310.597656 C 353.070312 310.214844 352.492188 309.777344 351.9375 309.285156 C 351.382812 308.792969 350.863281 308.25 350.378906 307.664062 C 349.894531 307.078125 349.453125 306.457031 349.054688 305.800781 C 348.65625 305.144531 348.308594 304.464844 348.011719 303.765625 C 347.71875 303.0625 347.480469 302.355469 347.296875 301.632812 C 347.117188 300.914062 346.996094 300.203125 346.933594 299.492188 C 346.875 298.785156 346.875 298.09375 346.9375 297.421875 C 347 296.75 347.125 296.109375 347.308594 295.5 C 347.492188 294.890625 347.730469 294.324219 348.027344 293.800781 C 348.328125 293.277344 348.675781 292.808594 349.074219 292.390625 C 349.472656 291.972656 349.917969 291.617188 350.40625 291.324219 Z M 350.40625 291.324219 " fill-opacity="1" fill-rule="nonzero"/><path fill="#000000" d="M 322.378906 313.734375 C 322.410156 314.511719 322.375 315.285156 322.277344 316.050781 C 322.175781 316.816406 322.015625 317.566406 321.792969 318.292969 C 321.570312 319.019531 321.289062 319.714844 320.949219 320.375 C 320.613281 321.03125 320.222656 321.648438 319.78125 322.214844 C 319.339844 322.78125 318.855469 323.289062 318.328125 323.742188 C 317.800781 324.195312 317.238281 324.582031 316.648438 324.902344 C 316.054688 325.222656 315.441406 325.46875 314.804688 325.644531 C 314.167969 325.820312 313.523438 325.921875 312.871094 325.945312 C 312.214844 325.972656 311.566406 325.917969 310.917969 325.792969 C 310.269531 325.664062 309.640625 325.464844 309.023438 325.1875 C 308.410156 324.914062 307.820312 324.570312 307.261719 324.160156 C 306.703125 323.75 306.179688 323.277344 305.695312 322.746094 C 305.214844 322.214844 304.777344 321.632812 304.390625 321 C 304.003906 320.367188 303.667969 319.695312 303.390625 318.988281 C 303.113281 318.28125 302.898438 317.546875 302.742188 316.789062 C 302.585938 316.03125 302.492188 315.265625 302.460938 314.488281 C 302.433594 313.710938 302.46875 312.9375 302.566406 312.171875 C 302.664062 311.40625 302.824219 310.660156 303.046875 309.929688 C 303.269531 309.203125 303.550781 308.511719 303.890625 307.851562 C 304.230469 307.191406 304.621094 306.578125 305.0625 306.011719 C 305.503906 305.441406 305.988281 304.933594 306.515625 304.480469 C 307.042969 304.027344 307.601562 303.644531 308.195312 303.324219 C 308.789062 303.003906 309.402344 302.753906 310.039062 302.578125 C 310.671875 302.402344 311.316406 302.300781 311.972656 302.277344 C 312.625 302.253906 313.277344 302.304688 313.921875 302.429688 C 314.570312 302.558594 315.203125 302.757812 315.816406 303.035156 C 316.433594 303.308594 317.019531 303.652344 317.582031 304.0625 C 318.140625 304.472656 318.660156 304.945312 319.144531 305.476562 C 319.628906 306.007812 320.0625 306.589844 320.453125 307.222656 C 320.839844 307.855469 321.171875 308.527344 321.449219 309.234375 C 321.726562 309.941406 321.945312 310.675781 322.101562 311.433594 C 322.257812 312.191406 322.351562 312.957031 322.378906 313.734375 Z M 322.378906 313.734375 " fill-opacity="1" fill-rule="nonzero"/></svg>