<?xml version="1.0" encoding="UTF-8"?>
<svg id="Layer_1" data-name="Layer 1" xmlns="http://www.w3.org/2000/svg" viewBox="0 0 1024 1024">
  <defs>
    <style>
      .cls-1 {
        fill: #2290f1;
      }

      .cls-1, .cls-2 {
        stroke-width: 0px;
      }

      .cls-3 {
        font-family: Bahnschrift-SemiBold, Bahnschrift;
        font-size: 101.39px;
        font-variation-settings: 'wght' 600, 'wdth' 100;
        font-weight: 600;
      }

      .cls-3, .cls-2 {
        fill: #fff;
      }
    </style>
  </defs>
  <g>
    <g>
      <circle class="cls-1" cx="512" cy="512" r="512"/>
      <g>
        <g>
          <rect class="cls-2" x="206.63" y="294.91" width="304.77" height="95.07" rx="47.54" ry="47.54" transform="translate(-136.99 354.16) rotate(-45)"/>
          <rect class="cls-2" x="341.08" y="429.36" width="304.77" height="95.07" rx="47.54" ry="47.54" transform="translate(-192.68 488.61) rotate(-45)"/>
          <rect class="cls-2" x="475.53" y="563.81" width="304.77" height="95.07" rx="47.54" ry="47.54" transform="translate(-248.37 623.06) rotate(-45)"/>
        </g>
        <circle class="cls-2" cx="283.18" cy="555.05" r="49.18"/>
        <circle class="cls-2" cx="416.47" cy="688.34" r="49.18"/>
      </g>
    </g>
    <text class="cls-3" transform="translate(169.24 752.03) rotate(54.43)"><tspan x="0" y="0">EXAADO INDICATORS</tspan></text>
  </g>
  <g>
    <path class="cls-2" d="m675.03,277.84c-2.53,0-4.71.38-6.66-.11-1.85-.46-4.18-1.45-4.99-2.93-.69-1.27-.11-4.03.93-5.3,7.24-8.89,14.7-17.6,22.19-26.28,2.52-2.92,5.54-2.89,8.1.08,7.49,8.68,14.95,17.4,22.18,26.29,1.02,1.25,1.48,3.93.83,5.31-.65,1.39-2.9,2.43-4.63,2.82-2.1.48-4.4.11-6.81.11v25.53c1.12-.34,1.95-.52,2.73-.84,5.83-2.4,11.67-4.78,17.45-7.29,1.09-.47,2.31-1.29,2.86-2.29,6.05-11.01,5.82-22.91,4.85-35.45-2.45,0-4.8.15-7.12-.03-4.41-.34-6.4-4.52-3.58-7.94,7.47-9.04,15.09-17.96,22.78-26.81,2.33-2.68,5.18-2.67,7.53.03,7.69,8.85,15.32,17.77,22.78,26.82,2.81,3.41.76,7.58-3.66,7.91-2.32.17-4.66.03-7.09.03-.9,12.56-1.2,24.47,4.84,35.51.36.66.82,1.51,1.44,1.76,7.05,2.79,14.14,5.49,21.49,8.32v-65.68c-2.29,0-4.58.37-6.68-.11-1.73-.4-3.98-1.44-4.64-2.84-.65-1.38-.19-4.06.83-5.31,7.32-8.99,14.86-17.81,22.45-26.58,2.38-2.75,5.38-2.65,7.82.18,7.49,8.68,14.95,17.39,22.2,26.28,1.04,1.28,1.64,4.03.96,5.31-.79,1.49-3.12,2.5-4.97,2.98-1.95.5-4.12.11-6.43.11-.11,1.39-.25,2.41-.25,3.42-.05,23.33-.13,46.66-.04,70,0,1.3,1.09,2.89,2.13,3.83,2.31,2.08,3.07,4.3,1.33,6.95-4.98,7.56-5.78,15.08-.09,22.66.3.41.52.95.58,1.46,1,8.19,6.26,12.06,13.79,13.66,4.27.91,6.2,3.34,5.6,7.89-.36,2.72-.11,5.53-.06,8.3.06,2.79-1.29,4.21-4.03,4.21-18.45.02-36.9.07-55.35-.12-1.32-.01-3.47-1.7-3.74-2.94-.54-2.47,1.52-3.28,3.77-3.28.64,0,1.29-.08,3-.2-1.25-4.98-2.42-9.67-3.59-14.35-3.1.41-5.76,3.95-7.93.28-2.13-3.61,1.97-4.4,4.6-7.02-3.51-3.49-6.89-6.85-10.46-10.4-2.57,2.6-3.42,6.66-6.98,4.58-3.44-2.01-.62-4.58.47-7.72-4.76-1.32-9.42-2.61-12.81-3.55-2.11,2.85-3.56,4.81-5.01,6.77-1.49-1.9-2.98-3.8-4.47-5.7.23-.46.46-.91.7-1.37-4.6,1.21-9.21,2.42-14.04,3.69.65,3.07,4.13,6.18.05,7.84-1.49.61-4.15-1.66-6.27-2.61l-.59-1.83c-3.25,3.5-6.49,6.99-9.86,10.62,2.1,2.29,6.28,3.04,4.23,6.63-2.1,3.69-4.81.41-7.85-.36-1.27,4.73-2.5,9.34-3.85,14.37,1.96.19,3.31-.05,4.19.49,1.16.71,2.57,1.95,2.72,3.11.11.88-1.44,2.19-2.51,2.92-.64.44-1.79.18-2.71.18-17.4,0-34.79.01-52.19,0-5.03,0-5.77-.68-5.67-5.71.31-15.46-2.68-11.23,11.72-17,3.03-1.21,4.82-2.64,5.85-6,1.6-5.25,4.28-10.16,6.3-15.3.5-1.28.65-3.04.2-4.3-1.25-3.46-2.8-6.82-4.43-10.12-1.24-2.51-1.08-4.63,1.21-6.27,2.35-1.68,2.5-3.87,2.45-6.53-.19-8.7-.07-17.4-.07-26.1,0-1.41,0-2.82,0-4.62Zm166.34,95.59q.61-7.42-5.66-9.84c-1.84-.71-3.66-1.5-5.55-2.07-2.64-.8-3.94-2.4-4.79-5.13-1.63-5.26-3.23-10.71-6.02-15.38-3.07-5.13-3.14-9.36-.41-14.57,3.71-7.09,3.38-7.27-2.38-13.01-2.99-2.97-5.68-7.71-9.12-8.35-3.58-.66-7.81,2.91-11.91,4.12-1.88.55-4.32.38-6.16-.33-5.38-2.08-10.41-5.36-15.93-6.75-5.59-1.4-8.31-4.29-10.02-9.54-2.56-7.85-2.86-7.79-11.07-7.74-4.33.03-9.62-1.27-12.72.75-2.88,1.87-3.17,7.48-5.13,11.16-.91,1.71-2.85,3.23-4.68,4.04-5.16,2.29-10.89,3.51-15.66,6.39-5.04,3.04-9.11,2.96-14.17.33-7.26-3.76-7.45-3.45-13.3,2.45-2.96,2.99-7.58,5.7-8.28,9.17-.69,3.42,2.62,7.65,4.17,11.53.05.12.13.25.13.37-.09,1.97.3,4.13-.37,5.88-2.52,6.62-5.6,13.03-8.01,19.68-.91,2.53-2.13,3.98-4.57,4.84-3.84,1.35-7.61,2.91-11.45,4.39v7.3h43.5c.21-1.13.42-2.02.54-2.92,2.85-22.63,22.06-40.46,44.88-41.66,22.94-1.2,43.92,14.33,49.25,36.45.66,2.75.53,6.61,2.28,7.92,1.88,1.41,5.56.47,8.45.47,11.31.02,22.62,0,34.15,0Zm-32.12-165.64c-6.64,7.83-12.87,15.19-19.58,23.1,1.72.09,2.48.15,3.24.16q7.28.11,7.28,7.25c0,18.99,0,37.97,0,56.96,0,1.49,0,2.98,0,4.96,1.72-.74,2.74-1.05,3.61-1.58,3.36-2.04,6.15-1.64,8.55,1.6,1.46,1.98,3.14,3.79,4.73,5.68.37-.25.74-.51,1.11-.76.06-1.27.18-2.54.18-3.81.02-7.38,0-14.77,0-22.15,0-14.24-.02-28.48,0-42.72,0-4.87.57-5.38,5.49-5.41,1.38,0,2.77,0,5.1,0-6.87-8.11-13.13-15.48-19.73-23.27Zm-138.44,63.7c2.13,0,3.3,0,4.46,0,5.74.02,6.12.37,6.13,5.99.02,8.17,0,16.35.02,24.52,0,1.07.17,2.15.31,3.78,5.43-4.45,8.94-12.91,17.54-5.2.16-1.92.31-2.94.31-3.96.02-6.46,0-12.92.02-19.38.02-5.14.61-5.72,5.61-5.75,1.38,0,2.75,0,5.05,0-6.93-8.16-13.18-15.53-19.73-23.23-6.53,7.69-12.8,15.07-19.72,23.23Zm88.17,6.79c0-6.8,0-13.11,0-19.42q0-7.52,7.31-7.7c.74-.02,1.48-.13,3.02-.26-6.66-7.84-12.89-15.18-19.42-22.87-6.58,7.75-12.81,15.1-19.63,23.14,2.49,0,3.92.08,5.34-.02,3.66-.25,5.41,1.29,5.23,5.08-.15,3.03-.03,6.06-.03,9.1,0,4.28,0,8.56,0,12.95h18.18Z"/>
    <path class="cls-2" d="m750.5,366.43c.37.05,1.36-.13,1.9.29,4.21,3.26,7.47.58,10.87-1.55,1.78-1.12,3.63-2.13,5.47-3.17,2.11-1.2,4.49-2.67,6.13.27,1.48,2.67-.7,4.01-2.77,5.15-1.96,1.08-3.84,2.3-5.82,3.34-3.49,1.83-6.36,3.51-6.81,8.43-.48,5.27-6.13,8.3-11.28,7.36-5.2-.95-8.92-5.67-8.48-10.75.46-5.39,4.96-9.45,10.8-9.36Zm-.79,4.78c-1.69,2.5-3.56,4.05-3.4,5.34.17,1.38,2.1,3.31,3.54,3.6,2.32.46,4.13-1.44,3.71-3.79-.27-1.51-1.99-2.77-3.86-5.15Z"/>
  </g>
</svg>