<?xml version="1.0" encoding="UTF-8"?>
<svg id="Layer_1" data-name="Layer 1" xmlns="http://www.w3.org/2000/svg" viewBox="0 0 1024 1024">
  <defs>
    <style>
      .cls-1 {
        font-family: Bahnschrift-SemiBold, Bahnschrift;
        font-size: 101.39px;
        font-variation-settings: 'wght' 600, 'wdth' 100;
        font-weight: 600;
      }

      .cls-1, .cls-2 {
        fill: #fff;
      }

      .cls-2, .cls-3 {
        stroke-width: 0px;
      }

      .cls-3 {
        fill: #024882;
      }
    </style>
  </defs>
  <g>
    <g>
      <circle class="cls-3" cx="512" cy="512" r="512"/>
      <g>
        <g>
          <rect class="cls-2" x="206.63" y="294.91" width="304.77" height="95.07" rx="47.54" ry="47.54" transform="translate(-136.99 354.16) rotate(-45)"/>
          <rect class="cls-2" x="341.08" y="429.36" width="304.77" height="95.07" rx="47.54" ry="47.54" transform="translate(-192.68 488.61) rotate(-45)"/>
          <rect class="cls-2" x="475.53" y="563.81" width="304.77" height="95.07" rx="47.54" ry="47.54" transform="translate(-248.37 623.06) rotate(-45)"/>
        </g>
        <circle class="cls-2" cx="283.18" cy="555.05" r="49.18"/>
        <circle class="cls-2" cx="416.47" cy="688.34" r="49.18"/>
      </g>
    </g>
    <text class="cls-1" transform="translate(249.3 847) rotate(36.68)"><tspan x="0" y="0">EXAADO VIP</tspan></text>
  </g>
  <g>
    <g>
      <path class="cls-2" d="m810.04,258.93c-16.88-5.34-33.79-10.63-50.65-16.1-1.78-.58-3.64-1.93-4.75-3.43-10.33-14.27-20.51-28.63-30.74-42.97-4.51-6.33-8.01-6.35-12.47-.13-10.22,14.34-20.4,28.72-30.74,42.97-1.17,1.6-3.16,3.01-5.06,3.61-16.84,5.48-33.77,10.75-50.65,16.1-6.78,2.15-7.89,5.67-3.61,11.44,10.47,14.16,21.02,28.27,31.35,42.52,1.31,1.8,2.05,4.39,2.12,6.63.24,8.73.1,17.49.1,26.23h-.56v26.23c-.01,7.38,2.94,9.49,10,7.13,16.32-5.47,32.64-10.88,48.91-16.48,2.95-1.01,5.57-1.08,8.55-.06,16.39,5.62,32.84,11.09,49.27,16.59,6.79,2.28,9.84.1,9.78-7.03-.16-17.61-.44-35.24-.46-52.86,0-2.11.79-4.57,2.04-6.27,10.35-14.25,20.87-28.37,31.35-42.54,4.44-5.97,3.32-9.38-3.75-11.61Zm-106.57,22.74c-3.44,9.26-6.99,18.47-10.4,27.73-1.07,2.9-2.69,5.09-6,5.02-3.12-.06-4.67-2.22-5.68-4.95-3.43-9.26-6.93-18.49-10.35-27.75-1.57-4.29-.41-7.52,2.94-8.65,3.28-1.11,6,.49,7.59,4.57,1.83,4.65,3.56,9.33,5.65,14.84,2.08-5.5,3.82-10.16,5.64-14.8,1.65-4.25,4.6-5.88,7.94-4.48,3.13,1.31,4.17,4.43,2.67,8.46Zm19.75,26.46c-.04,3.91-2.42,6.41-5.69,6.35-3.28-.07-5.43-2.53-5.51-6.54-.08-4.88-.01-9.74-.01-14.62-.01-4.61-.07-9.22.01-13.85.06-4.39,2.11-6.71,5.71-6.65,3.44.06,5.47,2.28,5.5,6.45.07,9.62.07,19.23,0,28.85Zm28.83-8.94c-3.05.11-6.13.01-9.76.01,0,3.39.07,6.2-.01,9.01-.11,3.7-2.28,6.13-5.44,6.27-3.29.14-5.88-2.38-5.92-6.21-.11-9.77-.11-19.54,0-29.31.06-4.08,2.22-6.07,6.31-6.14,4.89-.08,9.77-.11,14.66.03,7.62.21,13.17,5.9,13.1,13.28-.06,7.23-5.51,12.78-12.95,13.06Z"/>
      <ellipse class="cls-2" cx="719.81" cy="298.77" rx="60.7" ry="39.23"/>
    </g>
    <g>
      <path class="cls-3" d="m745.3,302.85c0,3.79.07,6.95-.02,10.1-.12,4.16-2.55,6.88-6.11,7.03-3.69.16-6.59-2.65-6.64-6.97-.12-10.95-.13-21.91,0-32.86.06-4.57,2.49-6.81,7.08-6.89,5.47-.09,10.96-.13,16.43.02,8.55.24,14.77,6.63,14.7,14.9-.07,8.11-6.19,14.33-14.52,14.65-3.43.13-6.87.02-10.93.02Zm.46-12.73c3.37,0,6.64.13,9.89-.09.81-.06,1.54-1.29,2.31-1.98-.78-.68-1.49-1.86-2.34-1.96-2.4-.29-4.85-.05-7.27-.19-2.83-.17-3.55,1.09-2.59,4.22Z"/>
      <path class="cls-3" d="m683.53,295.32c2.34-6.16,4.3-11.39,6.33-16.6,1.85-4.75,5.15-6.58,8.91-5.02,3.51,1.46,4.69,4.96,3,9.49-3.86,10.37-7.83,20.7-11.66,31.09-1.2,3.25-3.02,5.71-6.73,5.63-3.5-.07-5.24-2.49-6.38-5.55-3.84-10.38-7.77-20.73-11.6-31.11-1.77-4.81-.48-8.43,3.29-9.71,3.67-1.24,6.74.56,8.53,5.14,2.03,5.22,3.98,10.47,6.32,16.64Z"/>
      <path class="cls-3" d="m711.32,296.26c0-5.18-.06-10.35.02-15.53.08-4.93,2.37-7.52,6.39-7.46,3.87.06,6.14,2.55,6.18,7.24.08,10.78.08,21.56,0,32.34-.04,4.38-2.71,7.18-6.38,7.12-3.67-.07-6.11-2.84-6.18-7.33-.09-5.46-.02-10.92-.02-16.39Z"/>
    </g>
  </g>
</svg>