<?xml version="1.0" encoding="UTF-8"?>
<svg id="Layer_1" data-name="Layer 1" xmlns="http://www.w3.org/2000/svg" viewBox="0 0 1024 1024">
  <defs>
    <style>
      .cls-1 {
        fill: #2290f1;
      }

      .cls-1, .cls-2 {
        stroke-width: 0px;
      }

      .cls-3 {
        font-family: Bahnschrift-SemiBold, Bahnschrift;
        font-size: 101.39px;
        font-variation-settings: 'wght' 600, 'wdth' 100;
        font-weight: 600;
      }

      .cls-3, .cls-2 {
        fill: #fff;
      }
    </style>
  </defs>
  <g>
    <circle class="cls-1" cx="512" cy="512" r="512"/>
    <g>
      <g>
        <rect class="cls-2" x="206.63" y="294.91" width="304.77" height="95.07" rx="47.54" ry="47.54" transform="translate(-136.99 354.16) rotate(-45)"/>
        <rect class="cls-2" x="341.08" y="429.36" width="304.77" height="95.07" rx="47.54" ry="47.54" transform="translate(-192.68 488.61) rotate(-45)"/>
        <rect class="cls-2" x="475.53" y="563.81" width="304.77" height="95.07" rx="47.54" ry="47.54" transform="translate(-248.37 623.06) rotate(-45)"/>
      </g>
      <circle class="cls-2" cx="283.18" cy="555.05" r="49.18"/>
      <circle class="cls-2" cx="416.47" cy="688.34" r="49.18"/>
    </g>
    <g>
      <path class="cls-2" d="m806.87,221.2c0-4.71-.04-9.53.01-14.35.05-4.53,1.82-6.77,5.28-6.84,3.45-.07,5.43,2.21,5.51,6.63.09,4.82.02,9.65.02,14.45,2.54.89,4.96,1.37,7,2.52,5.06,2.84,7.09,7.39,7.08,13.16-.06,29.18-.03,58.37-.03,87.55,0,5.84.03,11.67-.01,17.51-.07,8.55-3.69,12.99-12.13,15.01-.54.13-1.05.37-1.91.69,0,4.79.06,9.62-.02,14.43-.07,4.4-2.03,6.78-5.39,6.8-3.38.01-5.36-2.38-5.41-6.74-.06-4.83-.01-9.66-.01-14.4-2.52-.88-4.94-1.39-7.01-2.51-5.31-2.89-7.15-7.71-7.14-13.57.06-21.78.02-43.56.02-65.34,0-12.1,0-24.2,0-36.3,0-11.99,2.37-15.19,14.13-18.69Z"/>
      <path class="cls-2" d="m661.53,351.65c0,5.97,0,11.66,0,17.34,0,3.55-1.24,6.2-5.22,6.45-3.45.22-5.51-2.15-5.58-6.52-.09-5.68-.02-11.36-.02-17.17-1.44-.4-2.64-.72-3.83-1.06-6.23-1.82-10.15-6.61-10.17-13.15-.08-33.17-.08-66.34,0-99.51.02-6.74,4.02-11.55,10.5-13.31,1.07-.29,2.14-.58,3.49-.94,0-5.23,0-10.34,0-15.45.01-5.86,1.72-8.41,5.54-8.33,3.7.08,5.28,2.49,5.29,8.13,0,5.12,0,10.23,0,15.65,1.01.27,1.91.53,2.83.76,7.05,1.77,11.01,6.38,11.23,13.64.2,6.54.07,13.1.07,19.64,0,25.48,0,50.96,0,76.45,0,10.76-3.21,14.77-14.12,17.38Z"/>
      <path class="cls-2" d="m754.8,273.01c0-1.61,0-3.3,0-4.98.03-5.29,1.96-8.08,5.52-8.01,3.52.07,5.3,2.81,5.33,8.21,0,1.56,0,3.11,0,4.93,1.2.26,2.26.45,3.3.72,6.42,1.69,10.64,6.6,10.67,13.22.1,27.04.12,54.07-.02,81.11-.04,7.43-4.59,11.77-13.96,13.75,0,1.92.03,3.99,0,6.06-.09,4.72-1.99,7.11-5.55,7.03-3.43-.08-5.19-2.35-5.29-6.86-.04-1.98,0-3.97,0-6.14-1.11-.28-2.04-.53-2.97-.74-6.4-1.41-10.95-6.32-10.98-12.91-.14-27.18-.16-54.36,0-81.53.04-7.39,4.4-11.41,13.95-13.87Z"/>
      <path class="cls-2" d="m713.59,333.3c0,3.4.03,6.64,0,9.89-.05,3.46-1.66,5.76-5.22,6.11-3.13.31-5.43-2.28-5.58-6.16-.12-3.24-.02-6.49-.02-9.05-3.6-1.8-6.87-2.91-9.5-4.88-3.49-2.62-4.59-6.62-4.58-10.99.06-14.79.02-29.59.02-44.38,0-11.79,2.4-15.04,14.05-18.43,0-3.07-.08-6.3.02-9.52.13-3.89,2.35-6.39,5.45-6.36,3.11.04,5.24,2.54,5.35,6.46.09,3.12.02,6.24.02,9.46,1.16.33,2.08.63,3.02.86,6.75,1.66,10.91,6.37,10.97,13.34.16,16.5.17,33,0,49.5-.08,7.8-4.36,12.01-14,14.16Z"/>
    </g>
  </g>
  <text class="cls-3" transform="translate(111.76 561.93) rotate(83.25)"><tspan x="0" y="0">EXAADO AUTO TRADING</tspan></text>
</svg>