<?xml version="1.0" encoding="UTF-8"?>
<svg id="Layer_1" data-name="Layer 1" xmlns="http://www.w3.org/2000/svg" viewBox="0 0 1024 1024">
  <defs>
    <style>
      .cls-1 {
        fill: #2290f1;
      }

      .cls-1, .cls-2 {
        stroke-width: 0px;
      }

      .cls-3 {
        font-family: Bahnschrift-SemiBold, Bahnschrift;
        font-size: 101.39px;
        font-variation-settings: 'wght' 600, 'wdth' 100;
        font-weight: 600;
      }

      .cls-3, .cls-2 {
        fill: #fff;
      }
    </style>
  </defs>
  <g>
    <g>
      <circle class="cls-1" cx="512" cy="512" r="512"/>
      <g>
        <g>
          <rect class="cls-2" x="206.63" y="294.91" width="304.77" height="95.07" rx="47.54" ry="47.54" transform="translate(-136.99 354.16) rotate(-45)"/>
          <rect class="cls-2" x="341.08" y="429.36" width="304.77" height="95.07" rx="47.54" ry="47.54" transform="translate(-192.68 488.61) rotate(-45)"/>
          <rect class="cls-2" x="475.53" y="563.81" width="304.77" height="95.07" rx="47.54" ry="47.54" transform="translate(-248.37 623.06) rotate(-45)"/>
        </g>
        <circle class="cls-2" cx="283.18" cy="555.05" r="49.18"/>
        <circle class="cls-2" cx="416.47" cy="688.34" r="49.18"/>
      </g>
    </g>
    <text class="cls-3" transform="translate(191.84 785.38) rotate(48.69)"><tspan x="0" y="0">EXAADO NEWS</tspan></text>
  </g>
  <path class="cls-2" d="m822.03,248.51c0-8.13-3.24-11.39-11.31-11.43-7.89-.02-15.8,0-23.79,0-.28-.8-.43-1.06-.45-1.3-.02-10.56-.05-21.11-.07-31.65-.02-13.28-7.01-20.36-20.24-20.38-33.87-.02-67.74-.02-101.61,0-13.27.02-20.45,7.11-20.45,20.26-.02,42.89-.02,85.79,0,128.68.02,17.69,11.22,28.98,28.8,29,40.13.02,80.24.02,120.35,0,17.39-.02,28.74-11.31,28.75-28.65.05-28.16.02-56.34,0-84.52Zm-137.33-29.08c4.42-.09,8.86-.02,13.3-.02,4.14,0,8.31-.07,12.47.02,5.32.12,9.16,3.78,9.24,8.69.1,5.1-3.71,8.86-9.35,8.93-8.58.09-17.17.1-25.75,0-5.57-.07-9.1-3.54-9.17-8.62-.07-5.22,3.62-8.88,9.26-9Zm66.64,109.39c-1.82,1.01-4.18,1.47-6.3,1.51-9.97.16-19.94.07-29.93.07s-19.67.03-29.52-.02c-6.49-.02-10.21-3.33-10.16-8.88.03-5.45,3.9-8.76,10.34-8.78,19.96-.02,39.9-.02,59.86.02,4.77,0,7.96,2.29,9.19,6.28,1.13,3.71-.12,7.92-3.49,9.8Zm-5.71-29.48c-20.22.05-40.46.05-60.68.02-5.05-.02-8.64-2.84-9.4-7.11-.75-4.28,1.25-8.36,5.17-9.8,1.63-.61,3.52-.71,5.29-.71,9.83-.07,19.67-.03,29.52-.03s19.94-.05,29.93.02c5.91.03,9.92,3.75,9.83,8.9-.09,5.05-4.01,8.72-9.66,8.72Zm.26-31.08c-10.27.16-20.52.05-30.76.05s-19.96.1-29.93-.02c-7.32-.1-11.72-6.07-9.19-12.23,1.54-3.73,4.58-5.57,8.5-5.57,20.52-.07,41.01-.1,61.53,0,5.39.03,9.16,3.88,9.26,8.74.09,4.99-3.8,8.95-9.4,9.02Zm58.18-8.24c0,23.97.02,47.95,0,71.93,0,9.19-2.6,11.76-11.9,11.78h-5.53v-88.5h17.43v4.79Z"/>
</svg>