<?xml version="1.0" encoding="UTF-8"?>
<svg id="Layer_1" data-name="Layer 1" xmlns="http://www.w3.org/2000/svg" viewBox="0 0 1024 1024">
  <defs>
    <style>
      .cls-1 {
        font-family: Bahnschrift-SemiBold, Bahnschrift;
        font-size: 101.39px;
        font-variation-settings: 'wght' 600, 'wdth' 100;
        font-weight: 600;
      }

      .cls-1, .cls-2 {
        fill: #fff;
      }

      .cls-2, .cls-3 {
        stroke-width: 0px;
      }

      .cls-3 {
        fill: #024882;
      }
    </style>
  </defs>
  <g>
    <circle class="cls-3" cx="512" cy="512" r="512"/>
    <g>
      <g>
        <rect class="cls-2" x="206.63" y="294.91" width="304.77" height="95.07" rx="47.54" ry="47.54" transform="translate(-136.99 354.16) rotate(-45)"/>
        <rect class="cls-2" x="341.08" y="429.36" width="304.77" height="95.07" rx="47.54" ry="47.54" transform="translate(-192.68 488.61) rotate(-45)"/>
        <rect class="cls-2" x="475.53" y="563.81" width="304.77" height="95.07" rx="47.54" ry="47.54" transform="translate(-248.37 623.06) rotate(-45)"/>
      </g>
      <circle class="cls-2" cx="283.18" cy="555.05" r="49.18"/>
      <circle class="cls-2" cx="416.47" cy="688.34" r="49.18"/>
    </g>
    <g>
      <g>
        <path class="cls-2" d="m793.64,228.16c.13,4.2-2.94,5.67-6.32,6.79-31,10.31-61.97,20.7-93.02,30.83-2.72.87-6.24.86-8.96-.03-31.05-10.14-62.02-20.53-93.02-30.83-3.23-1.08-6.2-2.44-6.27-6.42v-.1c0-4.12,3.01-5.46,6.41-6.59,31.12-10.34,62.2-20.75,93.31-31.12,1.28-.44,2.59-.76,4.05-1.18,1.34.37,2.79.71,4.19,1.16,31.1,10.39,62.2,20.8,93.32,31.14,3.28,1.09,6.2,2.4,6.32,6.35Z"/>
        <path class="cls-2" d="m754.52,300.08c-.03,1.75-1.4,3.82-2.72,5.16-33.15,33.51-90.82,33.49-123.92-.05-1.33-1.34-2.66-3.43-2.69-5.18-.22-13.62-.12-27.25-.12-41.24,2,.57,3.67.99,5.31,1.55,17.27,5.75,34.57,11.45,51.8,17.32,5.21,1.77,10.2,1.75,15.42-.02,17.64-5.97,35.31-11.79,52.96-17.64,1.24-.42,2.52-.76,4.09-1.23,0,14.05.1,27.69-.12,41.32Z"/>
      </g>
      <path class="cls-2" d="m793.69,364.27c-.02,4.71-2.27,7.01-6.93,7.06-8.1.08-16.22.08-24.33,0-4.69-.05-6.89-2.3-6.93-7.04-.05-9.04.32-18.11-.1-27.15-.49-10.54,2.89-18.53,13.1-22.8,0-18.78.12-37.42-.08-56.05-.03-3.48.98-5.11,4.34-5.78,2.47-.49,4.84-1.51,7.95-2.54v4.62c0,18.78.05,37.56-.05,56.34-.02,2.44.61,3.75,2.89,4.96,6.49,3.4,9.99,9.04,10.1,16.37.19,10.66.1,21.33.03,32.01Z"/>
    </g>
  </g>
  <text class="cls-1" transform="translate(169.31 752.14) rotate(54.41)"><tspan x="0" y="0">EXAADO ACADEMY</tspan></text>
</svg>