<?xml version="1.0" encoding="UTF-8"?>
<svg id="Layer_1" data-name="Layer 1" xmlns="http://www.w3.org/2000/svg" viewBox="0 0 1024 1024">
  <defs>
    <style>
      .cls-1 {
        font-family: Bahnschrift-SemiBold, Bahnschrift;
        font-size: 101.39px;
        font-variation-settings: 'wght' 600, 'wdth' 100;
        font-weight: 600;
      }

      .cls-1, .cls-2 {
        fill: #fff;
      }

      .cls-2, .cls-3 {
        stroke-width: 0px;
      }

      .cls-3 {
        fill: #024882;
      }
    </style>
  </defs>
  <g>
    <circle class="cls-3" cx="512" cy="512" r="512"/>
    <g>
      <g>
        <rect class="cls-2" x="206.63" y="294.91" width="304.77" height="95.07" rx="47.54" ry="47.54" transform="translate(-136.99 354.16) rotate(-45)"/>
        <rect class="cls-2" x="341.08" y="429.36" width="304.77" height="95.07" rx="47.54" ry="47.54" transform="translate(-192.68 488.61) rotate(-45)"/>
        <rect class="cls-2" x="475.53" y="563.81" width="304.77" height="95.07" rx="47.54" ry="47.54" transform="translate(-248.37 623.06) rotate(-45)"/>
      </g>
      <circle class="cls-2" cx="283.18" cy="555.05" r="49.18"/>
      <circle class="cls-2" cx="416.47" cy="688.34" r="49.18"/>
    </g>
    <g>
      <path class="cls-2" d="m742.68,355.87c-.91,6.97-2.65,8.47-9.73,8.48-4.72,0-9.45.06-14.17-.02-5.75-.1-7.85-2.55-7.81-8.87.04-5.62,2.33-7.97,7.87-8.01,7.93-.05,15.87.37,23.64-2.05,15.92-4.97,27.97-14.65,34.81-29.83,2.63-5.84,3.53-12.61,4.42-19.07,3.98-28.68-15.29-55.02-44.16-60.71-28.75-5.67-57.35,12.11-65.33,40.19-2.64,9.28-1.04,18.19.36,27.25.86,5.52,1.76,11.04,2.52,16.57.7,5.12-.6,7.05-5.46,8.58-9.33,2.94-15.99.85-21.21-7.39-7.29-11.5-8.24-23.84-2.92-36.32,2.81-6.6,8.03-10.85,15.43-12.18,1.19-.21,2.49-2.05,3-3.41,7.36-19.5,20.6-33.2,40.2-40.34,34.63-12.61,72.77,5.47,85.06,40.22.88,2.5,1.8,3.83,4.73,4.05,5.15.39,8.91,3.44,11.77,7.64,8.12,11.92,6.72,32.56-2.98,43.24-4.55,5.01-10.03,7.37-16.71,4.96-3.01-1.09-4.54-.16-6.37,2.3-8.64,11.63-20.08,19.42-33.9,23.73-1.05.33-2.1.66-3.08.97Z"/>
      <g>
        <path class="cls-2" d="m758.59,294.66c-.06,4.85-4.04,8.62-8.94,8.5-4.74-.11-8.34-3.88-8.29-8.68.05-4.77,3.73-8.48,8.48-8.52,4.83-.05,8.82,3.91,8.76,8.7Z"/>
        <path class="cls-2" d="m711.79,294.24c.15,4.97-3.5,8.86-8.42,8.93-4.88.06-8.83-3.81-8.81-8.63.02-4.65,3.83-8.5,8.51-8.58,4.74-.08,8.57,3.55,8.71,8.28Z"/>
        <path class="cls-2" d="m735.24,294.61c-.02,4.66-3.83,8.49-8.51,8.54-4.86.07-8.85-3.83-8.83-8.62.02-4.63,3.87-8.5,8.53-8.58,4.81-.08,8.84,3.87,8.81,8.66Z"/>
      </g>
    </g>
  </g>
  <text class="cls-1" transform="translate(169.31 752.14) rotate(54.41)"><tspan x="0" y="0">EXAADO SUPPORT</tspan></text>
</svg>