<?xml version="1.0" encoding="UTF-8"?>
<svg id="Layer_1" data-name="Layer 1" xmlns="http://www.w3.org/2000/svg" viewBox="0 0 1024 1024">
  <defs>
    <style>
      .cls-1 {
        font-family: Bahnschrift-SemiBold, Bahnschrift;
        font-size: 101.39px;
        font-variation-settings: 'wght' 600, 'wdth' 100;
        font-weight: 600;
      }

      .cls-1, .cls-2 {
        fill: #fff;
      }

      .cls-2, .cls-3 {
        stroke-width: 0px;
      }

      .cls-3 {
        fill: #024882;
      }
    </style>
  </defs>
  <g>
    <circle class="cls-3" cx="512" cy="512" r="512"/>
    <g>
      <g>
        <rect class="cls-2" x="206.63" y="294.91" width="304.77" height="95.07" rx="47.54" ry="47.54" transform="translate(-136.99 354.16) rotate(-45)"/>
        <rect class="cls-2" x="341.08" y="429.36" width="304.77" height="95.07" rx="47.54" ry="47.54" transform="translate(-192.68 488.61) rotate(-45)"/>
        <rect class="cls-2" x="475.53" y="563.81" width="304.77" height="95.07" rx="47.54" ry="47.54" transform="translate(-248.37 623.06) rotate(-45)"/>
      </g>
      <circle class="cls-2" cx="283.18" cy="555.05" r="49.18"/>
      <circle class="cls-2" cx="416.47" cy="688.34" r="49.18"/>
    </g>
    <g>
      <path class="cls-2" d="m620.65,209.15c0-1.06.53-1.59,1.59-1.59h70.86c1.06,0,1.59.53,1.59,1.59v20.54c0,1.06-.53,1.59-1.59,1.59h-43.47c-.64,0-.96.32-.96.96v17.83c0,.64.32.95.96.95h35.67c1.06,0,1.59.53,1.59,1.59v20.06c0,1.06-.53,1.59-1.59,1.59h-35.67c-.64,0-.96.32-.96.95v39.01c0,1.06-.53,1.59-1.59,1.59h-24.84c-1.06,0-1.59-.53-1.59-1.59v-105.09Z"/>
      <path class="cls-2" d="m768.58,315.83c-1.17,0-2.07-.53-2.71-1.59l-17.04-29.14h-.32l-17.04,29.14c-.64,1.06-1.54,1.59-2.71,1.59h-26.75c-1.27,0-1.59-.58-.96-1.75l32.48-54.14-30.41-50.64c-.64-1.17-.32-1.75.96-1.75h26.75c1.17,0,2.07.53,2.71,1.59l14.97,25.64h.32l14.97-25.64c.64-1.06,1.54-1.59,2.71-1.59h26.75c1.38,0,1.7.58.96,1.75l-30.25,50.64,32.32,54.14c.74,1.17.42,1.75-.96,1.75h-26.75Z"/>
    </g>
  </g>
  <text class="cls-1" transform="translate(169.3 752.13) rotate(54.41)"><tspan x="0" y="0">EXAADO FOREX</tspan></text>
</svg>