<?xml version="1.0" encoding="UTF-8"?>
<svg id="Layer_1" data-name="Layer 1" xmlns="http://www.w3.org/2000/svg" viewBox="0 0 1024 1024">
  <defs>
    <style>
      .cls-1 {
        fill: #2290f1;
      }

      .cls-1, .cls-2 {
        stroke-width: 0px;
      }

      .cls-3 {
        font-family: Bahnschrift-SemiBold, Bahnschrift;
        font-size: 101.39px;
        font-variation-settings: 'wght' 600, 'wdth' 100;
        font-weight: 600;
      }

      .cls-3, .cls-2 {
        fill: #fff;
      }
    </style>
  </defs>
  <g>
    <circle class="cls-1" cx="512" cy="512" r="512"/>
    <g>
      <g>
        <rect class="cls-2" x="206.63" y="294.91" width="304.77" height="95.07" rx="47.54" ry="47.54" transform="translate(-136.99 354.16) rotate(-45)"/>
        <rect class="cls-2" x="341.08" y="429.36" width="304.77" height="95.07" rx="47.54" ry="47.54" transform="translate(-192.68 488.61) rotate(-45)"/>
        <rect class="cls-2" x="475.53" y="563.81" width="304.77" height="95.07" rx="47.54" ry="47.54" transform="translate(-248.37 623.06) rotate(-45)"/>
      </g>
      <circle class="cls-2" cx="283.18" cy="555.05" r="49.18"/>
      <circle class="cls-2" cx="416.47" cy="688.34" r="49.18"/>
    </g>
    <g>
      <path class="cls-2" d="m752.78,345.75c-10.38,1.44-20.73,1.08-30.98-1.13-4.07-.88-6.08-3.57-5.29-6.89.76-3.15,3.6-4.6,7.54-3.86,46.66,8.77,90.27-21.8,97.71-68.98,3.61-22.83-2.35-43.59-16.01-62.17-.2-.27-.52-.46-1.36-1.19.19,1.8.41,3.04.42,4.27.01,3.11-1.57,5.24-4.59,5.74-3.04.51-5.52-.96-6.06-4.01-1.31-7.45-2.41-14.94-3.23-22.47-.39-3.57,2.87-6.17,6.56-5.52,7.45,1.32,14.88,2.79,22.29,4.32,3.56.73,5.34,3.46,4.64,6.68-.63,2.96-3.33,4.67-6.71,4.18-1.32-.19-2.61-.47-4.57-.83,1.33,1.9,2.26,3.27,3.23,4.64,40.61,57.3,5.95,137.56-63.61,147.23Z"/>
      <path class="cls-2" d="m763.36,167.7c-.7,3.16-3.6,4.7-7.48,3.98-46.76-8.77-90.21,21.61-97.78,68.86-3.73,23.24,2.62,44.19,17.29,62.86-.12-1.19-.34-2.4-.36-3.6-.05-3.11,1.49-5.25,4.5-5.8,3.04-.56,5.59.87,6.12,3.89,1.33,7.58,2.45,15.19,3.22,22.84.35,3.38-2.91,5.87-6.43,5.25-7.58-1.33-15.13-2.8-22.65-4.38-3.32-.7-5-3.43-4.38-6.54.58-2.97,3.28-4.73,6.64-4.27,1.31.19,2.6.47,4.75.88-1.18-1.65-1.9-2.69-2.65-3.71-41.58-57.29-7.28-138.25,62.81-148.21,10.5-1.48,20.96-1.09,31.34,1.18,3.83.85,5.76,3.51,5.05,6.74Z"/>
      <path class="cls-2" d="m740.12,195.38c-32.74-.1-59.44,25.71-59.5,57.55-.06,31.67,26.46,57.7,58.91,57.82,32.82.11,59.5-25.55,59.69-57.4.2-31.84-26.34-57.87-59.09-57.97Zm7.45,85.91c-.58.09-1.17.14-1.89.22-.78,4.32,1.29,10.71-5.75,10.71s-4.93-6.44-5.61-9.88c-4.11-1.39-7.9-2.31-11.35-3.97-3.46-1.64-4.33-4.76-2.85-7.6,1.53-2.94,4.49-3.2,8.24-2.04,3.62,1.12,7.56,1.23,11.38,1.59,2.19.21,4.4.12,6.59,0,3.37-.19,5.85-2.76,5.83-5.88-.01-3.14-2.46-5.71-5.86-5.83-3.66-.12-7.33-.02-10.99-.04-10.61-.04-18.01-6.43-18.66-16.14-.61-9.18,6-16.32,16.32-17.65.35-.04.68-.2,1.14-.34.95-4.07-1.41-10.55,5.77-10.56,7.1-.01,4.99,6.38,5.51,9.34,4.93,2.39,9.24,4.01,13.03,6.44,3.46,2.24,3.87,5.97,1.78,8.53-2.19,2.69-5.09,2.48-8.72,0-1.8-1.23-4.12-2.13-6.29-2.34-3.74-.37-7.56-.17-11.35-.07-3.68.09-6.21,2.56-6.2,5.85.01,3.22,2.61,5.79,6.22,5.91,3.79.11,7.58.01,11.37.04,10.06.06,17.27,6.54,17.91,16.07.6,8.88-5.91,16.25-15.6,17.63Z"/>
    </g>
  </g>
  <text class="cls-3" transform="translate(205.47 802.48) rotate(45.58)"><tspan x="0" y="0">EXAADO CASH</tspan></text>
</svg>