<?xml version="1.0" encoding="UTF-8"?>
<svg id="Layer_1" data-name="Layer 1" xmlns="http://www.w3.org/2000/svg" viewBox="0 0 1024 1024">
  <defs>
    <style>
      .cls-1 {
        fill: #2290f1;
      }

      .cls-1, .cls-2 {
        stroke-width: 0px;
      }

      .cls-3 {
        font-family: Bahnschrift-SemiBold, Bahnschrift;
        font-size: 101.39px;
        font-variation-settings: 'wght' 600, 'wdth' 100;
        font-weight: 600;
      }

      .cls-3, .cls-2 {
        fill: #fff;
      }
    </style>
  </defs>
  <g>
    <circle class="cls-1" cx="512" cy="512" r="512"/>
    <g>
      <g>
        <rect class="cls-2" x="206.63" y="294.91" width="304.77" height="95.07" rx="47.54" ry="47.54" transform="translate(-136.99 354.16) rotate(-45)"/>
        <rect class="cls-2" x="341.08" y="429.36" width="304.77" height="95.07" rx="47.54" ry="47.54" transform="translate(-192.68 488.61) rotate(-45)"/>
        <rect class="cls-2" x="475.53" y="563.81" width="304.77" height="95.07" rx="47.54" ry="47.54" transform="translate(-248.37 623.06) rotate(-45)"/>
      </g>
      <circle class="cls-2" cx="283.18" cy="555.05" r="49.18"/>
      <circle class="cls-2" cx="416.47" cy="688.34" r="49.18"/>
    </g>
    <g>
      <path class="cls-2" d="m742.65,361.33h-64.67c-2.32,0-4.26-1.86-4.27-4.18,0-.01,0-.03,0-.04-.02-11.46-.09-22.91.05-34.37.03-2.74-.71-4.7-2.7-6.68-18.08-17.92-36.03-35.97-54.07-53.94-3.49-3.48-5.37-7.43-4.16-12.37,2.25-9.2,13.16-12.49,20.21-5.98,5.05,4.66,9.77,9.67,14.64,14.52,11.34,11.34,22.74,22.63,33.99,34.06,3.9,3.97,8.24,5.03,15.13,3.42,9.04-2.12,18.44-1.85,27.52.11,6.43,1.38,10.67.49,14.44-3.31,15.86-16,31.84-31.88,47.75-47.84,3.62-3.63,7.8-5.25,12.82-3.84,4.53,1.28,7.4,4.4,8.48,8.97,1.17,4.95-.75,8.88-4.23,12.35-17.95,17.88-35.81,35.84-53.79,53.68-2.05,2.04-2.96,4.05-2.93,6.97.14,11.32.08,22.64.07,34.21,0,2.36-1.91,4.27-4.27,4.27Z"/>
      <path class="cls-2" d="m710.49,246.15c10.55.08,19.05,8.77,18.93,19.37-.12,10.54-8.87,19-19.47,18.84-10.37-.16-18.78-8.76-18.74-19.18.03-10.56,8.69-19.1,19.28-19.03Z"/>
    </g>
  </g>
  <text class="cls-3" transform="translate(169.26 752.06) rotate(54.42)"><tspan x="0" y="0">EXAADO RESULTS</tspan></text>
</svg>