<?xml version="1.0" encoding="UTF-8"?>
<svg id="Layer_1" data-name="Layer 1" xmlns="http://www.w3.org/2000/svg" viewBox="0 0 1024 1024">
  <defs>
    <style>
      .cls-1 {
        fill: #2290f1;
      }

      .cls-1, .cls-2 {
        stroke-width: 0px;
      }

      .cls-3 {
        font-family: Bahnschrift-SemiBold, Bahnschrift;
        font-size: 101.39px;
        font-variation-settings: 'wght' 600, 'wdth' 100;
        font-weight: 600;
      }

      .cls-3, .cls-2 {
        fill: #fff;
      }
    </style>
  </defs>
  <g>
    <circle class="cls-1" cx="512" cy="512" r="512"/>
    <g>
      <g>
        <rect class="cls-2" x="206.63" y="294.91" width="304.77" height="95.07" rx="47.54" ry="47.54" transform="translate(-136.99 354.16) rotate(-45)"/>
        <rect class="cls-2" x="341.08" y="429.36" width="304.77" height="95.07" rx="47.54" ry="47.54" transform="translate(-192.68 488.61) rotate(-45)"/>
        <rect class="cls-2" x="475.53" y="563.81" width="304.77" height="95.07" rx="47.54" ry="47.54" transform="translate(-248.37 623.06) rotate(-45)"/>
      </g>
      <circle class="cls-2" cx="283.18" cy="555.05" r="49.18"/>
      <circle class="cls-2" cx="416.47" cy="688.34" r="49.18"/>
    </g>
    <path class="cls-2" d="m752.25,265.54c-3.8-7.09-10.26-10.64-17.61-13.21.54-.59.74-.96,1.06-1.16,11.91-6.39,16.21-16.74,15.55-29.72-.65-13.21-7.41-22.27-19.24-27.66-3.35-1.53-6.86-3.15-10.45-3.64-4.92-.64-5.84-3.1-5.59-7.48.35-5.73.11-11.54.11-17.41h-14.58v21.75h-11.5v-21.75h-14.46v22.25h-37.37v8.61c0,9.78.04,9.61,9.6,12.3,1.64.48,3.86,2.88,3.89,4.39.04,4.12.05,8.22.08,12.31.13,23.41.09,46.84-.07,70.23,0,1.39-1.6,3.4-2.98,4.01-3.24,1.47-8.22,1.3-9.86,3.64-1.76,2.48-.58,7.1-.64,10.79-.04,1.95-.02,3.87-.02,6.79h37.58v19.7h14.47v-19.44h11.49v19.44h14.38v-19.85c2.56-.68,4.95-1.38,7.2-2.1,22.56-7.02,30.46-14.83,32.18-30.56.84-7.63.58-15.18-3.21-22.23Zm-67.81-54.07c7.61.45,15,.37,22.25,1.42,8.62,1.25,12.48,6.11,12.64,14.18.17,8.03-3.46,12.94-12.27,14.4-7.25,1.19-14.72.99-22.62,1.45v-31.45Zm29.18,83.29c-1.26.19-2.56.33-3.82.47-8.32.87-16.8.87-25.56,1.37v-32.06c1.25,0,2.49,0,3.74-.04,8.63-.09,17.12-.51,25.5.26,6.98.65,10.42,6.76,10.51,15.33.12,8.12-3.02,13.6-10.37,14.66Z"/>
  </g>
  <text class="cls-3" transform="translate(169.24 752.03) rotate(54.43)"><tspan x="0" y="0">EXAADO CRYPTO</tspan></text>
</svg>